<svg xmlns="http://www.w3.org/2000/svg" width="194" height="152" fill="none" xmlns:v="https://vecta.io/nano"><style><![CDATA[.B{fill-opacity:.33}]]></style><circle cx="99" cy="76" r="76" fill="#05aae1" fill-opacity=".1"/><g fill="#007095" class="B"><path d="M4.836 46.355c-.49.294-1.067.37-1.551.674-.22.138-.413.319-.606.499l-.785.733c-.125.117-.254.236-.409.294-.234.088-.489.026-.735.044s-.526.18-.536.454c-.008.209.153.385.327.465s.367.094.547.155c.384.127.687.447.971.762.095.105.191.213.244.35s.053.309-.036.42c-.129.162-.368.122-.541.023s-.336-.245-.53-.26c-.226-.016-.425.152-.601.31l-.383.345c-.068.061-.137.125-.175.211-.036.081-.041.175-.031.264.041.363.322.647.632.77s.647.114.977.105c.357-.01.721-.023 1.054-.163.201-.085.445-.209.609-.056.123.114.119.336.037.489s-.224.252-.359.345l-1.824 1.26c-.166.114-.352.269-.346.486.004.159.112.286.213.398l.724.8c.207.229.484.479.76.369l.208.79c.054.205.131.439.313.508.206.079.416-.101.568-.276.033-.038.068-.077.115-.087.106-.021.171.119.242.21.19.245.545.173.814.048s.571-.283.835-.147c-.35.598-.932.999-1.491 1.349a16.41 16.41 0 0 0-2.78 2.203c.629.247 1.182-.542 1.827-.736.236-.071.484-.06.723-.12.644-.161 1.087-.794 1.606-1.247.502-.438 1.127-.751 1.446-1.365.27-.52.266-1.164.485-1.713s.879-.986 1.284-.589c.057.365-.292.623-.548.86s-.41.775-.1.911c.084.037.18.026.268.004.331-.079.637-.287.852-.578.276-.374.421-.894.803-1.125.338-.205.76-.114 1.113.057s.677.421 1.047.535c.544.168 1.2.061 1.605.498.16.172.255.409.425.567.213.199.505.244.772.327.64.198 1.211.66 1.579 1.275.132.222.25.474.457.607s.541.059.587-.203c.218.178.225.535.366.792.256.463.91.534 1.105 1.032.16.405-.009 1.021.35 1.209.084.044.18.048.27.077.479.151.573.847.851 1.307.345.572.998.78 1.529 1.138s.982 1.137.629 1.704c-.069-.592-.418-1.108-.845-1.469s-.932-.588-1.43-.812c-.204.113-.049.461.131.617.45.392.982.698 1.303 1.223.618 1.016.221 2.401.474 3.595l.556 2.998c.069.307.147.619.313.876.222.343.585.556.783.916.12.219.171.478.294.695.402.71 1.367.703 1.903 1.293.547.602.47 1.584.617 2.424.029.167.076.344.197.447.108.091.252.106.382.148.713.236.889 1.234 1.2 1.986a3.42 3.42 0 0 0 1.029 1.375c.116.091.25.176.391.156s.265-.201.194-.338c-.791-.151-1.433-.981-1.448-1.874-.003-.173.015-.348-.018-.517-.061-.316-.282-.556-.47-.803a4.3 4.3 0 0 1-.63-1.174c-.07-.199-.073-.51.117-.54.085-.013.166.047.229.113.461.487.458 1.359.936 1.826.236.23.551.323.837.465s.574.378.627.721c.023.152-.003.311.029.462.056.265.275.442.48.591.327.236.664.468.914.8s.4.792.282 1.205c-.041.147-.116.291-.106.445.013.192.154.34.284.466l1.483 1.437c.339.328.682.66 1.084.884.6.335 1.3.408 1.964.306.253-.039.51-.103.763-.064s.511.21.579.484a2.91 2.91 0 0 1 .852.128c-.024-.047-.065-.118-.054-.065s.061.082.105.103l.906.39c.314.104.642.167.938.324.475.252.828.726 1.092 1.233.237.454.524 1.019.995 1 .122-.005.245-.053.365-.027.348.074.389.643.679.868.24-.271.701-.228.898.083.067.107.106.234.184.33s.222.149.311.063c.041-.041.06-.101.074-.159.057-.239.063-.494.017-.735.254-.28.717-.111.922.214s.239.743.314 1.133c.116.608.316 1.341-.086 1.772-.13.14-.304.216-.461.319-.521.344-.826.972-1.106 1.57-.141.3-.285.63-.23.962s.421.609.671.416c.078.498-.308.923-.658 1.247-.289.267-.192.786.05 1.106.172.227.421.359.633.539.957.816.962 2.392 1.482 3.602.379.882 1.07 1.594 1.89 1.948.459.198.956.288 1.392.542s.816.745.768 1.29c-.041.458-.367.813-.55 1.228-.448 1.013-.002 2.243-.217 3.346-.111.572-.398 1.097-.449 1.68-.058.679.212 1.35.175 2.03-.075 1.366-1.358 2.547-1.014 3.86.062.238.177.492.089.721-.072.187-.262.287-.353.465-.289.563.514 1.49.006 1.806.192.309.715.186.78-.182.24.508.122 1.193-.269 1.566-.252.241-.598.358-.806.645s-.118.864.214.849c-.047.405-.644.42-.786.796-.12.318.154.63.351.895.389.523.546 1.251.41 1.913-.044.215-.114.453-.02.647.114.233.394.265.625.334.75.224 1.21 1.035 1.799 1.598s1.663.782 2.02.016c-.829-.846-1.526-1.852-2.049-2.96.313-.388.738-.662 1.196-.769-.263-.235-.065-.713.185-.966s.572-.54.512-.91c-.092-.573-1.023-.694-.968-1.274.038-.416.534-.502.886-.651.551-.235.919-.915.845-1.567l.454.111c-.141-.306-.456-.499-.763-.469-.253-.378-.097-1.003.295-1.182.152.217.316.445.548.541s.548-.002.615-.267c.077-.301-.191-.59-.175-.902.019-.354.393-.555.711-.543s.626.158.945.157c.475-.001.932-.364 1.089-.863s0-1.099-.372-1.428c-.162-.143-.375-.262-.423-.487-.072-.341.313-.604.626-.562s.586.256.894.332c.788.192 1.495-.536 2.037-1.202.837-1.027 1.721-2.172 1.783-3.557.02-.445-.04-.93.177-1.303.102-.175.254-.304.408-.423.672-.524 1.416-.933 2.199-1.209.208-.074.422-.14.603-.275.25-.188.409-.489.548-.786.513-1.107.846-2.318.976-3.555.05-.474.072-.963.243-1.401.28-.719.907-1.184 1.333-1.808s.572-1.666-.022-2.087c-.212-.15-.475-.184-.695-.318-.597-.362-.706-1.317-1.27-1.739-.648-.485-1.581-.054-2.28-.443-.351-.195-.629-.59-1.02-.621-.248-.02-.485.115-.733.135-.523.041-.888-.408-1.14-.859-.295-.527-.265-.903-.387-1.48-.233-1.106-1.173-2.05-2.218-2.033-.437.007-.894.152-1.3-.03-.292-.132-.504-.413-.704-.685l-.764-1.036c-.194-.263-.402-.538-.689-.659s-.674-.016-.781.303c-.166-.012-.178-.29-.301-.415-.177-.18-.444.032-.64.187a1.35 1.35 0 0 1-1.56.071c-.289-.19-.511-.487-.797-.684s-.693-.269-.934-.008c.097-.173-.042-.412-.219-.464s-.361.023-.529.103c-.701.335-1.361.779-1.952 1.316-.175.159-.36.332-.585.348-.267.019-.501-.191-.764-.246-.423-.091-.838.227-1.269.212-.577-.019-1.011-.629-1.154-1.251s-.083-1.277-.144-1.915c-.023-.239-.078-.502-.259-.632-.13-.093-.296-.094-.452-.093l-2.024.029.565-1.634c.237-.688.389-1.658-.202-1.994-.518-.294-1.11.227-1.435.764s-.645 1.193-1.217 1.311c-.621.128-1.162-.458-1.552-1.011-.347-.492-.694-1.073-.608-1.691.037-.269.155-.527.138-.798-.015-.235-.13-.445-.195-.67-.288-.986.464-2.044 1.354-2.352s1.849-.075 2.758.159c-.047-.244-.023-.504.065-.733a2.89 2.89 0 0 1 2.146.196c.415-.257.936-.291 1.374-.09-.312.416-.312 1.038-.127 1.538s.524.909.855 1.304c.063.075.131.153.22.177s.191-.014.27-.075c.468-.362.232-1.194-.139-1.676s-.867-.987-.791-1.617c.036-.292.195-.545.372-.763.997-1.234 2.692-1.787 3.261-3.321.191-.513.228-1.087.448-1.586.455-1.033 1.542-1.477 2.527-1.826l-.547-.354c.143-.703.631-1.27 1.194-1.627s1.202-.531 1.831-.703l-1.091 1.077c1.082-.212 2.118-.711 2.999-1.44.093-.292-.303-.441-.581-.413s-.547.186-.82.132c-.317-.062-.543-.414-.571-.77s.113-.707.305-.994c-.205-.42-.754-.357-1.169-.235l-1.498.441c-.066-.154.075-.313.199-.413l.805-.645c.203-.162.41-.328.648-.408.641-.215 1.316.224 1.985.181.656-.043 1.206-.533 1.76-.925.395-.279.94-.507 1.298-.171-.84.63-1.456 1.618-1.691 2.713-.012.055-.023.113-.01.168.015.068.064.12.116.159.383.288.895.001 1.357.026.337.019.648.209.926.421.342.26.751.576 1.13.39.339-.166.439-.685.294-1.064s-.466-.636-.791-.833-.674-.359-.951-.633c-.058-.058-.116-.126-.128-.213-.015-.112.051-.216.113-.306l.506-.731c.055-.079.113-.166.117-.267.004-.077-.024-.15-.053-.22-.464-1.124-1.363-2.017-2.42-2.402-.209-.076-.427-.135-.615-.263-.368-.252-.558-.731-.651-1.2s-.112-.956-.241-1.415c-.186-.653-.603-1.221-1.143-1.553-.125-.077-.279-.142-.406-.071-.186.104-.265.46-.466.405.053.455-.253.984-.666.986s-.784-.393-.842-.847c-.023-.18-.005-.368-.054-.541-.089-.305-.367-.486-.633-.605s-.558-.211-.759-.441c-.099-.113-.171-.254-.263-.377-.229-.304-.591-.478-.948-.454-.244.016-.489.119-.726.057-.302-.351-.748-.544-1.183-.498s-.822.598-.615 1.026c.045.093.115.178.124.285s-.099.224-.176.16c.259.185.501.459.522.8s-.297.697-.581.563c-.078.513.333.938.695 1.267s.754.792.629 1.293c-.209.835-1.611.812-1.644 1.679a3.47 3.47 0 0 1 .509 1.632c.006.099.007.201-.026.293a.56.56 0 0 1-.186.242c-.45.36-1.171.165-1.422-.384-.278-.606-.024-1.452-.446-1.944-.542-.634-1.623-.041-2.236-.589-.169-.151-.278-.372-.45-.516-.497-.416-1.408-.133-1.668-.763-.213.018-.418.128-.562.304-.195-.245.129-.693-.064-.94-.059-.076-.152-.107-.239-.133l-1.267-.39c.279-1.5.681-3.19 1.901-3.897.158-.092.357-.233.308-.423.516-.131 1-.411 1.394-.803.114-.114.229-.259.226-.43s-.202-.325-.316-.21c.045-.428.796-.194.952-.59.041-.106.024-.229.057-.339.109-.361.575-.279.916-.244.612.062 1.241-.315 1.531-.917-.455-.203-.47-1.065-.023-1.287-.433-.814-1.437-1.182-2.22-.814l.52.36c-.414.058-.59.595-.767 1.016s-.648.837-.963.532c-.163-.159-.175-.449-.084-.668s.258-.385.421-.544c-.288-.107-.562-.258-.813-.448l-.513.666c-.431.029-.6-.607-.924-.925-.072-.071-.159-.132-.193-.231-.114-.322.402-.585.327-.92-.023-.105-.1-.181-.175-.252l-1.29-1.233c.207-.493.685-.753 1.101-1.038s.84-.719.81-1.262c-1.089.211-2.163.512-3.211.9l.811.397c-.261.458-.522 1.065-.235 1.502-.182.116-.373.266-.42.494s.16.506.349.405l-.386.49a10.8 10.8 0 0 0 1.817.694c-.356.736-.885 1.367-1.521 1.811.099-.31-.161-.647-.451-.712s-.586.057-.862.177c.051.289-.301.435-.566.445-1.025.042-2.056-.152-3.01-.566-.146-.063-.298-.139-.389-.281s-.091-.372.04-.467c-.475-.004-.948.216-1.277.596.402.379.6 1.007.496 1.582-.428-.07-.785-.499-.815-.98-.27-.021-.535-.117-.763-.278-.666.109-1.335.109-2.001.218-.099.016-.208.031-.296-.024-.172-.11-.134-.423.022-.559s.37-.145.567-.148c-.243-.285-.542-.595-.893-.552-.18.022-.34.135-.514.19-.982.309-1.852-1.267-2.835-.961-.271.084-.496.307-.77.38s-.644-.125-.595-.433c-.252.088-.475.276-.619.521-.253-.126-.373-.44-.511-.707s-.378-.537-.649-.471c-.279.067-.391.434-.454.744-.222-.302-.652-.084-.957.11-.494.314-1.045.518-1.61.594.005-.298-.34-.464-.601-.393s-.47.282-.711.413c-.619.336-1.363.108-1.988-.213s-1.239-.742-1.926-.79c-.328-.023-.656.042-.983.069-.957.077-1.909-.173-2.842-.42l-1.245-.33c-.476-.127-.966-.26-1.361-.58-.185.348-.251.563-.603.444z"/><path d="M44.682 92.461c-.069.064-.071.194-.03.285s.116.154.188.213l.439.361c.033.027.069.056.109.055.034 0 .065-.022.094-.042.126-.088.267-.209.265-.383-.002-.145-.11-.259-.222-.312s-.236-.066-.349-.12c-.159-.075-.321-.216-.493-.056zM18.607 42.738c.054.086.132.149.183.238.099.175.073.414-.008.6s-.21.335-.324.494a3.19 3.19 0 0 0-.359.661c-.046.115-.087.239-.077.366a.63.63 0 0 0 .115.298c.252.373.693.504.943.88.058.088.105.187.174.264.204.231.55.187.779-.009s.371-.503.505-.8l.242-.537c.088-.195.176-.393.293-.565.25-.371.612-.609.983-.777s.761-.275 1.134-.437c.091-.04.197-.109.193-.225-.002-.051-.025-.096-.051-.137-.149-.238-.387-.392-.634-.41-.472-.036-.92.392-1.385.288-.233-.052-.43-.23-.631-.379s-.439-.276-.67-.209c-.123.036-.231.123-.349.177a.69.69 0 0 1-.56.011c-.113-.047-.22-.125-.338-.146-.194-.037-.279.167-.158.356zm4.453 1.432c-.364.268-.655.663-1.023.924-.187.133-.412.257-.475.506-.055.218.046.462.203.592s.356.162.546.155c-.046.19-.091.398-.027.58.053.152.175.256.302.316.344.162.727.058 1.092-.008s.781-.073 1.052.227c-.276.153-.595.103-.898.119a2.14 2.14 0 0 0-1.073.362c-.017.261.204.462.418.511s.435-.004.652.027c.19.027.369.118.544.207.239.121.48.243.698.413.105.082.206.176.323.231s.234.071.354.088c.553.077 1.148.141 1.632-.188.268-.182.476-.467.682-.742.088-.117.183-.238.308-.283.142-.051.297.005.426.093.385.261.603.776.961 1.089.099.086.214.159.336.151.107-.007.205-.073.301-.127a1.58 1.58 0 0 1 .818-.206c-.003-.192-.138-.337-.241-.484s-.174-.384-.059-.518c.1-.117.264-.066.403-.045s.328-.063.308-.229c-.008-.059-.042-.109-.08-.15-.359-.386-.946-.194-1.375-.461-.133-.083-.246-.208-.351-.336-.165-.203-.317-.421-.442-.661a3.59 3.59 0 0 1-.39-1.402 1.32 1.32 0 0 1 .016-.379c.074-.339.395-.568.678-.485-.085-.169-.175-.343-.306-.461s-.318-.171-.463-.077c-.077.051-.134.137-.207.194-.165.129-.38.094-.576.078s-.426.01-.538.206c-.12.212-.034.503.092.71s.293.39.346.638-.092.576-.302.534c-.164-.032-.244-.251-.306-.437a5.52 5.52 0 0 0-.36-.847c-.062-.116-.142-.241-.256-.253-.173-.019-.289.225-.458.273-.288.082-.464-.4-.746-.506-.305-.114-.576.235-.84.451-.143.117-.326.201-.486.123-.229-.112-.184-.429-.013-.565-.234-.422-.92-.155-1.199.052zm10.175 4.124c-.065.166-.139.344-.275.428-.084.05-.179.058-.267.093s-.177.115-.183.227c-.003.06.019.118.046.17.147.281.462.416.724.312.084-.033.162-.089.247-.122.265-.105.552.014.813.131.132.059.273.127.349.27a.8.8 0 0 0-.041-.678c-.075-.129-.184-.223-.292-.312l-.658-.554c-.255-.215-.319-.337-.463.034zm.667-5.044c.07.108.101.265.042.383-.098.194-.361.168-.471.352-.098.163-.014.402.119.524s.302.167.452.256c.055.033.113.077.133.148s-.001.145-.023.215l-.146.481c-.018.058-.036.116-.067.165-.035.055-.083.093-.13.13l-.587.466c-.03.024-.063.049-.099.05-.05.001-.092-.044-.128-.086-.542-.638-1.104-1.312-1.831-1.579-.095-.035-.215-.1-.203-.219.005-.048.034-.089.067-.116.171-.144.401-.001.578.132s.428.248.574.07c.111-.136.08-.376-.026-.516s-.265-.206-.417-.258c-.052-.017-.105-.035-.144-.079-.087-.097-.056-.283.032-.379s.212-.127.329-.151c.377-.078.756-.136 1.137-.173.292-.029.6-.134.808.183zM23.7 39.531l-1.018 1.147c-.184.228-.374.556-.246.833a.46.46 0 0 0 .307.242c.374.102.758-.137 1.044-.445.104-.112.207-.24.343-.282s.311.047.321.215c.016.258-.336.379-.325.636.007.16.154.256.285.285.37.083.745-.095 1.071-.321s.631-.504.985-.651c.298-.124.625-.147.934-.069.237.06.469.18.712.172.178-.006.349-.081.512-.166.194-.101.393-.227.503-.445s.087-.548-.098-.673c-.218-.147-.488.064-.737.028-.269-.04-.446-.356-.551-.656-.033-.095-.065-.195-.125-.269-.084-.103-.213-.138-.332-.126-.352.036-.628.5-.54.912.033.156.11.309.085.467-.028.187-.183.3-.325.384-.136.08-.285.157-.434.126-.096-.02-.181-.083-.259-.152-.212-.187-.39-.425-.598-.62-.25-.235-.5-.281-.789-.389-.263-.098-.464-.451-.725-.183zm-2.794-.697c-.211.186-.393.413-.591.617-.245.251-.515.465-.804.637.502.352 1.178.306 1.643-.113.155-.14.291-.318.472-.401.322-.147.692.048 1.025-.057.307-.096.548-.449.657-.796.123-.392-.098-.477-.394-.504-.687-.064-1.447.123-2.007.616zm4.392-2.35c-.132.13-.239.295-.38.412-.073.06-.154.108-.221.177s-.119.172-.11.277c.008.093.063.168.115.236a3.94 3.94 0 0 0 .491.523c.031.028.064.056.1.071.055.024.115.018.173.008.617-.104 1.159-.689 1.309-1.415.01-.048.018-.103-.006-.143-.016-.028-.042-.043-.069-.057-.255-.135-.529-.221-.796-.302-.103-.031-.083-.081-.233-.034-.134.043-.267.142-.374.247zm4.494 2.887c-.132.16-.148.44-.036.621.081.129.209.2.336.256a2.74 2.74 0 0 0 1.369.23c.214-.02.466-.048.605.148.112.158.095.389.093.596s.043.454.205.527a.38.38 0 0 0 .214.012c.324-.046.691-.167.824-.524.131-.351-.028-.749-.057-1.133-.017-.227-.005-.504-.163-.63-.069-.054-.153-.064-.235-.074l-.986-.11c-.058-.007-.12-.012-.173.018-.131.076-.118.302-.085.472a.89.89 0 0 0-.782.121c-.043.03-.089.065-.139.059-.035-.004-.065-.027-.094-.051l-.387-.305c-.142-.111-.041-.261-.1-.331-.1-.118-.329.001-.409.097zm-.942-1.583c-.032.071-.022.16.01.231s.082.127.131.181c.214.238.446.486.734.539.014.003.03.004.041-.007s.01-.017.014-.027c.046-.139.089-.306.017-.428-.064-.108-.188-.127-.285-.186-.158-.096-.252-.303-.411-.398-.067-.04-.219.022-.252.094zm.605-2.384a.35.35 0 0 0-.198.364c.047.253.348.265.509.439-.041.126-.139.221-.249.245a.45.45 0 0 0 .275.425c.152.063.317.049.479.045.322-.008.644.034.956.122.238.067.484.173.639.4.065.095.117.215.212.263.056.028.119.026.18.024.135-.006.306-.045.332-.204.012-.076-.016-.152-.047-.22a2.12 2.12 0 0 0-.535-.725c-.182-.157-.386-.272-.588-.385l-.713-.4c-.33-.186-.877-.559-1.252-.393zm3.767.936a.75.75 0 0 0 .119.597c.114.163.279.268.448.333.287.111.651.168.765.504.028.083.037.177.073.256.099.215.35.234.551.185s.412-.139.602-.046c.072.035.135.094.209.123s.17.013.207-.069c.042-.093-.016-.206-.078-.283a1.42 1.42 0 0 0-.551-.427c-.118-.05-.248-.085-.341-.186-.145-.158-.162-.429-.292-.606a.8.8 0 0 0-.24-.201c-.325-.202-1.279-.917-1.471-.18zm1.484 4.4c-.12.11-.213.257-.303.401-.03.048-.061.102-.055.161.004.043.028.08.052.114a1.78 1.78 0 0 0 .566.52c.153.086.322.145.489.119.297-.048.536-.4.515-.759-.003-.046-.009-.094-.031-.133s-.058-.07-.094-.096c-.331-.245-.769-.663-1.138-.328zm-.441-1.966c-.04 0-.082 0-.118.021-.126.075-.072.307.017.437.207.304.516.506.841.55.227.031.456-.01.684.001s.471.09.614.304c.22.33.128.864.371 1.169.098.123.235.187.369.245.326.144.67.279 1.013.22.1-.017.2-.052.3-.043.25.019.432.276.634.45.523.451 1.256.369 1.842.046.169-.093.332-.205.51-.266s.38-.068.541.044c.064.044.12.108.191.138s.145.026.217.018c.495-.054 1.024-.298 1.247-.832.068-.162.098-.375.001-.513-.035-.05-.082-.084-.13-.115-.556-.364-1.261-.382-1.83-.045l-.564.364c-.316.163-.668.191-1.012.211-.551.033-1.145.04-1.601-.333-.285-.233-.492-.598-.805-.772-.285-.16-.667-.174-.82-.503-.02-.043-.037-.093-.07-.12-.039-.033-.092-.028-.14-.025-.471.029-.759-.242-1.14-.509-.331-.234-.788-.139-1.161-.142zm.897-5.607c-.126.163-.258.346-.267.568-.008.207.093.395.192.564l.645.99c.46.63.984 1.188 1.507 1.744.065.069.133.141.216.171.193.072.388-.094.534-.262s.304-.363.506-.365c.14-.002.277.093.415.062.246-.055.314-.44.501-.64.149-.159.363-.188.559-.232s.412-.136.496-.354c-.107-.286-.412-.353-.669-.399-.294-.053-.594-.131-.84-.331-.255-.208-.436-.534-.709-.706-.122-.076-.26-.121-.366-.225-.143-.141-.217-.378-.385-.468-.147-.079-.339-.027-.459-.156-.053-.056-.081-.137-.114-.209-.131-.282-.587-.774-.879-.768-.282.005-.693.773-.882 1.017z"/><path d="M42.02 29.857c-.123.045-.255.098-.33.225-.08.136-.074.327-.161.457-.115.173-.34.161-.511.08s-.329-.217-.512-.244c-.386-.058-.701.369-1.079.475-.229.063-.466.006-.701-.009-.502-.034-1.011.134-1.429.47a.66.66 0 0 0-.182.203c-.067.128-.069.294-.034.439.116.47.555.689.941.848l.97.396c.241.098.501.198.746.113.101-.035.206-.102.307-.067.12.042.178.22.149.365s-.124.259-.226.345c.193.53.958.413 1.166.935.126.315-.041.704-.282.9s-.539.254-.819.345-.573.242-.721.543c-.028.057-.051.122-.046.188.006.093.064.17.125.227.256.239.603.262.91.39s.614.478.52.85c-.549.198-.916-.815-1.487-.881-.104-.011-.219.016-.287.111-.127.177-.02.456.12.62s.32.312.353.544a8.62 8.62 0 0 0-1.179.43c-.052.024-.109.054-.128.116-.015.053.003.11.025.159.142.293.456.39.739.405 1.122.058 2.246-.736 3.328-.374.345.116.677.347 1.034.321.439-.033.787-.444 1.073-.846-.137-.093-.29-.151-.447-.168l.668-.64c.054-.052.114-.119.109-.203-.006-.072-.059-.125-.074-.196-.044-.207.22-.269.397-.282.369-.026.715-.327.851-.738s.057-.916-.196-1.238l2.757-1.375c.252-.125.511-.256.709-.48.324-.363.462-.941.833-1.231.423-.331 1.031-.192 1.422-.574-.096-.223-.311-.363-.518-.338.319-.206.692-.292 1.051-.242.322.045.646.194.96.104.373-.107.623-.515.84-.896l-1.12-.344c-.073-.023-.15-.048-.203-.113s-.069-.151-.107-.226c-.142-.286-.489-.292-.75-.182s-.511.3-.788.288c-.16-.007-.311-.082-.463-.142-.569-.225-1.177-.246-1.775-.267-1.164-.04-2.334-.078-3.493.07-.382.049-.768.118-1.147.045-.31-.059-.553-.199-.863-.098l-1.047.388zm-1.918 23.422c-.031.237.023.478.007.716-.017.229-.102.45-.237.614-.078.094-.174.173-.223.292a.52.52 0 0 0 .092.516.45.45 0 0 0 .442.13c.099-.024.191-.076.291-.09s.215.026.258.134c.04.1.023.256.112.289.071.026.133-.063.161-.146.07-.209.074-.456.192-.632.193-.287.573-.226.852-.07s.556.382.862.344c.073-.009.148-.036.2-.098.106-.127.069-.359-.04-.48s-.267-.16-.417-.174-.303-.01-.444-.072c-.268-.116-.432-.432-.599-.709-.222-.368-.492-.44-.777-.681-.141-.119-.237-.353-.437-.313-.161.031-.272.25-.295.428zm1.595 2.95c-.034.125-.068.257-.144.352-.041.052-.093.091-.13.146s-.055.14-.021.197c.014.024.036.041.057.054.131.082.295.083.425.001.148-.093.243-.272.315-.452s.138-.358.235-.521c-.267-.361-.62-.215-.739.223zm-1.362-11.278c.069.252.223.579.042.731-.085.073-.205.046-.298-.01-.269-.164-.41-.558-.374-.918a1.44 1.44 0 0 1 .464-.902c.135-.125.307-.264.295-.468-.009-.157-.129-.27-.249-.333-.381-.2-.834-.082-1.191.174-.539.387-.915 1.095-.954 1.847s.27 1.524.799 1.931c.6.462 1.363.428 2.077.436s1.503.119 1.975.76c.118.16.222.358.391.425.223.088.461-.093.605-.315s.239-.49.406-.687c.057-.067.124-.127.203-.145.159-.038.307.096.426.226.278.304.532.639.759.998l-.314.321c-.051.052-.106.114-.106.193a.21.21 0 0 0 .082.159c.221.176.498-.067.755-.151.552-.181 1.052.41 1.413.943.051.075.102.153.123.245.064.289-.184.522-.364.728-.302.345-.479.842-.476 1.342.001.135.013.276-.035.399-.098.253-.381.288-.614.287l-1.274-.007c-.101-.001-.206 0-.297.048-.286.149-.279.696-.04.937s.591.233.891.127.575-.295.878-.382.662-.045.865.24c.129.18.171.424.257.637.236.583.773.884 1.277 1.12a19.96 19.96 0 0 0 2.555.987 20.86 20.86 0 0 0-1.446-1.835c.232-.162.501.095.706.303a2.86 2.86 0 0 0 .949.644c.16.065.339.113.494.034.249-.127.323-.534.225-.837s-.313-.523-.522-.73l-1.074-1.065c-.153-.152-.31-.31-.401-.52s-.1-.493.031-.67c.113-.152.301-.193.467-.16.443.089.726.591.999 1.018s.685.856 1.118.713c.254-.084.435-.347.6-.597.204-.309.419-.708.286-1.068-.126-.344-.484-.435-.783-.543-.805-.291-1.458-.983-2.084-1.655-.13-.14-.263-.285-.339-.474s-.079-.435.038-.591.368-.147.441.042c-.176-.552-.638-.882-1.069-1.167-.814-.542-1.634-1.087-2.52-1.429-.157-.06-.317-.116-.455-.225-.088-.07-.164-.16-.242-.245a3.53 3.53 0 0 0-1.195-.862 1.4 1.4 0 0 0-.486-.13c-.549-.024-1.105.46-1.612.206-.564-.282-.718-1.335-1.321-1.449-.422-.079-.766.338-1.175.356-.218.01-.287-.012-.436.212s-.224.519-.146.804z"/><path d="M43.559 44.138l.344.199c.062.036.124.072.191.085.086.017.175-.004.261-.02a2.58 2.58 0 0 1 .868-.017c.132.02.272.049.396-.009s.218-.246.147-.383c-.023-.046-.062-.079-.099-.11a3.26 3.26 0 0 0-1.076-.587c-.25-.079-.507-.112-.757-.187-.167-.049-.3-.116-.468-.034-.568.278-.159.859.193 1.063zm1.854 5.673c-.084.041-.136.142-.183.236l-.149.304c-.014.028-.028.057-.031.09a.27.27 0 0 0 .017.101c.102.308.323.556.586.659.029.011.06.022.09.019.142-.011.21-.267.353-.262.049.002.099.035.143.01s.053-.108.051-.173c-.009-.308-.079-.456-.275-.628-.152-.136-.389-.459-.602-.355zm5.428-15.487a3.88 3.88 0 0 0 .86.15c.131.008.232.119.221.251-.038.474-.575.813-1.013.953l-2.75.878c-.099.032-.203.066-.279.149-.237.26-.032.75.243.949.39.282.842.294 1.307.249.291-.027.354.398.068.455l-.444.088c-.145.028-.32.092-.348.264-.059.374.499.253.769.455.109.082.168.23.247.352.401.616 1.192.45 1.833.309 1.416-.311 2.958-.169 4.17.765s1.992 2.772 1.616 4.441c-.071.318-.119.781.147.862.067.02.136.005.204-.006.757-.118 1.549.391 1.909 1.195.071.16-.058.339-.232.323-.376-.034-.798-.451-1.205-.383-.522.088-.693 1.032-.326 1.484.311.382.825.408 1.236.188.122-.065.159-.226.078-.339l-.029-.041a.23.23 0 0 1 .206-.363l.519.044c.141.012.237.147.205.285-.245 1.016-1.665 1.431-1.733 2.553-.022.371.118.725.258 1.056l2.109 4.515c.302.587.731 1.242 1.303 1.179.206-.023.406-.143.611-.105.441.081.619.812 1.005 1.023.084.046.19.032.261-.032.433-.387.521-1.155.622-1.814.099-.644.38-1.392.879-1.53.098-.026.162-.118.162-.22v-1.474a.23.23 0 0 1 .191-.226c.447-.077.868-.361 1.156-.779.082-.119.251-.14.35-.036a.86.86 0 0 1 .09.111c.079.115.242.131.343.035l2.518-2.385c.182-.173.37-.349.59-.436s.465-.079.702-.085c1.246-.032 2.478-.548 3.475-1.444.144-.13.073-.375-.12-.4a2.13 2.13 0 0 1-1.278-.679.24.24 0 0 1-.061-.16c-.001-.399.383-.717.733-.709.379.009.72.258 1.068.434.235.119.506.201.751.161.178-.028.252-.247.131-.382l-1.874-2.09c-.154-.172.011-.441.232-.377.184.054.377.197.518.35a1.92 1.92 0 0 0 .428.364c.213.123.441-.138.296-.338l-.484-.669a.23.23 0 0 1 .227-.361 1.69 1.69 0 0 0 1.258-.29c.01-.007.02-.015.028-.023l.563-.519c.085-.078.102-.211.032-.304-.117-.154-.292-.245-.465-.245-.112 0-.211-.069-.235-.178l-.02-.091c-.024-.116.049-.222.16-.259.338-.11.554-.697.416-1.132-.112-.35-.349-.602-.617-.808-.157-.12-.096-.368.098-.409.346-.072.699-.104 1.051-.096.152.003.267-.144.223-.291-.245-.819-.843-1.48-1.542-1.711a.23.23 0 0 1-.112-.353 14.43 14.43 0 0 0 1.088-1.704c.024-.045.064-.079.111-.099.464-.197.874-.545 1.277-.888.158-.135.335-.326.339-.543.001-.07.031-.136.085-.179l1.759-1.419c.113-.092.113-.262.004-.358-.664-.578-1.621-.505-2.462-.387-1.109.155-2.306.364-3.224 1.058-.201.152-.466-.086-.335-.302a2.96 2.96 0 0 1 .326-.442c.118-.131.041-.34-.13-.377-.565-.124-1.18.087-1.605.549-.149.162-.418.053-.402-.168.019-.266.157-.546.354-.687.337-.242.754-.219 1.146-.255.241-.022.5-.085.705-.228.172-.12.111-.386-.096-.419-2.256-.356-4.259-1.998-6.543-1.751-1.417.153-2.507.417-3.91.701-1.086.22-2.412-.016-3.123.95-.047.063-.053.149-.023.222l.26.613c.031.074.025.16-.023.224-.291.37-.88.166-1.279-.11-.434-.3-1.048-.596-1.376-.14-.086.121-.132.277-.221.395-.163.22-.458.221-.661.07s-.482.074-.347.29c-.346-.761-1.238-.406-1.759-.17-.647.294-1.42.207-2.03.546-.297.166-.417.496-.659.729-.333.322-.727.261-1.129.371a3.19 3.19 0 0 0-1.105.558c-.061.047-.393.415-.626.676-.108.123-.053.326.108.373zm26.765 6.849c-.006.026-.012.054-.008.08s.02.056.035.08l.232.378c.028.046.057.093.093.132s.067.062.09.105c.009.017.016.037.03.05.023.023.056.018.085.012.086-.016.179-.037.238-.114.04-.053.058-.125.069-.195.024-.175.001-.361-.079-.511a1 1 0 0 0-.456-.391c-.22-.072-.282.172-.329.374zM75.209 52.05l-.242.194c-.048.039-.102.09-.101.16 0 .035.015.068.032.097.071.127.181.22.304.259s.277.032.36.151c.1.142.035.353.019.537a1.16 1.16 0 0 0 .155.655c.107.192.251.351.399.501l.506.471c.138.118.283.231.447.285.144.046.295.044.443.031.592-.052 1.167-.269 1.719-.533.298-.142.594-.302.853-.53a1.92 1.92 0 0 0 .585-.897.22.22 0 0 0 .011-.092c-.007-.048-.043-.081-.075-.11-.212-.192-.406-.438-.466-.748-.038-.197-.046-.454-.205-.524-.18-.079-.36.184-.549.142-.107-.024-.185-.142-.29-.179-.184-.065-.352.13-.525.229-.098.056-.205.082-.311.108-.349.085-.707.171-1.059.11-.134-.024-.267-.068-.403-.073s-.282.038-.373.159c-.035.045-.062.103-.109.128-.083.045-.175-.033-.236-.114a1.54 1.54 0 0 1-.192-.333c-.034-.08-.055-.242-.115-.29-.164-.128-.452.102-.581.206zm20.512-17.279c-.16.01-.154-.319-.29-.421-.038-.028-.084-.035-.129-.041-.233-.032-.469-.056-.7-.003s-.455.191-.585.425c-.053.096-.09.212-.074.326a.65.65 0 0 0 .08.211c.435.807 1.152 1.331 1.66 2.073.178.261.329.547.495.822a8.42 8.42 0 0 0 .595.868c.156.2.373.407.588.316.081-.034.145-.106.208-.175.164-.184.331-.372.44-.607.083-.177.13-.375.199-.56.068-.179.156-.347.244-.514l.411-.779c.077-.146.162-.301.296-.367.207-.103.446.053.589.259.063.09.116.196.118.312.004.283-.296.503-.237.779.037.181.209.263.358.318l.501.185c.095.036.197.072.294.045a.57.57 0 0 0 .202-.126l.724-.606c-.413-.685-1.057-1.105-1.679-1.503l-.996-.636c-.336-.214-.677-.434-.948-.756l-.381-.479c-.138-.146-.311-.263-.495-.261-.256.004-.491.273-.506.58-.009.201.062.393.122.58.019.06.03.144-.017.175-.028.018-.064.005-.093-.011a.84.84 0 0 1-.303-.298c-.074-.122-.094-.296-.176-.406s-.168-.112-.274-.056c-.058.033-.234.328-.241.328z"/><path d="M100.33 33.62c-.05.043-.103.088-.163.096-.068.01-.134-.03-.194-.071-.125-.086-.242-.185-.352-.296-.041-.042-.084-.088-.135-.108-.071-.028-.149-.004-.221.022-.359.128-.718.297-1.093.3-.038 0-.079-.001-.115.016-.063.029-.101.108-.112.189-.031.244.156.443.322.589l.337.295c.365.32.741.647 1.18.782.531.164 1.09.027 1.627-.109.176-.045.353-.091.523-.166.261-.117.498-.305.768-.391.154-.049.314-.063.47-.109.042-.012.09-.033.104-.083.009-.028.003-.059-.005-.087-.069-.246-.317-.333-.48-.505-.115-.121-.195-.293-.333-.373-.119-.069-.258-.053-.39-.036l-.495.064c-.147.019-.297.038-.44-.007-.104-.033-.433-.272-.252-.41-.173-.039-.421.281-.551.395zm16.133-.198c.049-.006.101-.008.142-.041.054-.044.071-.136.055-.212a.43.43 0 0 0-.109-.194c-.265-.292-.707-.321-.997-.064-.245.216-.598.107-.85-.096-.096-.077-.188-.168-.297-.213-.141-.059-.295-.034-.442-.007-.417.078-.842.183-1.195.458-.091.07-.185.178-.167.306.017.114.121.18.216.195.381.06.711-.406 1.094-.368.092.009.191.058.225.161.017.052.014.109.016.165.005.252.102.509.281.641s.438.108.573-.084c.067-.096.105-.229.198-.288.052-.033.113-.035.172-.037.176-.006.382.04.529-.05.191-.118.333-.246.556-.272zm3.35-1.819c-.198.113-.417.164-.624.25a2.33 2.33 0 0 0-.773.525c-.12.121-.239.286-.218.472.026.239.255.351.448.417l.345.118c.069.023.146.055.176.133.048.122-.05.257-.046.391.006.169.167.265.308.278.162.015.328-.034.466-.138.148-.11.261-.279.417-.373a.52.52 0 0 1 .463-.04c-.002-.228-.078-.455-.209-.621-.048-.061-.105-.118-.124-.199-.015-.06-.008-.128-.033-.182a.23.23 0 0 0-.066-.076c-.165-.135-.374-.191-.571-.153-.068.013-.172 0-.162-.082.003-.025.018-.043.032-.061.142-.174.331-.291.532-.329.146-.027.314-.025.41-.157.147-.2.019-.663-.222-.673-.115-.005-.164.12-.232.21-.091.122-.193.219-.317.29zm1.66.783c-.164.159-.175.459-.305.657-.027.042-.061.08-.079.129a.32.32 0 0 0-.013.147c.02.172.144.317.288.339.088.013.177-.016.265-.033.145-.027.293-.021.439-.031s.296-.041.42-.134a.52.52 0 0 0 .207-.436c-.01-.141-.083-.262-.164-.365-.048-.061-.1-.12-.163-.155a.61.61 0 0 0-.154-.053c-.256-.061-.493-.305-.741-.065z"/><path d="M122.983 32.152c-.017.008-.035.017-.044.036s-.007.041-.004.061l.046.388a.34.34 0 0 0 .024.107c.021.043.056.069.091.094l.216.158c.044.032.09.065.142.069s.095-.021.14-.041a1.24 1.24 0 0 1 .631-.106c.037.004.078.008.108-.018.02-.018.032-.046.04-.074a.9.9 0 0 0-.317-.971c-.051-.034-.105-.061-.147-.109a.39.39 0 0 1-.064-.127c-.143.052-.287.205-.423.292a3.76 3.76 0 0 1-.439.241zm-4.935 14.704c-.195-.045-.435-.153-.439-.39-.001-.043.005-.093-.018-.126-.016-.022-.043-.029-.066-.035-.226-.052-.464-.046-.677-.153s-.396-.379-.329-.644c.078-.307.418-.39.571-.653.131-.226.106-.556.266-.753.1-.123.248-.164.388-.198s.288-.07.392-.187.136-.344.026-.452c-.081-.079-.218-.082-.259-.198-.051-.147.106-.264.226-.333.328-.189.578-.559.665-.982-.182-.014-.198-.368-.054-.501s.345-.116.527-.124a1.66 1.66 0 0 0 .77-.235c.239-.142.446-.336.66-.52l.778-.601c.245-.169.524-.33.8-.257s.504.377.79.375c.135-.002.262-.074.379-.151.391-.26.738-.607 1.141-.836a2.24 2.24 0 0 1 1.501-.267c.21.037.447.14.51.383a.57.57 0 0 1-.21.56c-.154.12-.341.157-.521.195a13.57 13.57 0 0 0-4.044 1.561c-.404.234-.801.491-1.164.806-.613.532-1.124 1.223-1.55 1.974-.1.176-.198.363-.225.574-.022.166.003.335.027.5.053.356.115.735.327.992.174.211.866.657.273.879-.41.155-1.053-.106-1.461-.202zm2.517.749a.75.75 0 0 0 .173.222 4.04 4.04 0 0 0 .357.313.58.58 0 0 0 .135.084.3.3 0 0 0 .332-.09c.022-.026.042-.055.049-.091s.001-.067-.007-.099a.67.67 0 0 0-.236-.377c-.125-.095-.263-.079-.367-.203-.096-.113-.155-.256-.313-.184-.145.067-.194.266-.123.424zm-4.816 1.57c.072-.055.153-.129.148-.231-.002-.051-.025-.096-.05-.138a1.91 1.91 0 0 0-.367-.461c-.112-.104-.257-.193-.391-.14-.185.074-.242.37-.411.486-.043.03-.095.048-.127.094-.042.058-.04.148-.01.217s.081.119.133.162a1.42 1.42 0 0 0 .23.154c.045.024.095.046.124.093.125.198.071.259.285.095l.436-.333z"/><path d="M83.251 64.278c-.112.052-.238.039-.353.081s-.223.186-.177.318c.044.125.185.142.274.225.153.142.114.444-.008.623s-.301.289-.44.45c-.052.06-.1.136-.102.223s.04.159.08.227c.13.219.277.435.472.568s.452.166.641.02c.252-.195.367-.675.666-.672.087.001.173.047.258.028.12-.027.196-.182.201-.328s-.045-.287-.094-.422l-.215-.59c-.019-.051-.038-.107-.027-.16s.055-.1.094-.137c.28-.256.637-.399.365-.797-.13-.191-.38-.551-.585-.624-.6-.216-.631.77-1.049.966zm1.315-2.767a6.2 6.2 0 0 1 .841 1.359.74.74 0 0 1 .079.261c.014.285-.255.608-.084.805.134.154.358-.014.539.039.09.026.16.106.228.183.146.169.306.384.264.622-.031.175-.163.296-.293.386s-.272.169-.357.318-.072.393.065.465c-.191.091-.388.221-.473.445s.006.552.21.583c.146.023.275-.106.416-.159s.35.052.308.221c-.023.089-.102.132-.174.169-.207.106-.407.234-.596.383-.146.115-.304.316-.228.506.059.147.231.177.358.116s.221-.186.327-.288c.553-.529 1.343-.42 2.044-.313.183.027.37.053.55.005s.354-.184.418-.392a.71.71 0 0 0-.224-.713c.017-.245.362-.157.512-.326.13-.147.04-.428-.114-.538s-.343-.112-.516-.164c-.363-.109-.668-.462-.773-.893-.041-.168-.054-.347-.118-.505s-.174-.282-.282-.402l-.845-.945c-.057-.064-.12-.146-.105-.238.01-.06.052-.106.093-.143.173-.154.387-.244.531-.437s.168-.554-.025-.668a.41.41 0 0 0-.178-.044l-.686-.065c-.103-.01-.212-.022-.296-.094s-.128-.228-.062-.325c.11-.16.361.003.487-.14s-.023-.397-.186-.464c-.28-.116-.617.01-.792.296-.097.158-.179.441-.353.497-.266.088-.345-.262-.54-.374-.206-.118-.33-.045-.327.281.001.283.205.5.358.688zm109.349-9.018c-.872.357-1.663.989-2.275 1.818a.13.13 0 0 1-.176.032c-.557-.353-.83-1.151-1.241-1.745-.435-.633-1.397-.97-1.719-.246-.091.208-.101.456-.191.665-.204.476-.712.569-1.174.57-.084 0-.148.078-.128.16.16.672.476 1.289.903 1.763.072.08.024.207-.082.218a4.64 4.64 0 0 0-1.983.688c-.857.534-1.58 1.342-2.441 1.864-.842.509-1.929.694-2.685.035a.13.13 0 0 0-.129-.027c-1.382.49-2.059 2.331-2.724 3.88-.681 1.582-1.532 3.056-2.526 4.375-.075.097-.23.047-.234-.076-.042-1.553-.864-3.225-.118-4.47.411-.688 1.176-.951 1.627-1.603.382-.551.505-1.335.961-1.798.464-.473 1.137-.473 1.705-.74s1.054-1.159.637-1.691c-.303-.384-.843-.251-1.226.01-.503.339-.928.843-1.217 1.443-.166.349-.484.796-.748.548-.14-.129-.14-.378-.217-.569-.266-.653-1.132-.232-1.445.391s-.54 1.455-1.129 1.62c-.317.089-.642-.058-.951-.181-2.761-1.096-5.926-.274-8.256 1.815-.505.452-1.007 1.023-1.105 1.772s.442 1.623 1.055 1.449c.27-.076.496-.331.774-.351.503-.037.797.676.86 1.276.128 1.196-.09 2.339-.503 3.421-.588 1.548-1.578 2.974-2.527 4.264-.179.243-.367.494-.619.604-.496.22-1.069-.164-1.571.041-.746.309-.819 1.648-1.507 2.108-.152.101-.333.159-.442.318-.324.469.241 1.047.731 1.26a.13.13 0 0 1 .075.08c.204.642.235 1.399-.064 1.981-.307.602-1.03.906-1.519.515-.438-.348-.442-1.258-.037-1.588.07-.058.066-.166-.011-.214a2.2 2.2 0 0 0-.936-.329.13.13 0 0 1-.099-.195 2.38 2.38 0 0 1 .45-.569c.056-.051.054-.141-.002-.192-.46-.43-1.164-.431-1.645-.041-.091.074-.225-.009-.207-.126l.109-.702c.012-.078-.047-.149-.125-.152-.855-.039-1.701.722-1.884 1.728 0 .573.671.728 1.133.581.399-.124.873-.311 1.213-.096.079.05.079.169-.001.22-.806.519-1.672 1.392-1.373 2.393.149.497.552.81.818 1.229.509.801.447 2.047-.137 2.768-.55.682-.716 1.634-1.208 2.374-.259.389-.617.668-.985.896-.552.341-1.14.586-1.714.871a14.4 14.4 0 0 0-2.12 1.301c-.203.148-.421.311-.66.296-.155-.008-.301-.094-.455-.121-.199-.037-.382.026-.537.156-.357.29-.569.918-.499 1.463.104.783.562 1.416.927 2.077s.65 1.508.375 2.227c-.11.281-.295.51-.476.733l-1.449 1.778c-.067.083-.198.052-.227-.051-.195-.691-.723-1.241-1.327-1.353-.253-.047-.563-.059-.685-.328-.07-.15-.051-.333-.068-.503a1.03 1.03 0 0 0-.419-.735c-.073-.05-.174-.017-.199.069-.124.423-.42.755-.638 1.127-.243.417-.376 1.044-.07 1.395.175.199.438.243.632.413.342.304.383.92.693 1.27.212.241.524.323.743.555.632.678.148 2.146.665 2.873.061.086-.001.204-.107.206-.398.005-.79-.371-1.027-.79-.743-1.309-.816-3.257-1.971-4.026-.195-.129-.446-.279-.438-.548.004-.107.052-.204.093-.298.517-1.166.18-2.59-.168-3.843-.101-.368-.357-.824-.649-.658-.239.136-.353.647-.596.526-.093-.045-.133-.169-.166-.281-.214-.777-.351-1.64-.843-2.209-.249-.292-.596-.52-.679-.927-.054-.255.012-.543-.086-.779-.176-.426-.693-.356-1.069-.208l-1.081.466c-.986.466-1.978 1.06-2.634 2.061-.374.571-.65 1.283-1.182 1.63-.253.166-.556.243-.757.491-.563.7.177 1.843.069 2.809-.071.629-.494 1.102-.893 1.519-.093.096-.197.201-.32.195-.106-.004-.195-.089-.274-.173-.861-.906-1.418-2.217-1.524-3.585-.02-.271-.027-.555-.137-.793-.183-.395-.591-.548-.855-.869-.7-.851-.132-2.356-.473-3.457-.033-.107-.175-.131-.235-.037-.279.438-.66.839-1.073.668-.212-.086-.362-.309-.494-.526a12.03 12.03 0 0 1-1.191-2.686c-.017-.058-.073-.099-.134-.093-.908.086-1.87.697-2.771.597-.698-.077-1.36-.598-2.047-.522-.064.007-.122-.038-.135-.101-.069-.309-.276-.575-.534-.667-.126-.044-.291-.091-.379-.189-.046-.053-.124-.057-.181-.013-.141.11-.353.113-.519.033-.227-.108-.408-.325-.624-.459-.626-.391-1.582-.173-1.893-.933-.087-.211-.096-.456-.164-.676s-.24-.433-.434-.391c-.317.07-.282.627-.164.986l.336 1.032c.142.44.401.96.761.982.067.004.116.067.113.136-.016.406.22.81.537.968.358.178.781.084 1.11-.162.346-.263.712-.707 1.092-.52.199.099.312.344.444.546.252.389.621.663 1.024.764.247.061.565.119.62.415.025.126-.015.257-.058.376-.255.698-.679 1.305-1.21 1.726-.243.195-.511.353-.713.606-.153.192-.261.428-.396.641-.451.714-1.163 1.101-1.844 1.463l-2.925 1.548c-.357.187-.61.345-.988.459s-.829-.012-1.038-.407c-.118-.22-.146-.487-.192-.742-.153-.85-.527-1.615-.895-2.363l-.907-1.843c-.397-.806-.81-1.632-1.425-2.209-.116-.109-.241-.211-.318-.363-.124-.245-.093-.557-.114-.845-.083-1.087-1.125-1.905-1.987-1.557-.066-.171-.161.008-.201.039.28 1.301.924 1.84 1.667 2.877.413.576.916 1.171.924 1.932.004.363-.108.758.04 1.077.229.489.88.415 1.179.843.221.312.177.777.279 1.168.084.319.267.586.447.845l2.231 3.114c.127.171.264.349.449.403.137.041.28.004.419-.033.936-.249 1.859-.563 2.764-.941.11-.045.218.066.169.175l-1.289 2.868c-.411.915-.829 1.844-1.435 2.585-.865 1.065-2.068 1.698-2.832 2.867-.288.44-.502.939-.71 1.438-.419 1.005-.832 2.137-.569 3.217.242.98.999 1.684 1.23 2.669.245 1.05-.183 2.188-.826 2.958s-1.474 1.26-2.267 1.795c-.37.248-.747.523-.968.955s-.234 1.062.086 1.393c.176.185.421.248.61.417.398.353.435 1.085.226 1.625s-.596.941-.957 1.348c-1.192 1.354-2.176 2.976-2.884 4.753-.407 1.021-1.577 1.518-2.477 1.181-.262-.096-.505-.296-.779-.296-.679-.002-1.137 1.185-1.796.981-.185-.058-.334-.224-.447-.409a2.13 2.13 0 0 1-.264-1.352c.036-.257.118-.514.085-.772-.043-.343-.272-.6-.471-.85-1.634-2.051-1.88-5.142-2.915-7.694-.418-1.028-.972-2.254-.463-3.22.341-.646 1.073-.929 1.308-1.637.178-.543.005-1.151-.18-1.692-.502-1.473-1.082-2.908-1.738-4.29-.308-.648-.644-1.379-.48-2.098.108-.477.432-.927.322-1.404-.054-.232-.204-.41-.346-.579l-1.781-2.09c-.419-.493-.858-1-1.409-1.241-1.007-.442-2.125.109-3.022.814-.281.221-.581.468-.918.456-.301-.015-.569-.239-.863-.323-.827-.243-1.656.625-2.491.438-1.166-.262-1.397-2.201-2.331-3.083-.328-.309-.743-.481-1.032-.845-.971-1.218-1.334-3.321-.091-5.203.259-.391-1.567-2.073.652-6.171.293-.538.904-.676 1.366-1 .892-.625 1.592-1.64 1.939-2.81.299-1.013 1.206-1.477 1.809-2.269.052-.07.157-.063.207.007.409.574 1.198.64 1.8.348.652-.316 1.165-.937 1.728-1.445s1.272-.918 1.957-.712c.219.066.425.195.649.244.923.207 1.81-.943 2.708-.732.065.015.109.075.102.142a25.77 25.77 0 0 0-.145 2.794c0 .259.025.563.212.693.133.091.298.056.452.041.627-.051 1.217.335 1.746.742s1.07.859 1.694.955 1.356-.309 1.469-1.05c.027-.185.025-.401.145-.52.109-.113.274-.089.415-.051 1.223.319 2.382 1.112 3.634 1.044.693-.037 1.436-.331 2.051.056.156.096.308.241.483.224.135-.012.25-.115.353-.222.757-.78 1.291-1.868 1.497-3.039.034-.197.058-.407.001-.598-.149-.501-.743-.546-1.152-.341s-.787.567-1.231.576c-.529.008-.997-.495-1.526-.471-.247.012-.49.142-.733.089-.436-.099-.635-.721-.647-1.253s.073-1.096-.116-1.576c-.296-.748-1.285-.863-1.721-.247a.13.13 0 0 1-.179.03l-.295-.21a6.97 6.97 0 0 0 .889 1.421c.052.064.036.159-.036.197-.475.255-.964.594-1.112 1.169-.013.05-.051.09-.102.099-.41.079-.724-.581-.737-1.117-.014-.576.075-1.246-.272-1.64-.195-.222-.51-.321-.604-.625-.053-.177-.014-.376-.041-.561-.069-.442-.471-.658-.808-.853-.646-.374-1.219-.923-1.669-1.595-.259-.384-.592-.866-.988-.728-.486.166-.436 1.033-.175 1.553.665 1.326 1.912 2.029 3.106 2.636.08.041.096.146.034.211-.16.166-.397.227-.6.151a.13.13 0 0 0-.173.11 1.18 1.18 0 0 0 .069.495c.024.065-.006.14-.069.167-.234.099-.453.245-.648.429-.086.081-.228.012-.219-.107a1.82 1.82 0 0 1 .243-.787c.037-.06.012-.139-.048-.175-1.07-.644-2.008-1.599-2.708-2.761-.116-.192-.231-.396-.403-.518-.374-.269-.859-.045-1.219.253s-.704.68-1.137.742c-.397.056-.856-.154-1.168.148-.151.146-.221.38-.332.571-.274.464-.77.635-1.206.861s-.891.648-.875 1.217c.007.259.114.508.104.768-.024.576-.572.873-1.032 1.04l-1.567.574c-.176.066-.367.129-.541.056-.13-.054-.232-.224-.226-.377.003-.077-.051-.143-.128-.143l-.889.005c-.071 0-.129-.057-.131-.128l-.101-4.273c-.005-.173-.007-.356.063-.506.149-.325.526-.335.834-.304l2.226.228c.231.023.471.045.69-.045.378-.159.621-.648.61-1.126a1.67 1.67 0 0 0-.571-1.204c-.478-.409-1.219-.637-1.26-1.337-.027-.461.32-.853.695-.958.318-.09.647-.024.969.065a.13.13 0 0 0 .164-.128l-.003-.205c-.001-.07.053-.13.122-.132.486-.015.946-.325 1.318-.712.538-.559.942-1.283 1.459-1.87.799-.907 1.867-1.466 2.965-1.552.09-.008.147-.098.113-.182l-.47-1.03c-.154-.415-.214-.929-.005-1.307.191-.343.663-.439.886-.159.041.051.033.127-.013.173-.338.346-.674.832-.502 1.307.145.401.565.511.924.573.922.154 1.858.309 2.78.15.328-.056.65-.15.972-.244.339-.099.683-.201.978-.423.496-.374.789-1.044.941-1.724.062-.288.131-.625.357-.75.366-.204.91.284 1.167-.047a.13.13 0 0 0 .024-.092 2.51 2.51 0 0 0-.441-1.171c-.044-.06-.032-.145.028-.189.74-.532 1.75-.072 2.624-.267.229-.051.464-.162.599-.391s.118-.598-.082-.742c-.133-.096-.298-.074-.451-.049l-2.965.495c-.025.004-.052.002-.074-.008-.307-.135-.514-.421-.716-.737-.18-.281-.239-.697-.104-1.002.027-.06.012-.131-.043-.167a.58.58 0 0 1-.184-.213c-.291-.115-.173-.678.087-.869s.604-.232.806-.51c.123-.171.171-.407.289-.586.349-.541 1.233-.497 1.324-1.173.069-.52-.449-.861-.882-.948-.372-.074-.768-.082-1.111.101a1.19 1.19 0 0 0-.623 1.04c.002.244.081.515-.031.721-.065.119-.178.183-.286.236-.552.283-1.146.51-1.586.999s-.671 1.353-.324 1.938c.279.471.893.777.81 1.346-.096.656-1.059.723-1.109 1.389-.015.206.072.401.103.604.122.789-.558 1.386-1.146 1.765-.334.216-.847.368-1.005-.045-.075-.197-.015-.431-.058-.644-.075-.356-.411-.524-.602-.812s-.224-.674-.305-1.028-.26-.731-.562-.793c-.503-.107-.83.711-1.335.803-.541.101-.904-.629-1.106-1.241-.152-.464-.308-.953-.25-1.447.13-1.085 1.152-1.588 1.959-2.102.767-.487 1.454-1.151 2.012-1.946.175-.248.339-.515.428-.824.093-.325.098-.679.187-1.005.125-.462.428-.853.805-1.038.228-.113.55-.328.423-.583-.112-.22-.425-.086-.586-.255-.17-.178-.014-.548.207-.614s.444.054.658.14.476.131.646-.047c.127-.134.161-.349.243-.526.365-.785 1.404-.503 2.014-1.028.362-.309.646-.931 1.082-.82.123.031.235.124.362.131.28.022.575-.36.802-.292.065.02.098.093.081.158l-.033.126c-.032.119.1.209.202.141a3.7 3.7 0 0 1 1.077-.513c.094-.027.184.051.168.147-.018.105.081.189.174.148a1.39 1.39 0 0 1 .845-.087c.053.011.095.059.101.114.043.456-.928.644-.902 1.092.004.063.061.111.124.114 1.637.073 3.364.247 4.681 1.405.199.177.39.374.618.485.449.216 1.043.105 1.334.567.266.419.052 1.079-.332 1.332s-.859.197-1.281.054-.826-.368-1.262-.433c-.234-.037-.491-.016-.679.152-.243.22-.312.637-.243.99s.247.663.419.962c.168.286.362.596.646.668.227.057.491-.155.523-.4a.13.13 0 0 1 .177-.108c.575.225 1.243.352 1.636-.163.323-.426.38-1.204.847-1.33.253-.066.5.113.751.195s.602-.014.625-.323c.009-.111-.029-.218-.06-.323-.25-.878.12-1.937.795-2.371.082-.053.192.003.2.099.046.529-.449 1.179-.12 1.56.183.213.484.127.724.016a8.99 8.99 0 0 0 1.774-1.096c.288-.226.606-.175.897-.395.202-.152.39-.339.621-.409s.519.028.598.298c.025.092.029.201.087.267.043.045.103.058.16.064.589.082 1.2-.091 1.7-.477.156-.121.303-.263.474-.347s.384-.096.534.033c.217.187.278.633.546.674.217.035.375-.246.435-.499s.074-.559-.075-.756c-.174-.232-.474-.208-.731-.253s-.554-.304-.461-.596c.09-.269.426-.251.623-.082s.337.429.559.544c.161.082.34.078.515.082 1.046.025 2.086.452 2.925 1.204.231.208.462.448.748.51s.635-.15.641-.499c.004-.274-.194-.481-.364-.663a5.51 5.51 0 0 1-.844-1.198c-.063-.124-.125-.255-.139-.398-.015-.173.041-.346.102-.503.28-.736.66-1.416 1.122-2.006.078-.099.161-.199.209-.323.065-.164.068-.358.149-.51.161-.306.621-.241.719.101.021.074.025.154.052.226.157.424.784.158 1.033.5.013.019.022.041.024.064.015.17-.088.331-.205.433-.127.108-.278.177-.389.306-.214.244-.239.635-.251.986l-.028.75c-.017.468-.033.946.057 1.402s.301.9.641 1.133c.165.113.377.166.542.051.231-.162.241-.559.189-.876s-.141-.663-.011-.946c.084-.185.252-.316.285-.522a.74.74 0 0 0-.019-.269 2.01 2.01 0 0 0-.432-.878c-.103-.117-.226-.232-.255-.401-.038-.216.099-.419.255-.536s.336-.178.48-.316a.86.86 0 0 0 .215-.364c.04-.13.225-.121.253.012.017.08.023.168.021.248-.006.22-.02.479.123.614.199.187.478-.039.654-.255l.179-.216c.253-.306.805-.325 1.142-.171.154.07.296.178.455.23s.351.033.457-.119c.18-.257-.007-.644-.21-.876-.035-.043-.075-.086-.091-.146-.027-.099.019-.203.073-.286.385-.596 1.089-.695 1.715-.746l1.198-.096c.156-.012.326-.033.442-.16.055-.059.091-.142.131-.218.386-.766 1.019-1.302 1.646-1.792.325-.255.657-.503 1.021-.663.437-.194.906-.251 1.369-.306.312-.04.629-.077.939-.029.07.011.123.078.109.149-.018.093.018.214.092.265.112.078.253.045.38.008l.832-.267c.799-.278 1.663-.561 2.323-1.173.318-.294.607-.644.968-.848s.835-.232 1.129.096.347.929.71 1.135c.205.117.447.061.673.025a3.58 3.58 0 0 1 2.341.452c.332.192.688.592.548 1-.064.185-.216.302-.358.405a26.84 26.84 0 0 1-2.833 1.794c-.283.156-.621.429-.542.789.055.248.307.374.519.331s.392-.201.563-.358l1.188-1.089c.168-.152.363-.314.571-.265.145.037.257.173.375.281.6.564 1.437.52 2.18.721.57.154 1.104.464 1.667.649s1.198.236 1.709-.107c.274-.185.503-.477.806-.569.226-.07.464-.021.692.029l2.178.471c.082.018.126.108.091.184-.209.453-.408.92-.472 1.429-.068.567.067 1.206.456 1.538s1.037.193 1.205-.344c.084-.269.06-.623.26-.78.279-.22.594.178.872.398.392.312.903.274 1.372.222l1.647-.183c.128-.012.261-.031.365-.121.091-.08.143-.206.201-.319.379-.735 1.142-1.152 1.853-1.013 1.715.341 3.726.031 5.134 1.255.202.176.397.379.636.473.19.074.394.074.594.074.834.004 1.731.049 2.392.66.306.286.541.676.869.923 1.323.984 3.405-.793 4.478.557.135.171.243.384.418.495.332.208.76-.078.924-.483.144-.352.142-.759.12-1.154-.005-.086.074-.154.158-.136 3.684.784 7.222 2.536 10.297 5.095.082.065.06.188-.033.227zM92.717 74.623c-.024.258.074.507.171.74l.236.573c.027.065.055.132.061.205.017.199-.122.36-.224.517s-.165.416-.03.534c.118.104.291-.004.373-.149.253-.454-.002-1.11.207-1.594.217-.505-.688-1.957-.794-.826z"/><path d="M132.437 100.656c.011.199.089.405.236.495.159.097.361.033.496-.109s.212-.343.268-.547c.067-.246.111-.511.072-.766-.051-.344-.352-1.099-.692-.931-.281.139-.395 1.567-.38 1.858zm-14.826-4.48l.365.823c.053.118.116.246.223.28.178.058.332-.216.284-.43s-.217-.354-.381-.455c-.198-.122-.446-.212-.634-.069l.143-.149zm-3.803 19.144c-.486.159-1.119.21-1.287.78-.165.558.294 1.14.225 1.726-.073.612-.681.959-.795 1.562-.08.423.105.846.284 1.223.174.369.354.747.628 1.015s.666.406.987.233c.214-.115.367-.349.491-.587.659-1.271.703-2.853 1.102-4.272l.364-1.329c.143-.812.08-1.87-.187-2.635-.317.262-.394.906-.629 1.293-.29.472-.709.836-1.183.991zm27.644-12.88c.206.296.495.487.778.667s.575.364.79.65c.28.373.397.876.59 1.32.206.474.499.884.788 1.29l.689.966c.235.328.479.666.8.862s.744.22 1.02-.059c.304-.309.328-.879.186-1.325s-.414-.811-.643-1.203c-.348-.594-.628-1.294-1.151-1.66-.375-.262-.828-.316-1.215-.553-.788-.482-1.05-1.561-1.721-2.179-.749-.688-1.525.338-.911 1.224zm5.567 6.605c-.017.293.243.493.478.574.967.335 2.058-.168 2.99.29.319.157.598.417.924.55.765.312 1.611-.137 2.407.03.481.101.925.435 1.209.912.186-.058.08-.413.169-.617.092-.212.345-.18.543-.155s.469-.073.446-.31c-.37-.25-.826-.181-1.249-.14-2.001.193-4.052-.416-5.745-1.711-.554-.423-.669-.321-1.201-.089-.26.112-.943.21-.971.666zm4.322-7.246l.346.088c-.303.645-.698 1.366-1.313 1.438-.259.03-.525-.064-.778.004s-.483.43-.33.682c-.265-.108-.571-.062-.804.122.48.468.813 1.15.918 1.882.025.169.043.354.142.477.31.379.939-.262 1.26.104.073.084.11.205.182.29.254.299.665-.037.899-.358.099.213.201.433.365.576s.407.188.565.037c.226-.216.112-.536.162-.818.079-.438.202-.466.365-.813.144-.309.108-.678.265-.973.163-.309.516-.31.683-.604.251-.443.018-.913-.07-1.374-.154-.803.064-1.143.228-1.878-.422-.081-.884-.216-.991-.787-.73.559-1.406 1.272-2.094 1.905zm3.858 2.461c-.09.093-.144.225-.197.354-.22.536-.44 1.077-.555 1.66s-.112 1.214.102 1.753c.059.15.14.298.265.37s.3.039.365-.107l-.062-.875c-.017-.255.013-.594.221-.646s.349.245.398.492.116.552.323.604c.154.038.309-.109.36-.287s.021-.376-.028-.556a2.36 2.36 0 0 0-.457-.885c.277-.126.506-.395.616-.724a1 1 0 0 0-.956.003c-.128.069-.246.167-.383.2s-.305-.023-.355-.178c.214-.164.168-.595.371-.778.104-.094.245-.094.375-.088.746.034 1.394.006 1.892-.75-.233.146-.513.391-.786.415-.484.044-1.047-.461-1.509.023zm3.977-.952c-.133.029-.218.198-.225.36s.045.317.097.466l.152.439c.015.042.032.089.067.11.048.03.106-.002.152-.036.148-.112.276-.262.37-.439.028-.05.053-.109.037-.166s-.067-.086-.112-.115c-.19-.122-.338-.337-.402-.584l-.136-.035zm-.748 7.08c-.464-.126-.904.27-1.265.641-.099.102-.203.213-.237.364s.041.346.171.352c.054.003.105-.027.152-.057.515-.32.994-.791 1.571-.852.049-.006.107-.013.132-.064s-.001-.124-.03-.178c-.072-.132-.157-.259-.275-.332s-.27-.077-.371.024l.152.102zm-3.183-22.555a1.76 1.76 0 0 0 .07-.528c-.267.639-.405 1.356-.397 2.072.368-.066.629-.466.803-.862.085-.194.16-.401.169-.621s-.064-.454-.219-.571-.394-.068-.475.128l.049.381zm-5.357 3.29c-.42-.021-.81.244-1.172.5-.175.125-.378.334-.305.563.056.176.246.225.402.205.521-.067.948-.681.912-1.308l.163.041zm13.648 15.65c-.233-.345-.331-.792-.501-1.187s-.468-.775-.839-.767c-.457.011-.768.652-.686 1.192s.439.961.823 1.261c.535.418 1.157.674 1.795.737.27.027.554.023.794.176.288.184.462.597.414.983s-.313.722-.633.798c.025.312.411.34.642.193s.473-.384.72-.286c.152.061.25.231.36.37.276.353.701.554 1.094.444s.716-.565.687-1.048c.817.03 1.46.798 2.099 1.41s1.551 1.112 2.241.584l-1.922-1.134c-.255-.15-.536-.336-.613-.664s.251-.735.473-.524c.041-.261-.126-.512-.32-.639s-.419-.168-.627-.264c-.56-.261-.94-.894-1.465-1.246-.502-.338-1.096-.395-1.657-.549-.275-.077-.559-.182-.801-.361-.207-.154-.446-.656-.647-.726-.528-.185-1.224.765-1.431 1.247zm-5.072.057c-.046-.097-.181-.054-.229.041-.089.169.019.43.185.447s.308-.22.242-.403-.313-.215-.409-.053l.211-.032zm1.791-.003c.033-.031.009-.101-.03-.117s-.083.002-.121.021l-.364.179c-.106.052-.226.123-.249.258-.035.206.177.336.348.377a3.09 3.09 0 0 0 1.237.04c.021-.223-.108-.435-.27-.547s-.353-.143-.538-.173l-.013-.038zm2.472 1.89c-.148.172-.306.365-.328.612s.184.522.373.421c.074-.04.123-.123.167-.204.077-.144.148-.301.149-.472s-.09-.353-.231-.378l-.13.021zm-8.008-14.237c.112.279.406.44.446.746.022.16-.024.36.082.462.052.051.127.057.184.102.097.08.104.245.12.387.041.373.22.721.479.932.036.61.829 1.003.647 1.574-.092.29-.406.41-.498.7-.073.228.016.48.104.7.244-.046.468-.224.598-.475.184.382.393.791.734.954s.832-.106.804-.546c.09.193.362.146.455-.045s.048-.438-.044-.63c-.275-.578-.93-.886-1.007-1.546-.016-.136-.004-.276-.033-.409-.034-.154-.118-.284-.205-.406a6.45 6.45 0 0 0-1.339-1.399c-.231-.176-.478-.341-.642-.605-.258-.417-.044-2.559-.217-2.604-.449-.118-.794 1.791-.668 2.106z"/><path d="M154.587 97.929a3.43 3.43 0 0 0-1.049 1.191c.643-.125 1.216-.678 1.455-1.404-.158-.078-.359-.003-.451.171l.045.042zm10.881 16.931c-.322-.204-.756-.232-1.137-.349s-.758-.42-.645-.742c.078-.22.351-.347.6-.451.182-.327-.328-.651-.767-.654s-.882.148-1.305.056c-.111-.025-.219-.065-.334-.062-.104.003-.202.043-.295.082-.652.27-1.345.572-1.681 1.105-.067.106-.131.23-.268.271-.325.097-.518-.353-.859-.403-.121-.018-.244.019-.355.065-.635.264-1.031.789-1.51 1.222-.97.88-2.316 1.403-3.626 1.905l-2.51.961a12.49 12.49 0 0 0 1.338 3.649c.193.35.406.699.494 1.077s.036.798-.259 1.098c.437.261 1.031.521 1.478.271.254-.141.372-.412.636-.54.669-.321 1.514.521 2.217.252.357-.136.492-.506.813-.695.508-.299 1.27-.048 1.81-.305.268-.127.442-.364.721-.473.328-.129.717-.051 1.068.03.98.228 2.107.593 2.351 1.405.032.107.058.231.17.29.384.202.724-.646 1.109-.444.198.104.095.352-.019.521s-.181.435.036.507c.056.018.117.016.176.019.618.027 1.04.503 1.402.915.454.519 1.158 1.067 1.9.874.47-.122.955-.522 1.359-.291.203.117.316.38.564.369.298-.012.314-.365.457-.579.258-.382.989-.316 1.365-.626.494-.407.077-1.146.411-1.651.196-.297.618-.454.835-.741.133-.177.177-.387.207-.593.227-1.561-.261-3.186-1.35-4.48-.353.158-.798-.03-1.057-.282s-.427-.569-.729-.786c-.184-.132-.41-.221-.591-.356-1.082-.81-.147-2.704-1.938-3.063-.953-.191-.71.474-.757 1.012-.028.32-.117.825-.541.967-.451.151-.665-.155-.984-.357zm-4.879-33.245c.042.224.088.456.207.635s.334.29.507.191c.076-.043.135-.122.186-.202a1.06 1.06 0 0 0 .179-.47c.015-.174-.042-.364-.168-.452-.005-.186.235-.239.356-.122s.165.31.251.465.273.271.392.151c.046-.046.067-.117.088-.184.08-.262.158-.559.06-.812-.032-.081-.081-.175-.042-.25s.138-.066.214-.041c.225.074.473.172.577.422.066.161.072.383.205.466.181.114.365-.149.439-.378s.194-.515.397-.483c.165.026.274.269.44.258.297-.02.245-.734.541-.766.051-.006.103.015.155.018.214.011.354-.25.489-.449s.413-.353.543-.147l.147-1.902c.009-.109.017-.22.054-.321.042-.117.117-.212.177-.317.295-.513.17-1.304-.262-1.652-.254.184-.412.546-.392.902.008.159.05.316.034.475-.025.248-.182.444-.331.619l-1.213 1.433c-.049.058-.098.116-.162.145-.164.074-.363-.069-.518.031-.141.091-.156.326-.246.483-.189.329-.602.233-.933.284-.422.065-1.034.109-1.39.398-.278.222-1.07 1.099-.981 1.57zm2.807-41.325c-.008.123-.011.261.059.351.023.031.054.053.084.076.036.025.072.052.114.054.112.004.063-.611.01-.69-.154-.227-.256.014-.267.21zm-15.867-3.735c-.03.021-.04.066-.048.107-.024.141-.038.297.024.419.071.137.213.189.342.229l.331.105c.016.005.035.009.047-.005s.01-.026.01-.041c.001-.234.042-.542-.148-.695-.102-.081-.461-.188-.558-.12zm-6.227 1.696a.37.37 0 0 0-.095.158c-.05.144-.067.302-.051.456.001.015.003.03.01.043s.025.026.041.034a.56.56 0 0 0 .205.037l.189.001c.04-.001.083-.004.114-.034s.041-.075.051-.118c.045-.181.06-.412-.079-.546-.09-.086-.292-.108-.385-.03zm3.313-3.097l-.908 1.051-.169.218a1.01 1.01 0 0 0-.125.319c-.024.115-.026.231.017.332.065.153.224.221.366.205s.272-.1.397-.184.251-.174.392-.202c.133-.026.268.002.4.03l1.009.219c.179.039.369.077.539-.001.182-.083.313-.295.347-.526s-.026-.473-.14-.663c-.109-.18-.263-.313-.415-.444l-.424-.363c-.175-.149-.415-.357-.637-.378-.258-.024-.475.184-.649.386zm-2.821-2.725c.096.091.197.186.25.318.126.309-.044.67-.033 1.014.001.04.006.081.027.111.025.038.067.051.107.061a9.67 9.67 0 0 0 1.129.229c.075.01.157.026.203.097.061.095.022.231-.019.341l-.172.461c-.04.106-.081.214-.148.298-.159.202-.418.217-.65.213-.432-.008-.862-.041-1.291-.097-.228-.03-.468-.072-.649-.242s-.268-.512-.125-.727c.063-.095.158-.15.25-.201l.256-.143c.047-.027.099-.059.114-.117.027-.104-.075-.189-.163-.215-.162-.049-.331-.04-.497-.049-.39-.021-.777-.142-1.126-.353-.026-.016-.056-.039-.058-.074s.024-.061.046-.081a6.46 6.46 0 0 1 .683-.54c.253-.173.521-.332.71-.598.067-.095.124-.204.211-.274.302-.243.737.374.945.568z"/><path d="M138.644 33.709c-.042.121-.036.261.001.384s.101.232.176.327c.039.049.081.097.132.124.06.031.127.033.193.034a1.08 1.08 0 0 0 .339-.031c.083-.026.168-.08.201-.175.043-.118-.01-.256-.083-.348-.09-.111-.878-.554-.959-.315zm-.322-1.757c-.027.002-.056.005-.08.023-.039.03-.05.092-.054.148-.013.14-.015.28-.008.42.115.086.26.067.394.071a1.13 1.13 0 0 1 .31.053c.021.007.047.013.063-.005.011-.012.014-.032.016-.051l.017-.294c.006-.513-.36-.387-.658-.365zM89.641 76.996a.45.45 0 0 0 .303.217c.009.002.019.003.027-.003s.016-.022.019-.035c.011-.047.014-.097.017-.146.012-.21-.018-.448-.209-.507-.294-.091-.296.247-.157.474zm6.401.926l-.746.02c-.055.002-.115.005-.16.044-.08.072-.066.229 0 .319s.166.128.26.167a4.71 4.71 0 0 1 .609.304c.082.048.164.101.222.184.042.06.072.137.13.175.091.06.212-.008.264-.116s.052-.24.044-.364c-.011-.171-.013-.501-.119-.626-.111-.132-.36-.11-.503-.107zm5.8 2.088c-.093-.004-.194.007-.269.075s-.106.213-.042.296.172.06.265.051c.257-.025.513.096.769.068a.41.41 0 0 0-.125-.369c-.169-.154-.399-.115-.598-.122zm4.661.105c-.077.041-.157.077-.24.081-.046.002-.092-.006-.138.001s-.093.032-.114.082c-.028.068.009.153.062.192s.12.043.183.045l.417.006a.72.72 0 0 0 .211-.025c.107-.034.205-.119.256-.236.066-.148.061-.485-.127-.467-.147.011-.369.246-.51.32zM2.043 61.695a1.18 1.18 0 0 0-.153.168c-.04.054-.077.14-.035.191.018.022.044.027.069.033.128.027.257.056.387.051s.263-.043.366-.137c.084-.076.145-.184.233-.254.137-.109.314-.159.283-.405-.021-.162-.129-.262-.262-.268-.164-.008-.28.128-.4.241-.155.144-.334.239-.489.38zm42.352 24.682c-.03.001-.062.007-.084.032s-.033.075-.037.118l-.01.16c-.001.039-.002.078.008.116s.034.077.056.111c.053.081.109.165.182.219.161.117.308-.246.295-.408-.016-.219-.249-.357-.41-.349zm.08 1.531c-.04.071-.008.169.038.233s.109.115.14.192c.011.028.019.059.027.089.046.159.14.289.232.414.008.012.018.025.03.031.031.018.069-.009.088-.043.031-.054.036-.125.023-.189a.92.92 0 0 0-.062-.181c-.028-.064-.057-.13-.1-.18-.02-.023-.042-.041-.064-.062-.12-.116-.162-.334-.353-.303zm2.809 2.6c-.085.07-.187.13-.289.113-.021-.004-.043-.009-.061.004-.024.018-.024.061-.016.095.027.115.106.21.203.243.024.009.051.012.075.022.055.02.105.062.161.075.079.018.164-.026.206-.108.037-.07.04-.159.026-.24a.53.53 0 0 0-.112-.249c-.078-.091-.122-.015-.194.045zm50.731-29.369c-.028.08-.021.171-.021.258 0 .078-.007.157.005.233s.046.154.105.186c.071.039.161-.002.206-.079a.55.55 0 0 0 .047-.127c.045-.159.233-.625.088-.757-.139-.128-.38.144-.43.286zm2.389-1.232l-.09.22c-.039.083-.089.158-.149.222-.016.017-.032.034-.043.057a.14.14 0 0 0 .046.154c.042.032.096.034.146.03.099-.008.204-.046.261-.143a.52.52 0 0 0 .05-.142c.039-.156.158-.465.062-.616-.115-.181-.233.106-.283.22z"/></g><g clip-path="url(#A)"><path opacity=".23" d="M172.998 29.65c-.049 7.453-11.581 29.372-15.799 37.15l-.163.293-.892 1.635c-.032.054-.07.104-.115.142a.5.5 0 0 1-.136.086c-.234.102-.536.031-.672-.221-2.697-4.969-16.498-30.809-16.443-39.086.061-9.179 7.81-16.594 17.276-16.562a17.56 17.56 0 0 1 5.322.836 19 19 0 0 1 1.01.359c4.707 1.843 8.351 5.66 9.861 10.388.003.012.006.025.011.036a16.07 16.07 0 0 1 .74 4.944z" fill="#606060"/><path d="M171.757 29.175c-.048 7.277-11.422 28.677-15.584 36.27l-.161.287-.881 1.595c-.032.054-.07.102-.113.138s-.085.063-.134.084c-.231.101-.529.031-.664-.216-2.659-4.852-16.274-30.082-16.221-38.165.06-8.959 7.703-16.198 17.041-16.169 1.836.007 3.603.292 5.25.818a19.69 19.69 0 0 1 .996.351c4.643 1.8 8.239 5.526 9.729 10.144.003.012.007.023.012.036.484 1.521.741 3.143.73 4.826z" fill="#05aae1"/><path d="M163.146 31.254c-.028 4.354-3.733 7.89-8.282 7.898-4.555.008-8.229-3.525-8.201-7.893s3.751-7.903 8.306-7.898c4.549.005 8.207 3.539 8.177 7.893z" fill="#fff"/></g><defs><clipPath id="A"><path fill="#fff" transform="translate(138 13)" d="M0 0h35v56H0z"/></clipPath></defs></svg>