<svg xmlns="http://www.w3.org/2000/svg" width="152" height="152" fill="none" xmlns:v="https://vecta.io/nano"><style><![CDATA[.B{fill:#0f1341}.C{fill:#f69886}.D{fill:#fba823}.E{fill:#0b8e6d}.F{fill:#05a9e1}.G{fill:#02b581}]]></style><path opacity=".1" d="M76 152c41.974 0 76-34.026 76-76S117.974 0 76 0 0 34.026 0 76s34.026 76 76 76z" class="F"/><path d="M80.88 47.75l.52 2.69c1.57 7.58-2.26 6.49-2.9 3.16l-.93-5a5.47 5.47 0 0 0 .68.47 2.21 2.21 0 0 0 2.63-1.32zm-13.13-.16l.73 2.67c2.18 7.55-1.73 6.77-2.63 3.45l-1.34-5c.231.155.471.296.72.42a2.22 2.22 0 0 0 2.52-1.54z" class="C"/><path d="M65.57 53.15l-3.82 1.3c-.93.32-1.11 1-.74 1.45l8.86-.2-.76-2.55h-3.54z" fill="#cf574a"/><path d="M69.88 55.7l.09.33c.06.2-.18.4-.51.4l-6.88.07a1.89 1.89 0 0 1-1.56-.6l8.86-.2zm-4.55-1.52l.26-.08c.012-.003.024-.009.034-.017a.09.09 0 0 0 .023-.029c.006-.011.009-.024.009-.036a.09.09 0 0 0-.006-.037l-.34-1.13a.09.09 0 0 0-.052-.057c-.012-.005-.025-.009-.038-.009s-.027.002-.039.007l-.25.08a.1.1 0 0 0-.07.12l.35 1.13a.09.09 0 0 0 .017.033c.008.01.018.018.029.024s.024.009.036.009.025-.002.037-.006zm-1.01.28l.26-.07a.11.11 0 0 0 .07-.13l-.35-1.12a.11.11 0 0 0-.12-.07l-.26.08a.11.11 0 0 0-.07.12l.35 1.13a.09.09 0 0 0 .017.033.08.08 0 0 0 .029.023c.011.005.024.009.036.009a.09.09 0 0 0 .037-.006zm-.95.33l.25-.08c.026-.009.047-.027.06-.051s.017-.052.01-.078l-.35-1.12a.1.1 0 0 0-.12-.07l-.26.08a.09.09 0 0 0-.033.017.08.08 0 0 0-.023.029c-.005.011-.009.024-.009.036s.002.025.006.037l.34 1.13c.009.026.027.047.051.06a.11.11 0 0 0 .078.01z" class="B"/><path d="M78.2 53.07l-3.83 1.29c-.93.32-1.11 1-.74 1.46l8.86-.21-.76-2.54H78.2z" fill="#cf574a"/><path d="M82.49 55.61l.1.33c.06.21-.19.4-.52.4l-6.88.08a1.92 1.92 0 0 1-1.56-.6l8.86-.21zm-4.54-1.51l.26-.08a.11.11 0 0 0 .07-.13l-.35-1.12a.11.11 0 0 0-.12-.07l-.26.08a.11.11 0 0 0-.07.12l.35 1.13c.009.024.026.044.048.056a.11.11 0 0 0 .072.014zm-1 .28l.25-.08a.1.1 0 0 0 .07-.12l-.35-1.13a.09.09 0 0 0-.017-.033.08.08 0 0 0-.029-.023c-.011-.005-.024-.009-.036-.009a.09.09 0 0 0-.037.006l-.26.08a.08.08 0 0 0-.033.017.09.09 0 0 0-.024.029c-.006.011-.009.024-.009.036s.002.025.006.037l.34 1.12c.003.013.01.026.018.037a.1.1 0 0 0 .071.038c.014.001.028-.001.041-.005zm-.96.32l.26-.08a.09.09 0 0 0 .057-.047c.006-.011.009-.024.009-.036a.09.09 0 0 0-.006-.037l-.34-1.13a.09.09 0 0 0-.052-.057c-.012-.005-.025-.009-.038-.009s-.027.002-.039.006l-.25.08c-.013.002-.025.007-.037.015s-.02.017-.027.029-.011.024-.012.038a.1.1 0 0 0 .005.039l.35 1.13a.08.08 0 0 0 .017.033c.008.009.018.018.029.024a.09.09 0 0 0 .073.003z" class="B"/><path d="M81.45 124.41l.52 2.68c1.57 7.58-2.26 6.5-2.9 3.17l-.93-5a4.62 4.62 0 0 0 .68.48c.525.138 1.083.079 1.568-.166a2.22 2.22 0 0 0 1.062-1.164zm-13.09-.17l.73 2.68c2.18 7.55-1.73 6.76-2.63 3.44l-1.34-5a6.5 6.5 0 0 0 .72.43 2.22 2.22 0 0 0 2.52-1.55z" class="C"/><g fill="#2f3b4d"><path d="M58.18 88.95l.49 9.92c-.09 2.69-.56 5.41 0 8 .36 1.79 1.15 3.44 1.61 5.2.66 2.56.6 5.27.85 7.91s.9 5.4 2.65 7.26l-2.22-22.16a39.47 39.47 0 0 1-.18-9.77c.33-2.21 1-4.37 1.09-6.61a11.35 11.35 0 0 0-2.29-7.11 1.58 1.58 0 0 1-.48-1.09 2.26 2.26 0 0 1 .54-.9c1.09-1.53-1.24-5.14-1.65-.66a75.54 75.54 0 0 0-.41 10.01zm13.81-11.67a2.36 2.36 0 0 1 1.93-1h8.83.57l.43.52V79c-1.56 11-1.85 31.22.45 45.35a2.66 2.66 0 0 1-.622 2.181 2.65 2.65 0 0 1-.937.687c-.359.157-.749.233-1.141.222l-2.9-.08c-.632-.017-1.239-.254-1.715-.671a2.72 2.72 0 0 1-.895-1.609c-1-6-1.81-12.15-2.55-19.1-1.32-12.29-1.82-23-1.83-27.3a2.35 2.35 0 0 1 .38-1.4z"/><path d="M71.54 75.38l-.19 1.33a171.2 171.2 0 0 0-2 28.09c.28 12 1.24 16.89 1.88 20.59a2.07 2.07 0 0 1-.226 1.63 2.06 2.06 0 0 1-1.344.95l-5.28-.06c-.279-.004-.547-.106-.758-.29a1.18 1.18 0 0 1-.392-.71c-1.08-6.58-2-13.15-3-22a231.35 231.35 0 0 1-1-24.63v-3.77-1.17l12.31.04z"/><path d="M71 90.95l.71 9.16c0 2.49.92 4.47 1.42 6.89.34 1.64-.18 3.71.24 5.33a70.08 70.08 0 0 1 1.09 8.49 9.34 9.34 0 0 0 2.22 5.73l-2.48-20.73a41.42 41.42 0 0 1-.44-9 57.82 57.82 0 0 0 .67-6.15 11.53 11.53 0 0 0-2.07-6.51 1.53 1.53 0 0 1-.42-1 12.33 12.33 0 0 1 1.07-1.95c.84-1.45-2.16-6.48-2.35-2.32-.15 3.06.13 8.97.34 12.06z"/></g><path d="M86.11 40.01c-1.42-2.11-5.79-2.48-9.25-2.92-4-.5-4.17-.38-8.92.4-4.93.81-10.85 2.83-9.85 6.93 4.64 18.91-1.15 21.63-.13 31.79.08.71-.37 1.48.16 2a3 3 0 0 0 2 .55c3.59.08 9.68-1.55 13.86.44 2.77 1.31 4.07 1.87 6.87 1.21 1.56-.37 2.55-2.14 2.86-3.52 2.61-11.91-1-15.14 2.61-28.93.61-2.22 1.05-6.08-.21-7.95zm-19.93 89.8l-3.82 1.29c-.93.32-1.11 1-.74 1.46l8.86-.21-.76-2.54h-3.54z" class="D"/><path d="M70.48 132.35l.09.33c.06.21-.18.4-.51.4l-6.88.08c-.289.025-.579-.016-.849-.12a1.91 1.91 0 0 1-.711-.48l8.86-.21zm-4.54-1.51l.26-.08a.09.09 0 0 0 .057-.052c.005-.012.009-.026.009-.039s-.002-.027-.007-.039l-.34-1.12a.11.11 0 0 0-.052-.06c-.024-.013-.052-.017-.078-.01l-.25.08c-.024.009-.044.026-.056.048s-.018.047-.014.072l.35 1.13c.007.025.023.046.046.059s.049.017.074.011zm-1.01.28l.26-.08c.012-.003.023-.009.033-.017s.018-.018.023-.03.009-.023.009-.036a.09.09 0 0 0-.006-.037l-.34-1.13a.08.08 0 0 0-.017-.033c-.008-.009-.018-.018-.029-.024s-.024-.009-.036-.009-.025.001-.037.006l-.26.08c-.025.007-.046.023-.059.046s-.017.049-.011.074l.35 1.12c.002.013.007.026.015.037a.08.08 0 0 0 .029.026c.012.006.024.011.038.012s.027 0 .039-.005zm-.95.32l.25-.08c.025-.007.046-.023.059-.046s.017-.049.011-.074l-.35-1.13a.08.08 0 0 0-.017-.033c-.008-.009-.018-.018-.029-.024s-.024-.009-.036-.009-.025.001-.037.006l-.26.08c-.012.003-.023.009-.033.017s-.018.018-.023.03-.009.023-.009.036a.09.09 0 0 0 .006.037l.34 1.13c.005.013.011.024.02.034a.09.09 0 0 0 .032.023c.012.005.025.009.039.01s.027-.002.039-.007z" class="B"/><path d="M78.8 129.72l-3.82 1.3c-.93.32-1.11 1-.74 1.45l8.86-.2-.76-2.55H78.8z" class="D"/><path d="M83.1 132.27l.1.33c.06.2-.19.4-.52.4l-6.88.07c-.289.026-.579-.014-.85-.118a1.89 1.89 0 0 1-.71-.482l8.86-.2zm-4.54-1.52l.26-.08c.025-.007.046-.024.059-.046a.1.1 0 0 0 .011-.074l-.35-1.13a.08.08 0 0 0-.017-.033c-.008-.009-.018-.018-.029-.024s-.024-.009-.036-.009-.025.001-.037.006l-.26.08c-.025.007-.046.023-.059.046a.1.1 0 0 0-.011.074l.35 1.13a.08.08 0 0 0 .017.033c.008.009.018.018.029.024s.024.009.036.009.025-.001.037-.006zm-1 .29l.25-.08a.11.11 0 0 0 .06-.052c.013-.024.016-.052.01-.078l-.35-1.12c-.007-.025-.023-.046-.046-.059s-.049-.017-.074-.011l-.26.08c-.012.003-.024.009-.034.017s-.018.018-.023.03-.009.023-.009.036.002.025.006.037l.34 1.13c.009.026.027.047.051.06s.052.016.079.01zm-.96.32l.26-.08a.09.09 0 0 0 .057-.052c.005-.012.009-.026.009-.039s-.002-.027-.007-.039l-.35-1.12c-.007-.025-.023-.046-.046-.059s-.049-.017-.074-.011l-.25.08c-.013.002-.025.007-.037.015a.09.09 0 0 0-.027.028c-.007.011-.011.025-.012.038a.09.09 0 0 0 .005.039l.35 1.13c.007.025.023.046.046.059s.049.017.074.011z" class="B"/><path d="M108.95 123.57c-1-5.85-2.48-11.59-4-17.37-.08-.32-.4-1.22-.48-1.53l-6.25.66c1.28 4.36 6.76 17.83 8.57 25.57.21.88 2.5.89 3-.43.28-.75-.19-2.89-.34-3.94s-.33-1.98-.5-2.96zm8.7-18.41h-6.3c2.29 17.18 4.19 25.07 4.41 25.41 1.15 1.78 2.91 2.05 3.37.25.23-.87-.15-3.34-.32-5.11-.72-7.34-1.13-13.86-1.16-20.55z" class="C"/><path d="M109.88 80.72a22.29 22.29 0 0 1-9-2.34c-.247-.116-.457-.299-.604-.53a1.44 1.44 0 0 1-.226-.77c-1.48 5.2-3.27 13.8-3.35 19.14-.002 2.324.307 4.638.92 6.88.13.52.28 1 .43 1.6l.19.63 9.92-.09c5.33.12 9.47-.08 9.47-.08.007-9.044.739-18.073 2.19-27 0-.09-.35-.19-.34-.28h-.08a.47.47 0 0 1 0 .13c-1.42 1.42-3.21 2.94-9.52 2.71z" fill="#51b4e6"/><g fill="#000"><path d="M110.13 21.04c.345-.059.682-.163 1-.31.24-.16.4-.41.64-.59a.64.64 0 0 1 .81-.05c.1.1.14.25.24.35.29.28.74 0 1.13 0a1.28 1.28 0 0 1 .652.058c.208.075.394.204.538.372.21.25.36.6.67.67s.52-.1.74 0 .19.69.42 1 .44.25.68.36c.222.099.411.258.545.46a1.28 1.28 0 0 1 .215.68c-.045.255-.045.515 0 .77.11.31.46.52.52.85.12.68-.69.77-1.15 1.19s-.59 1.63-1.35 1.83c-.18 0-.39 0-.52.15s-.14.35-.26.5-.7.1-1 .2l-.21.13c-1.79 1-3.84 1-5.06-.14-.49-.545-.814-1.219-.933-1.942a3.83 3.83 0 0 1 .263-2.138c-.122-.18-.206-.382-.249-.595a1.63 1.63 0 0 1-.001-.645c.1-.81.87-1 1.06-1.67.07-.25-.08-.53 0-.79s.28-.6.61-.7z"/><path d="M108.3 33.39c.79-.74 2.45-1.56 3-2.18.424-.404.794-.861 1.1-1.36.215-.407.328-.86.33-1.32 0 0-.44-.61-.09-.16a4.67 4.67 0 0 1-1-3.23 4.3 4.3 0 0 0-1.31-1.87c-1.74-1.5-2.58-1.2-3.64-1.49a7 7 0 0 0-2.3-.23c-.571-.016-1.14.088-1.669.305s-1.006.542-1.401.955a7.72 7.72 0 0 0-.59.78l-.42.84c-.14.28-1.23 1-1.28 1.78a3.11 3.11 0 0 0 .44 2.16c.76-.2 1.37-1.32 2.05-1.25a2.28 2.28 0 0 1 .63.18 3.74 3.74 0 0 1 1.335.764c.387.344.699.765.915 1.236.35.9.13 2.08.89 2.72s1.83.41 2.56.93c.174.12.326.269.45.44z"/><path d="M113.64 28.27c0 .77-2.42 4.6-3.43 5.58l-.89 1.85c-1.4-.84-.66-3.84-.66-3.84a1.81 1.81 0 0 0 .236-.74c.024-.261-.009-.524-.096-.77-.23-.81-.8-1.37-1.26-1.23 0 0-.06 0-.09.06l2.36-3.69c.77 1.33 4.07-.37 3.83 2.78z"/></g><path d="M100.55 63.62c.6-7.17-.64-11.75-.34-15.48a1.93 1.93 0 0 1 0-.43c.033-.205.076-.409.13-.61l.51-1.8a7.85 7.85 0 0 1 2.35-3.63c4-3.47 7.79-2 10.42-.33l.9.6c4.27 2.84 2.68 9.35 2.68 9.35-.53 3.17-1.54 4.7-1.64 8.23-.18 6.68 4.32 8.52 4.59 15.84 0 0 .22 3.35-.74 4.09-1.35 1-3.33 1.88-7.76 2-4.87.15-7.84-.39-11.16-2a2.4 2.4 0 0 1-1.37-2.12c-.19-7.22.69-4.85 1.43-13.71z" class="B"/><path d="M102.35 28.53l4.91-.62c.053-.006.104-.023.15-.049s.087-.061.119-.103.057-.09.071-.141.017-.105.01-.157l-.33-2.61c-.012-.104-.045-.205-.097-.296a.78.78 0 0 0-.482-.374.79.79 0 0 0-.311-.02l-4.52.57a1.92 1.92 0 0 0-1.529 2.124 1.92 1.92 0 0 0 2.009 1.677z" fill="#f8a180"/><g class="C"><path d="M100.79 25.18c-.479.482-.841 1.066-1.059 1.709a4.46 4.46 0 0 0-.201 2.001l.46 3.58c.155 1.193.778 2.276 1.732 3.011s2.159 1.06 3.353.904a4.54 4.54 0 0 0 3.915-5.085l-.45-3.46-7.75-2.66z"/><path d="M109.67 41.95l-2.59.34a.78.78 0 0 1-.76-.76l-1.13-8.64c-.046-.195-.016-.4.084-.573a.78.78 0 0 1 .456-.357l2.59-.34a.78.78 0 0 1 .76.76l1.13 8.65a.77.77 0 0 1-.54.92z"/></g><path d="M103.7 27.95l1.09-.14a.29.29 0 0 1 .325.255c.009.077-.012.154-.06.215s-.118.1-.195.11l-1.09.14a.3.3 0 0 1-.33-.26.3.3 0 0 1 .066-.212c.049-.059.118-.098.194-.108zm-3.98.51l.84-.11a.27.27 0 0 1 .181.079c.048.048.076.113.079.181 0 .16-.06.31-.19.32l-.84.11a.27.27 0 0 1-.26-.26c-.02-.16.06-.31.19-.32z" class="B"/><path d="M101.63 31.74v-.1c.02.103.069.199.142.275a.55.55 0 0 0 .268.155l.51.1a.35.35 0 0 0 .231-.047c.069-.042.122-.107.149-.183.1.33-.12.65-.41.59l-.51-.09c-.134-.055-.245-.155-.315-.282a.63.63 0 0 1-.065-.418z" fill="#f26951"/><g class="B"><path d="M104.09 29.79c0 .27.21.48.39.46s.3-.27.27-.54-.21-.49-.39-.46-.3.26-.27.54z"/><path d="M104.36 29.24l-.55.07.38.3.17-.37zm-4.17 1.04c0 .27.2.48.38.46s.3-.27.27-.54-.21-.49-.39-.46-.3.26-.26.54z"/><path d="M100.45 29.73l-.55.07.38.3.17-.37z"/></g><path d="M108.62 29.44a1.56 1.56 0 0 1 1.71.531c.197.253.31.561.325.881s-.069.637-.24.908-.422.482-.718.605-.623.152-.936.084a1.56 1.56 0 0 1-1.211-1.319 1.42 1.42 0 0 1 1.07-1.69z" class="C"/><path d="M109.28 26.05c-.64-1-1-2.27-2-2.83a3.15 3.15 0 0 0-2.1-.19 16.56 16.56 0 0 0-2.47.72l-1.78.62a.46.46 0 0 0-.18.1.44.44 0 0 0-.1.22c-.07.3-.4 1.06-.28 1.35s.56.29.85.27c1.046-.08 2.098.076 3.076.457s1.857.977 2.574 1.744c.63.74 1 1.66 1.68 2.38.421.473.939.848 1.52 1.1h.07l1.1-3.88a12.73 12.73 0 0 1-1.96-2.06z" fill="#000"/><path d="M103.82 33.26c0 .31 0 .61-.65.79a.92.92 0 0 1-1.08-.44l1.73-.35z" fill="#fff"/><path d="M109.88 129.64a1.77 1.77 0 0 0-.766-.481c-.293-.091-.604-.104-.904-.039l-4.32 1.56c.46.329.981.563 1.533.689s1.122.14 1.679.044a4.28 4.28 0 0 0 1.567-.608c.477-.304.889-.7 1.211-1.165zm9.2 0a1.8 1.8 0 0 0-.772-.481c-.294-.091-.607-.104-.908-.039l-4.32 1.56c.461.328.983.561 1.535.686a4.29 4.29 0 0 0 1.682.043c.557-.096 1.09-.303 1.568-.606a4.29 4.29 0 0 0 1.215-1.163zm-11.37-89.69a4.39 4.39 0 0 1 3.1.9 1.17 1.17 0 0 1 .348.414 1.16 1.16 0 0 1 0 1.052 1.17 1.17 0 0 1-.348.414l-2.93 2.7a1.14 1.14 0 0 1-1.78-.131 24.55 24.55 0 0 1-1.45-3.11c-.53-1.24 1.75-2.13 3.06-2.24zm-31.6-1c0 1.06-1.3 1.91-2.91 1.91s-2.9-.85-2.9-1.91 1.3-1.92 2.9-1.92 2.91.92 2.91 1.92z" class="C"/><path d="M79.29 22.84a1.17 1.17 0 0 0-.13-1.14c-.31-.32-.83-.26-1.17-.52a3.14 3.14 0 0 1-.58-.84 1.6 1.6 0 0 0-1.64-.66c-.33.08-.65.27-1 .16s-.7-.84-1.17-.76c-.32.05-.48.44-.77.58s-.79-.08-1.18-.19a1.54 1.54 0 0 0-1.55.5c-.34.39-.63 1-1.13.95-.18 0-.33-.15-.51-.18-.38-.06-.69.33-.8.71s-.08.81-.21 1.18a5.1 5.1 0 0 1-.76 1.15 1.34 1.34 0 0 0-.26 1.3c.16.33.52.51.63.85.3.89-.33 1.73.17 2.73a2.24 2.24 0 0 0 1 1.08l.33 1a1 1 0 0 1 .81-.45v-1.14l5.84-3.7a5.28 5.28 0 0 1 1.4 3.66v.66h.14a1 1 0 0 1 .77.4c0-.2.09-.41.13-.62.26-.35.84-.56.87-1 0-.26-.15-.51-.11-.76s.27-.41.42-.6c.63-.85-.19-2.09 0-3.15.121-.412.275-.813.46-1.2z" fill="#000"/><g class="C"><path d="M73.7 24.52a2.59 2.59 0 0 1 2.46-.036 2.59 2.59 0 0 1 1.381 2.036v.36 3.71a4.19 4.19 0 0 1-1.066 3.223 4.19 4.19 0 0 1-3.104 1.375 4.19 4.19 0 0 1-3.104-1.375A4.19 4.19 0 0 1 69.2 30.59v-2.8a1.36 1.36 0 0 1 .7-1.17l3.8-2.1z"/><path d="M75.47 39.04v-7.88c0-.54-.32-1-.71-1H71.9c-.4 0-.72.44-.72 1v7.9l4.29-.02z"/></g><path d="M72.33 31.67c0 .39.25.88 1.1 1a1.15 1.15 0 0 0 1.15-.77l-2.25-.23z" fill="#fff"/><path d="M71.74 27.02h-.95a.27.27 0 0 0-.24.192c-.01.035-.014.072-.01.108a.27.27 0 0 0 .148.262.26.26 0 0 0 .102.028h.95a.27.27 0 0 0 .25-.29c.004-.036.001-.073-.009-.108a.27.27 0 0 0-.241-.192zm4.89-.71h-.87a.27.27 0 0 0-.24.3.28.28 0 0 0 .24.3h.87c.13 0 .23-.14.23-.3s-.1-.3-.23-.3z" class="B"/><path d="M74.46 30.06v-.1a.59.59 0 0 1-.36.5l-.5.16a.36.36 0 0 1-.43-.18v.06a.43.43 0 0 0 .098.411.43.43 0 0 0 .402.129l.5-.16a.64.64 0 0 0 .29-.82z" fill="#f26951"/><path d="M71.09 28.11c0 .41.15.74.33.74s.34-.33.34-.74h-.67zm4.63-.02v.08c0 .41.15.74.34.74s.34-.4.34-.74v-.08h-.68z" class="B"/><path d="M69.09 28.62a1.46 1.46 0 0 0 0 2.88 1.47 1.47 0 0 0 0-2.88zm8.03 0a1.46 1.46 0 0 0 0 2.88 1.46 1.46 0 0 0 0-2.88z" class="C"/><path d="M65.88 43.57l-1.53 7.84a1.75 1.75 0 0 1-1.15 1.33c-2.55.8-5 4.94-7.26 4.94.55-2.75 1.06-10.7 1.5-13.43.82-5.3 9.25-5.89 8.44-.68z" class="D"/><path d="M79.91 39.57H67.7a.64.64 0 0 0-.64.64v7.86a.64.64 0 0 0 .64.64h12.21a.64.64 0 0 0 .64-.64v-7.86a.64.64 0 0 0-.64-.64z" fill="#000"/><g class="C"><path d="M58.88 54.89c2.36-2.95 4.72-5.09 6.58-7.68a8.09 8.09 0 0 1 1.47-1.6l1.81.57c-.088.342-.201.676-.34 1-1 2.47-6.79 15.36-9.11 14.63a7.07 7.07 0 0 1-3.41-4.12c.81-.96 1.87-2.42 3-2.8zm7.83-12.66a.41.41 0 0 1 .4.43v2.11a.41.41 0 0 1-.4.42.41.41 0 0 1-.4-.42v-2.12a.43.43 0 0 1 .4-.42z"/><path d="M70.17 45.7a1.84 1.84 0 0 0 .19-.94 1 1 0 0 0-.3-.52 4.57 4.57 0 0 0-1.19-.95 1.43 1.43 0 0 0-1.52-.05 2.41 2.41 0 0 0-1 1.47 3.28 3.28 0 0 0 0 2.31c.38 1.06 1.18 1.44 2.33.38a5.87 5.87 0 0 0 1.49-1.7z"/><path d="M67.8 43.78l2.26-2.05a.38.38 0 0 0 0-.53.39.39 0 0 0-.53 0l-2.25 2.05a.37.37 0 0 0 0 .53.39.39 0 0 0 .52 0zm.91.54l2.26-2a.38.38 0 0 0 0-.53.37.37 0 0 0-.409-.083.35.35 0 0 0-.121.083l-2.26 2a.38.38 0 0 0-.068.575.38.38 0 0 0 .579-.025l.02-.02zm.45 1.12l2.25-2a.38.38 0 0 0 0-.53.37.37 0 0 0-.53 0l-2.26 2.05a.38.38 0 0 0-.068.575.38.38 0 0 0 .578-.025l.03-.07zm.02 1.16l2.26-2a.38.38 0 0 0 0-.53.37.37 0 0 0-.53 0l-2.25 2a.37.37 0 0 0 0 .53.38.38 0 0 0 .52 0z"/></g><path d="M81.42 43.44l1.54 7.84a1.74 1.74 0 0 0 1.14 1.34c2.56.8 5 4.93 7.27 4.93-.56-2.75-1.07-10.7-1.51-13.43-.85-5.25-9.28-5.89-8.44-.68z" class="D"/><g class="C"><path d="M88.36 54.76c-2.36-2.94-4.71-5.09-6.58-7.68a8.31 8.31 0 0 0-1.46-1.59l-1.82.57a6.89 6.89 0 0 0 .34 1c1 2.46 6.79 15.36 9.11 14.63a7.14 7.14 0 0 0 3.42-4.13c-.78-.96-1.85-2.42-3.01-2.8zm-7.8-12.66a.42.42 0 0 0-.4.43v2.11a.42.42 0 0 0 .41.43.42.42 0 0 0 .4-.43v-2.11a.42.42 0 0 0-.41-.43z"/><path d="M77.11 45.57a1.86 1.86 0 0 1-.2-.94 1.13 1.13 0 0 1 .3-.52c.352-.373.756-.693 1.2-.95a1.42 1.42 0 0 1 1.52-.05 2.45 2.45 0 0 1 1 1.48 3.2 3.2 0 0 1 0 2.3c-.38 1.06-1.18 1.45-2.32.38a5.49 5.49 0 0 1-1.5-1.7z"/><path d="M79.47 43.65l-2.25-2a.37.37 0 0 1 0-.53.38.38 0 0 1 .53 0l2.26 2a.38.38 0 0 1 0 .53.37.37 0 0 1-.54 0zm-.91.55l-2.25-2.05a.37.37 0 0 1 0-.53.38.38 0 0 1 .53 0l2.26 2a.38.38 0 0 1-.51.56l-.03.02zm-.44 1.12l-2.26-2.05a.38.38 0 0 1 .51-.55l2.25 2a.38.38 0 0 1 .078.572.38.38 0 0 1-.578-.012v.04zm-.03 1.16l-2.25-2.05a.37.37 0 0 1 0-.53.39.39 0 0 1 .53 0l2.26 2.05a.38.38 0 0 1 0 .53.39.39 0 0 1-.54 0zm20.62 1.82c3.225 2.799 6.604 5.417 10.12 7.84a.49.49 0 0 0 .74-.26c.77-2 1.46-3.1 1.71-5.21a10.16 10.16 0 0 0 5.39 1.05l-4.35 9.14a1.57 1.57 0 0 1-.402.654c-.186.181-.414.313-.664.385a1.57 1.57 0 0 1-1.454-.318c-5.85-3.87-8.4-7.79-12.24-12.06 1.06-.37.5-.37 1.15-1.22z"/></g><path d="M114.01 42.11l-3.57 8.59c-.145.348-.202.726-.166 1.101s.166.736.376 1.049c.69 1 2.14 2.28 5.11 2.46 0 0 3.3-9.02-1.75-13.2z" class="B"/><g class="C"><path d="M99.48 45.25a.41.41 0 0 0-.39.41v2.06a.4.4 0 0 0 .091.323.4.4 0 0 0 .304.14.4.4 0 0 0 .304-.14.4.4 0 0 0 .091-.323v-2a.4.4 0 0 0-.089-.329.4.4 0 0 0-.311-.141z"/><path d="M96.13 48.62a1.74 1.74 0 0 1-.19-.91 1 1 0 0 1 .29-.51 4.32 4.32 0 0 1 1.16-.92 1.38 1.38 0 0 1 1.48-.05 2.34 2.34 0 0 1 1 1.43c.275.721.275 1.519 0 2.24-.37 1-1.15 1.4-2.26.37a5.5 5.5 0 0 1-1.48-1.65z"/><path d="M98.42 46.75l-2.19-2a.35.35 0 0 1-.081-.394.35.35 0 0 1 .082-.116.36.36 0 0 1 .51 0l2.19 2c.035.032.064.071.085.114s.032.09.035.138-.005.096-.021.141a.36.36 0 0 1-.073.122c-.032.035-.071.064-.114.085s-.09.032-.138.035-.096-.005-.141-.021a.36.36 0 0 1-.122-.073l-.02-.03zm-.88.53l-2.19-2a.37.37 0 0 1 0-.52.35.35 0 0 1 .51 0l2.19 2a.38.38 0 0 1 0 .52.37.37 0 0 1-.51 0zm-.43 1.09l-2.19-2a.36.36 0 0 1 0-.51.38.38 0 0 1 .52 0l2.19 2a.37.37 0 0 1 0 .52.37.37 0 0 1-.52-.01zm-.03 1.13l-2.19-2a.37.37 0 0 1 0-.52.36.36 0 0 1 .51 0l2.19 2a.36.36 0 0 1 0 .51.38.38 0 0 1-.51.01z"/></g><path d="M107.98 129.51l-3.83 1.3c-.93.32-1.11 1-.74 1.46l8.86-.21-.76-2.55h-3.53z" class="F"/><path d="M112.27 132.06l.1.33c.06.21-.19.4-.52.4l-6.88.08a2.02 2.02 0 0 1-.846-.129 2 2 0 0 1-.714-.471l8.86-.21zm-4.54-1.52l.26-.07c.024-.011.045-.029.057-.053s.018-.051.013-.077l-.35-1.12c-.002-.013-.007-.026-.015-.037a.08.08 0 0 0-.029-.026c-.012-.006-.024-.011-.037-.012s-.027 0-.039.005l-.26.08c-.024.009-.044.026-.056.048s-.018.047-.014.072l.35 1.13a.08.08 0 0 0 .017.033c.008.01.018.018.03.024s.023.009.036.009.025-.001.037-.006zm-1 .29l.25-.08c.024-.009.044-.026.056-.048s.018-.047.014-.072l-.35-1.13a.08.08 0 0 0-.017-.033c-.008-.01-.018-.018-.03-.024s-.023-.009-.036-.009-.025.001-.037.006l-.26.07a.09.09 0 0 0-.057.052c-.006.012-.009.026-.01.039a.09.09 0 0 0 .007.039l.34 1.12a.11.11 0 0 0 .052.06c.024.013.052.016.078.01zm-.96.32l.26-.08a.08.08 0 0 0 .033-.017c.01-.008.018-.018.024-.03s.009-.023.009-.036-.001-.025-.006-.037l-.34-1.13a.09.09 0 0 0-.052-.057c-.012-.006-.026-.009-.039-.01a.09.09 0 0 0-.039.007l-.25.07c-.013.003-.026.01-.037.018s-.02.019-.027.032-.01.025-.011.039.001.028.005.041l.35 1.12c.002.013.007.026.015.037a.08.08 0 0 0 .029.026c.012.006.024.011.037.012s.027 0 .039-.005z" class="B"/><path d="M116.6 129.43l-3.82 1.3c-.94.31-1.12 1-.74 1.45l8.85-.2-.75-2.55h-3.54z" class="F"/><path d="M120.88 131.95l.1.33c.06.2-.19.39-.52.4l-6.88.07c-.287.027-.577-.013-.846-.117a1.86 1.86 0 0 1-.704-.483l8.85-.2zm-4.52-1.49l.25-.08c.025-.007.046-.024.059-.046s.017-.049.011-.074l-.35-1.13a.08.08 0 0 0-.017-.033c-.008-.01-.018-.018-.029-.024s-.024-.009-.037-.009-.025.001-.037.006l-.26.07a.09.09 0 0 0-.057.052c-.006.012-.009.026-.01.039a.09.09 0 0 0 .007.039l.34 1.12c.003.013.01.026.018.037s.019.02.032.027.025.01.039.011.028 0 .041-.005zm-1.01.28l.26-.07a.09.09 0 0 0 .057-.052c.006-.012.009-.026.009-.039s-.001-.026-.006-.039l-.35-1.12c-.002-.013-.007-.026-.015-.036s-.017-.021-.029-.027-.024-.011-.037-.012-.027 0-.039.005l-.26.08a.08.08 0 0 0-.033.017c-.01.008-.018.018-.024.03s-.009.023-.009.036.001.025.006.037l.35 1.13a.08.08 0 0 0 .017.033c.008.01.018.018.03.024s.023.009.036.009.025-.001.037-.006zm-.96.32l.26-.07c.013-.005.024-.011.034-.02a.09.09 0 0 0 .023-.032c.006-.013.009-.026.01-.039s-.002-.027-.007-.039l-.34-1.12a.11.11 0 0 0-.052-.06c-.024-.013-.052-.017-.078-.01l-.25.08c-.024.009-.044.026-.056.048s-.018.047-.014.072l.35 1.13a.08.08 0 0 0 .017.033c.008.01.018.018.03.024s.023.009.036.009.025-.001.037-.006z" class="B"/><g class="E"><path d="M29.76 118.57c.09-1.13 0-2.29.1-3.42l.36-6.66c.29-4.46.62-8.93 1.16-13.37.47-3.9.76-8.53 3-11.91a9.84 9.84 0 0 1 4.43-3.87c1.82-.66 3.62 0 5.21.94a.22.22 0 0 0 .22-.38c-2.16-1.25-4.47-1.78-6.71-.41a12 12 0 0 0-5 6.59 55.31 55.31 0 0 0-1.77 10.31c-.43 3.89-.72 7.79-1 11.69l-.35 6.24c-.06 1.36 0 2.81-.12 4.2l.47.05zm-1.88-.21l.91.09c-.89-3.75-.48-7.78-.59-11.6l-.58-15.92c-.24-4.56-.58-9.52-2.38-13.81l-.34.21c.734 2.056 1.263 4.18 1.58 6.34a69.53 69.53 0 0 1 .74 7.89c.26 5 .4 10 .54 15.08.1 3.76-.29 7.73.5 11.45a29.96 29.96 0 0 1-.91-5.41 40.15 40.15 0 0 0-1.78-8.82c-1.157-2.887-2.493-5.699-4-8.42-1-2-2.1-4.49-4.39-5.32a5.7 5.7 0 0 0-6.86 3c-.13.24.25.46.38.21a5.44 5.44 0 0 1 4.62-3 5 5 0 0 1 4.28 2.49c.85 1.26 1.43 2.68 2.16 4a56.54 56.54 0 0 1 2.64 5.21 37.28 37.28 0 0 1 2.55 10.72 30.98 30.98 0 0 0 .93 5.61z"/><path d="M46.17 86.72a8.11 8.11 0 0 0-8 1.65c-2.32 2-3.35 5.1-4.06 8-.86 3.48-1.57 7-2.16 10.58-.65 3.89-1.18 7.81-2.1 11.65h.46c.64-2.7 1.09-5.43 1.52-8.17.53-3.37 1.17-6.7 1.85-10 1.13-5.46 2.71-13.67 9.89-13.7 2.25 0 6.73 1.56 6.82 4.27 0 .28.45.28.44 0-.04-2.36-2.78-3.64-4.66-4.28z"/></g><path d="M45.59 73.61a4.28 4.28 0 0 0-3.3.411 4.28 4.28 0 0 0-2.01 2.649c-1.48-.86-3.79-1-4.43.89-1 3 2.7 4.72 4.32 6.36a.33.33 0 0 0 .381.062.33.33 0 0 0 .179-.342c-.225-.987-.376-1.99-.45-3 0-.38.13-.84.5-.91a.69.69 0 0 1 .72.52c.23.75-.19 1.84-.23 2.62s-.17 1.53.45 2a2.19 2.19 0 0 0 1.33.28 7.42 7.42 0 0 1 3.5.55.33.33 0 0 0 .323.01.33.33 0 0 0 .177-.27c.19-1.23 1-2.07 1.29-3.21a1.81 1.81 0 0 0-.11-1.46 1.74 1.74 0 0 0-1.13-.71c-.22-.06-1.27 0-1.4-.24.18-1.27.7-1.52 1.58-.74l.65 1a.33.33 0 0 0 .351.152.33.33 0 0 0 .259-.282c.42-2.31-.53-5.41-2.95-6.34z" class="G"/><path d="M33.13 75.84c-.82-1.11-2.14-1.73-3-2.83-.025-.021-.045-.047-.059-.076a.22.22 0 0 1 0-.188c.014-.029.034-.055.059-.076 1-.5 1.92.08 2.64 1a6.08 6.08 0 0 0-.71-1.61 8.11 8.11 0 0 0-6.52-3.58c-1.89-.09-4.46.18-5.56 1.9-1.53-1.61-4.42-1.79-6.39-1a7.77 7.77 0 0 0-4.56 6.5 9.63 9.63 0 0 0 0 2.35l1.24-1.44c.55-.61 1.92-2.27 2.94-1.87 1.35.54-.3 2.22-.78 2.7-.799.636-1.506 1.379-2.1 2.21a9.43 9.43 0 0 0-.49 1 11.83 11.83 0 0 0 1.77 2.53l.57.61a10 10 0 0 1 .65-2.73c.3-.84 1-2.86 2.24-2.7 1.77.25.47 2.7 0 3.45a7.78 7.78 0 0 0-1.4 2.57 3.81 3.81 0 0 0 1.14 2.9c.888.843 1.826 1.631 2.81 2.36a4.68 4.68 0 0 1 1.83 3.09 6.12 6.12 0 0 1 2.43-2.59 12.31 12.31 0 0 0 2.84-2.21c1.49-1.79.68-3.54-.35-5.28-.44-.73-.94-2.38.43-2.52s2.21 1.62 2.51 2.62a7.64 7.64 0 0 1 .21 3.08 17.59 17.59 0 0 0 2.84-2.59 6.44 6.44 0 0 0-.36-2.3c-.48-.942-1.078-1.819-1.78-2.61-.51-.72-1.19-2.49.28-2.64 1.29-.13 2.64 1.49 3.22 2.45a8 8 0 0 1 .69 1.56.61.61 0 0 1 .05-.12 12.09 12.09 0 0 0 .67-3.92zm-17.26-.11a.57.57 0 0 1-.253.41.57.57 0 0 1-.477.07.24.24 0 0 1-.16-.21v-.16a.19.19 0 0 1 0-.25.66.66 0 0 1 .66-.13.22.22 0 0 1 .191.072.22.22 0 0 1 .05.198h-.01zm.5-1.34a.23.23 0 0 1-.161-.085.23.23 0 0 1-.042-.083c-.008-.03-.011-.062-.006-.093a.38.38 0 0 1 .15-.38.66.66 0 0 1 .82-.19.24.24 0 0 1 .088.11c.018.045.022.093.012.14a.84.84 0 0 1-.86.58zm1.23 1.38c-.22.14-.56.26-.78.05a.56.56 0 0 1-.124-.412.56.56 0 0 1 .204-.378 2.53 2.53 0 0 1 .77-.47.23.23 0 0 1 .28.08.19.19 0 0 1 .12.14 1 1 0 0 1-.47.99zm6.4-.95c-.42 0-1-.31-1-.78a.62.62 0 0 1 .48-.66.16.16 0 0 1 .073-.048c.028-.009.058-.01.087-.002h.07a1.12 1.12 0 0 1 .32 0 .2.2 0 0 1 .13.12 1.17 1.17 0 0 1 .53.5c.19.51-.25.9-.69.87zm.88-2.82a3.18 3.18 0 0 1-2 .46c-.6 0-1.38-.51-.7-1.09a2.49 2.49 0 0 1 2.49-.42.19.19 0 0 1 .09.09.73.73 0 0 1 .3.22.54.54 0 0 1-.18.74z" class="E"/><path d="M20.14 73.33a4 4 0 0 0-3-3 5.53 5.53 0 0 0-4 .33.19.19 0 0 0-.22.05 4.39 4.39 0 0 0-1 1.59.22.22 0 0 0 .055.208.22.22 0 0 0 .205.062c.74-.15 1.39-.58 2.13-.76a5.1 5.1 0 0 1 2.71-.11 3.52 3.52 0 0 1 2.06 1.78c.311.603.559 1.236.74 1.89l.26 1c.035.296.035.594 0 .89v4.32 6.4c0 .28.25.79.23.51-.13-2.82.08-5.62.18-8.44.223-2.245.105-4.51-.35-6.72z" class="G"/><path d="M18.97 93.47a6.52 6.52 0 0 0-2.43-2.82 5.27 5.27 0 0 0-3.6-1c-1.12.15-1.61.82-2.43 1.39a3 3 0 0 0-1.053-2.135 3 3 0 0 0-2.276-.695c-.228.003-.456.026-.68.07a4 4 0 0 1 1.33 3.25.22.22 0 0 1-.137.193.22.22 0 0 1-.233-.043c-1-.81-1.53-2-2.54-2.8a5.67 5.67 0 0 0-1.24 1.06C5 90.51 6.19 91.79 6.07 93a.22.22 0 0 1-.085.169.22.22 0 0 1-.185.04 4.45 4.45 0 0 1-1.3-.75 3.5 3.5 0 0 0-2-.72 13.6 13.6 0 0 0-1 2.66c1.92-.7 4.13-.95 5.17.91a.22.22 0 0 1-.07.3c-1.35 1-3.1-.51-4.44.52a3 3 0 0 0-.85 1.1c.039.236.092.47.16.7a7.37 7.37 0 0 0 .87 1.81c1.1-.92 2.74-2.23 3.75-1.34a.22.22 0 0 1 0 .31A14.01 14.01 0 0 0 3.7 101l-.18.32a5.99 5.99 0 0 1 1 1.6c.23.63.21 1.29.5 1.9 0 .12.2.12.3.08a17.42 17.42 0 0 1 3.89-1 5.88 5.88 0 0 0-.67-2.36 1.77 1.77 0 0 1-.11-1.37 1.12 1.12 0 0 1 .856-.707 1.12 1.12 0 0 1 1.044.377 4.11 4.11 0 0 1 .51 3.76 12.75 12.75 0 0 0 2.69-.8l.3-.14c-.027-.269-.084-.534-.17-.79-.15-.42-.4-.78-.58-1.19a2.13 2.13 0 0 1-.06-1.81c.36-.76 1.17-1.3 1.9-.63s.81 2.08.45 3.38c.945-.838 1.752-1.82 2.39-2.91a5.59 5.59 0 0 0-1.9-3.42c-.53-.41-1.45-.82-1.68-1.5-.41-1.26 1.62-1.31 2.3-.78 1.19.93 1.47 2.9 1.68 4.28 0 .2 0 .39.07.59l.48-.92a4.13 4.13 0 0 0 .26-3.49zm-11.63-.32l-.09-.18c-.12-.25.25-.47.38-.22l.09.18c.16.25-.25.47-.38.22zm1.71-.17c-.43.09-.73-.72-.41-1a.4.4 0 0 1 .38-.06c.15.05.38.19.38.37s-.06.66-.35.66v.03zm1 5.1a.4.4 0 0 1-.39-.35c0-.19.21-.59.44-.44s.38.23.38.44c-.001.05-.013.099-.034.145a.36.36 0 0 1-.219.191.36.36 0 0 1-.148.014h-.03zm3.3-1.4c-.06.23-.59.28-.74.12a1 1 0 0 1 0-1.39.23.23 0 0 1 .26 0 1.15 1.15 0 0 1 .51 1.27h-.03z" class="E"/><path d="M17.73 92.12a3.82 3.82 0 0 0-2.4-.94c-.28 0-.28.45 0 .44a3.48 3.48 0 0 1 2.18.87c.23.17.44-.21.22-.37zm.43 1.08a.7.7 0 0 1-.16-.19.22.22 0 0 0-.38.22 1.59 1.59 0 0 0 .23.28c.2.19.51-.12.31-.31zm-1.76 3.18a1.4 1.4 0 0 0-.18-.13c-.131-.114-.272-.218-.42-.31-.16-.07-.28.09-.28.26a.42.42 0 0 0 .15.3.81.81 0 0 0 .3.17.58.58 0 0 0 .26 0 .27.27 0 0 0 .2-.17.17.17 0 0 0-.03-.12zm.1 1.5v.62c0 .37.44.15.54 0a.9.9 0 0 0 .07-.27.62.62 0 0 0 0-.33c-.16-.22-.61-.35-.61-.02zm-.91-.52a.61.61 0 0 0-.4-.15.17.17 0 0 0-.15.14.28.28 0 0 0 .1.17 1.56 1.56 0 0 0 .34.23h.19c.011-.032.011-.068 0-.1a.55.55 0 0 0 0-.18.35.35 0 0 0-.08-.11zm-3.38 2.13c-.09-.26-.51-.15-.42.12s0 .45.12.64a.24.24 0 0 0 .093.091c.039.021.083.031.127.029.18 0 .13-.21.13-.33a1.45 1.45 0 0 0-.05-.55zm-5.75-.15c-.22.05-.69.27-.73.54a.09.09 0 0 0 .05.08l.39-.09c.14 0 .45-.08.51-.22s-.07-.34-.22-.31zm.33.89a.29.29 0 0 0-.104-.052c-.038-.009-.078-.011-.116-.004s-.076.021-.108.043a.29.29 0 0 0-.081.083 1.41 1.41 0 0 0-.19.78.2.2 0 0 0 .11.14c.023.012.049.019.075.019s.052-.007.075-.019a.29.29 0 0 0 .12-.1l.2-.2c.086-.076.152-.172.19-.28a.33.33 0 0 0-.005-.167c-.016-.054-.045-.103-.085-.143s-.094-.067-.15-.081a.34.34 0 0 0-.17.001.34.34 0 0 1 .28 0m-1.521 1.86a1.06 1.06 0 0 0 0 .53c0 .28.46.28.43 0a.82.82 0 0 1 0-.41c.14-.28-.34-.38-.43-.12zm1.45.65a.22.22 0 0 0-.156.064c-.041.042-.064.098-.064.156s.023.114.064.156a.22.22 0 0 0 .311 0c.041-.042.064-.098.064-.156s-.023-.114-.064-.156a.22.22 0 0 0-.156-.064zm5.12-1.48a.22.22 0 0 0-.155.064c-.041.042-.065.098-.065.156a.22.22 0 0 0 .376.156c.041-.042.064-.098.064-.156s-.023-.114-.064-.156a.22.22 0 0 0-.155-.064zm.82.67a.22.22 0 0 0-.17-.19c-.32-.08-.31.42-.26.61s.08.17.17.18.14-.05.19-.11a.64.64 0 0 0 .07-.49zm3.88-2.6c-.06-.28-.48-.16-.42.11a.37.37 0 0 0 .11.19c.19.22.5-.09.31-.3zm2.58-4.82a.22.22 0 0 0-.31.31.22.22 0 0 0 .31-.31zm24.25-2.75c-.27-1.05-.54-2.39-1.5-3.05a2.82 2.82 0 0 0-3 .31 4.38 4.38 0 0 0-1.21 1.18c-.45.66-.66 1.45-1.35 1.89-1.11-1.14-.24-3.15-.82-4.53s-1.93-1.7-3.14-2c-2.5-.68-6.61-.81-7.92 2 0 .1 0 .25.11.27 1.71.22 4.14-.73 5.54.67.19.2.71.79.69 1.09 0 .62-.73.32-1.06.21l-1.94-.65a6.34 6.34 0 0 0-5 .57A5 5 0 0 0 21 93.5c0 .15.17.2.28.15a16.17 16.17 0 0 1 3.53-1.43 7.17 7.17 0 0 1 3.38.19c.27.08 1.42.3 1.08.77-.11.16-.85.07-1 .06l-2.66-.09c-1.69.06-3.93.32-5 1.82-.92 1.28-.7 3-.79 4.51.001.032.011.064.027.091a.19.19 0 0 0 .253.069c1-.57 1.82-1.4 2.81-2a10.81 10.81 0 0 1 3.67-1.26c.55-.09 2.15-.61 2.62-.27s-.46.76-.72.86l-1.43.51c-1.85.63-3.87 1.27-5.22 2.77a4.14 4.14 0 0 0-.4 4.23c.008.027.023.051.041.071a.18.18 0 0 0 .068.047c.026.01.053.015.081.014a.18.18 0 0 0 .079-.022l6.48-4.58a5.46 5.46 0 0 1 1.37-.78c.35-.2.55-.09.62.32.31.27.3.51 0 .73a4.3 4.3 0 0 1-.56.48c-.694.463-1.423.871-2.18 1.22-1.35.7-2.92 1.48-3.61 2.92-.86 1.79.34 3.38 1.46 4.73.034.032.078.051.125.051s.091-.019.125-.051a5.88 5.88 0 0 0 .82-1.8 6.23 6.23 0 0 1 1.82-2.67 14.14 14.14 0 0 1 2.07-1.43c.29-.17 1.33-.86 1.44-.12 0 .29-.47.83-.64 1-1.07 1.2-2.59 1.93-3.56 3.24s-.46 2.55.9 3.47c.028.016.059.024.091.024s.063-.009.091-.025.05-.04.066-.067.023-.06.023-.092c-.014-.636.132-1.266.426-1.831a3.78 3.78 0 0 1 1.254-1.399 2.3 2.3 0 0 1 .46-.25l.39.7c0 .14-.33.33-.43.43-.287.249-.527.547-.71.88a1.66 1.66 0 0 0 0 1.89 2.73 2.73 0 0 0 1 .57 7.84 7.84 0 0 1 1.65 1c.023.022.052.037.083.045s.063.008.094 0 .059-.024.083-.045.041-.05.05-.08c.28-.87 1.58-.85 2.16-1.44a3 3 0 0 0 .58-2 6.55 6.55 0 0 0-.51-3.23c.22-.24.41-.2.59.12a3.53 3.53 0 0 1 .34.83 5.11 5.11 0 0 1 .19 1.5c0 .84-.11 1.68-.18 2.52-.001.024.002.048.011.071s.022.043.039.06.037.03.06.038.047.013.071.011c1-.07 2.61-.79 2.78-1.89.27-1.7-1.06-3.53-1.92-4.85a7.61 7.61 0 0 1-1.48-2.66c-.1-1 .78-1.23 1.43-.64a3.24 3.24 0 0 1 .64.91 16.1 16.1 0 0 1 1.81 6.57.18.18 0 0 0 .017.083c.012.026.03.048.053.066a.17.17 0 0 0 .077.035c.028.005.057.004.084-.004a8.9 8.9 0 0 0 2.11-1.35 1.32 1.32 0 0 0 .517-.527c.119-.222.172-.472.153-.723-.133-.642-.38-1.255-.73-1.81a20.12 20.12 0 0 0-1.59-2.78l-1-1.34c-.329-.336-.624-.705-.88-1.1-.11-.22.12-1.07.37-1.15s.67.3.84.46a5.71 5.71 0 0 1 .64.74 9.82 9.82 0 0 1 2.36 5.92c.001.032.011.064.027.091a.19.19 0 0 0 .068.067c.028.016.06.024.092.025s.064-.008.092-.023c.74-.33 1.08-1.35 1.34-2.05a8.18 8.18 0 0 0 .5-3.63 7.59 7.59 0 0 0-3.46-5.76 2.18 2.18 0 0 1 1 0 1.63 1.63 0 0 1 .77.45c.218.288.459.559.72.81.09.07.23.08.28 0 .35-1.04-.37-2.65-.65-3.71zm-10.2 5.49a1.18 1.18 0 0 1-.22.17.71.71 0 0 1-.65.17h-.09a.18.18 0 0 1-.081-.043.17.17 0 0 1-.049-.077c-.028-.004-.055-.015-.078-.032s-.041-.039-.053-.065A.17.17 0 0 1 32 97.23a.91.91 0 0 1 .38-.32.2.2 0 0 1 .18 0c.133-.015.267-.015.4 0a.18.18 0 0 1 .17.13c.005.03.005.06 0 .09a.19.19 0 0 1 .08.14zm-.13-1.43c-.083.005-.167.005-.25 0-.264.054-.536.054-.8 0a.6.6 0 0 1-.48-.38.31.31 0 0 1-.11-.4c.11-.22.43-.29.65-.35.029-.01.061-.01.09 0a1.52 1.52 0 0 1 1.49.42c.32.49-.21.69-.59.71zm1.43-2.55c0 .21-.24.32-.43.36a1.33 1.33 0 0 1-.52 0 1.17 1.17 0 0 1-.59-.14.45.45 0 0 1-.22-.33.42.42 0 0 1 .31-.45 1.49 1.49 0 0 1 1.13.17c.16.05.34.19.32.39zm3.34 2.06a.37.37 0 0 1-.15.25l-.06.06a.49.49 0 0 1-.59.12.38.38 0 0 1-.2-.33.5.5 0 0 1 0-.36.37.37 0 0 1 .28-.29c.28-.08.75.15.75.55h-.03z" class="G"/><path d="M39.66 89.17c-1.67.6-2.35 2.55-3.57 3.7a.15.15 0 0 0-.08.08.17.17 0 0 0-.06.17c-.394 1.006-.728 2.034-1 3.08l-.27.85-.06.07a.19.19 0 0 0 0 .24l-.77 2.52c-.346 1.21-.623 2.439-.83 3.68-.18 1.3 0 2.46-.28 3.75 0 .23.06.46.11.23.21-1.09.31-2.19.45-3.29.181-1.335.459-2.655.83-3.95l.61-2.38c.25-.75.79-1.32 1-2a8.23 8.23 0 0 1 1.37-2.43c1.25-1.68 2.58-3.68 5-2.77.17.07.3-.12.27-.26a2 2 0 0 0-1.067-1.262 2 2 0 0 0-1.653-.028z" fill="#107d5d"/><path d="M45.13 92.5c.1-.39.29-.83.68-.93a.8.8 0 0 1 .87.49 1.54 1.54 0 0 1 0 1.06c-.1.34-.27.67-.38 1a3.36 3.36 0 0 0-.11 1.34c.267.214.551.405.85.57a7.82 7.82 0 0 0 1.53.63c-.073-.201-.127-.409-.16-.62a1.36 1.36 0 0 1 0-.8.7.7 0 0 1 .61-.46c.47 0 .7.57.79 1a8.13 8.13 0 0 0 .25 1.19 22.29 22.29 0 0 0 2.13.22 2.11 2.11 0 0 0 1.62-.36 3 3 0 0 0 .68-1.48 20.47 20.47 0 0 0 .7-3.57c-.168-.188-.352-.362-.55-.52a4.29 4.29 0 0 1-1.11-1 .92.92 0 0 1-.113-.732.92.92 0 0 1 .463-.578 1.08 1.08 0 0 1 1 .21c.064.041.124.088.18.14a5.25 5.25 0 0 0-2-3.23 3.2 3.2 0 0 0-2.741-.276 3.2 3.2 0 0 0-1.939 1.956 2.25 2.25 0 0 0-.06.69c-.256-.199-.534-.367-.83-.5-.9-.81-3.2 1-3.55 1.88-.6 1.46.09 3.14 1.15 4.45a5.74 5.74 0 0 1 .04-1.77z" class="E"/><path d="M37.88 127.67l1.88-12.38H18.88l1.88 12.38v.07c.272 1.507 1.069 2.87 2.249 3.846s2.669 1.501 4.201 1.484h4.16a6.47 6.47 0 0 0 6.45-5.33l.06-.07z" fill="#e76565"/><path opacity=".78" d="M36.56 115.29l-1.88 12.38v.07c-.272 1.507-1.069 2.87-2.25 3.846s-2.669 1.501-4.201 1.484h3.2a6.47 6.47 0 0 0 6.45-5.33v-.07l1.88-12.38h-3.2z" fill="#d34242"/></svg>