<?xml version="1.0" encoding="utf-8"?>
<!-- Uploaded to: SVG Repo, www.svgrepo.com, Generator: SVG Repo Mixer Tools -->
<svg width="200px" height="200px" viewBox="-34.97 0 324.608 324.608" xmlns="http://www.w3.org/2000/svg"><defs><style>.a{fill:#ffffff;}.b{fill:#3d8dcc;}.c{fill:#211715;}.d{fill:#00BFFF;}</style></defs><path class="a" d="M197.176,169.439c-2.651-1.173-5.352-2.323-8.077-3.467l-18.7-6.444-.733-.254a7.916,7.916,0,0,0-1.614-3.3c-2.219-2.569-5.015-6.286-7.282-8.823-.964.78-20.61,16.27-22.1,17.326h-3.461c-1.49-1.056-21.135-16.546-22.1-17.326-2.267,2.537-5.063,6.254-7.282,8.823a7.885,7.885,0,0,0-1.59,3.2l-1.374.491s-15.509,5.543-17.461,6.326c-18.063,7.247-34.153,15.28-42.728,28.321-3.66,5.575-6.66,13.489-8.855,20.877L12.243,227.685c.653,13,1.376,22.843,2.3,34.285.588,7.235,1.21,14.475,2.183,21.67A81.035,81.035,0,0,0,20.293,300.4c2.9,8.85,9.36,17.463,18.734,20.068,9.454,2.628,22.6,1.261,29.266-7.947.037,3.362.075,6.606.11,9.691H252.267c-3.571-48.717-4-58.366-6.615-82.937-1.668-15.728-6.84-35.866-12.818-44.956C225.7,183.464,212.244,176.1,197.176,169.439Z"/><path class="a" d="M113.115,147.154c-2.267,2.537-5.063,6.254-7.282,8.823-1.306,1.513-2.267,4.291-1.524,6.294.853,1.7,10.276,16.812,16.622,20.877,2.005-2.671,10.31-14.2,14.283-18.668C133.724,163.424,114.079,147.934,113.115,147.154Z"/><path class="a" d="M160.774,147.154c2.267,2.537,5.063,6.254,7.282,8.823,1.306,1.513,2.267,4.291,1.524,6.294-.853,1.7-10.276,16.812-16.622,20.877-2-2.671-10.31-14.2-14.283-18.668C140.164,163.424,159.81,147.934,160.774,147.154Z"/><path class="a" d="M185.631,81.625a7.614,7.614,0,0,1,5.5-2.014,7.061,7.061,0,0,1,6.344,3.525c2.156,3.738,2.065,10.628.618,14.89-1.025,3.019-2.7,7.637-6.751,10.948a8.381,8.381,0,0,1-6.468,1.867l-.621-.1a49.339,49.339,0,0,1-2.226,6.042c-1.6,4.336-10.221,19.235-21.255,25.678v4.7c-.964.78-20.61,16.27-22.1,17.326h-3.461c-1.49-1.056-21.135-16.546-22.1-17.326,0,0,0-2.288,0-4.776a45.954,45.954,0,0,1-12.588-10.93,57.875,57.875,0,0,1-10.982-20.719,8.236,8.236,0,0,1-7-1.755c-4.047-3.311-5.726-7.929-6.751-10.948-1.447-4.262-1.538-11.152.618-14.89a7.061,7.061,0,0,1,6.344-3.525,7.614,7.614,0,0,1,5.5,2.014s-5.667-45.151,48.686-45.151C191.165,36.474,185.631,81.625,185.631,81.625Z"/><path class="b" d="M123.85,284.6a52.916,52.916,0,0,1-4.484-5.256c2.407-22.008,9.807-89.721,9.784-90.807a22.1,22.1,0,0,0-1.276-6.1c-.38-1.219-1.242-3.758-1.938-6.073,3.158-4.255,6.957-9.275,9.278-11.885h3.461c2.45,2.755,6.546,8.2,9.8,12.587-.562,2.048-1.11,4.308-1.435,5.371a22.156,22.156,0,0,0-1.287,6.1c-.011,1.075,7.22,67.467,9.716,90.079,0,0-12.492,14.418-18.056,18.694A135.891,135.891,0,0,1,123.85,284.6Z"/><path class="c" d="M145,183.659c-5.12,0-10.24.107-15.36.109a2.4,2.4,0,1,0,0,4.8c5.12,0,10.24-.107,15.36-.109a2.4,2.4,0,0,0,0-4.8Z"/><path class="c" d="M123.623,177c1,3.311,2.4,6.622,2.988,10.039a8.314,8.314,0,0,1,.077,2.268c-.173,1.876-.376,3.749-.573,5.623q-1.216,11.608-2.485,23.213-1.618,14.988-3.254,29.974-1.428,13.1-2.86,26.206c-.171,1.559-.422,3.133-.514,4.7-.078,1.344.767,2.22,1.557,3.207.684.854,1.406,1.678,2.138,2.491a139.246,139.246,0,0,0,12.174,11.949c.928.8,1.872,1.59,2.843,2.342a2.512,2.512,0,0,0,3.394,0,89.148,89.148,0,0,0,10.207-9.97c2.593-2.787,5.188-5.593,7.652-8.5,1.2-1.416.788-2.942.6-4.639q-.308-2.8-.614-5.591-.744-6.772-1.484-13.546-1.715-15.705-3.417-31.41-1.45-13.4-2.88-26.794c-.276-2.6-.553-5.206-.816-7.81-.063-.621-.143-1.243-.181-1.866-.127-2.072.677-4.1,1.249-6.055.5-1.7.9-3.422,1.36-5.128.809-2.985-3.82-4.259-4.628-1.276-.775,2.86-1.709,5.735-2.348,8.626a14.006,14.006,0,0,0-.433,3.833c.075,1.211.237,2.422.361,3.628q.849,8.2,1.741,16.393,2.578,24,5.208,48,1.185,10.857,2.381,21.713l.7-1.7q-3.405,3.929-6.941,7.744c-3.5,3.79-7.027,7.778-11.115,10.95h3.394a108.7,108.7,0,0,1-10.078-9.124c-1.584-1.58-3.141-3.189-4.646-4.844-.631-.694-1.253-1.4-1.856-2.114-.239-.286-.475-.573-.706-.865.319.4-.291-.4-.383-.533l.327,1.211q2.388-21.829,4.762-43.66c1.52-13.985,3.055-27.968,4.513-41.96.162-1.561.359-3.124.472-4.69a13.65,13.65,0,0,0-.366-3.748c-.675-3.25-1.937-6.392-2.895-9.566-.891-2.949-5.525-1.692-4.629,1.276Z"/><path class="c" d="M111.418,145.457c-1.456,1.642-2.824,3.36-4.2,5.071-1.3,1.618-2.809,3.166-3.953,4.9a8.458,8.458,0,0,0-.508,8.98,110.5,110.5,0,0,0,9.767,13.882,33.331,33.331,0,0,0,7.193,6.933A2.46,2.46,0,0,0,123,184.36c4.566-6.1,8.858-12.471,13.908-18.183a2.446,2.446,0,0,0-.486-3.77c-.305-.218-.6-.449-.9-.678l-.345-.265c-.3-.228.41.318-.024-.019l-1-.772q-2.613-2.034-5.215-4.079-5.613-4.4-11.211-8.822c-.975-.771-1.956-1.535-2.924-2.315a2.473,2.473,0,0,0-3.394,0,2.418,2.418,0,0,0,0,3.394c6.263,5.053,12.633,9.983,18.981,14.928,1.194.93,2.372,1.892,3.6,2.773l-.486-3.769c-5.32,6.017-9.849,12.733-14.659,19.154l3.284-.861c-.214-.14-.424-.285-.632-.434s-.016,0,.023.026c-.127-.1-.252-.2-.375-.3q-.748-.624-1.447-1.3c-.979-.945-1.9-1.95-2.79-2.981-1.882-2.181-3.612-4.488-5.269-6.844-1.413-2.009-2.778-4.053-4.071-6.14-.35-.566-.7-1.135-1.025-1.714a2.306,2.306,0,0,1-.133-.244c.154.379.014-.02.031-.218a6.259,6.259,0,0,1,.439-2.15c.77-1.739,2.406-3.214,3.586-4.683,1.42-1.766,2.83-3.542,4.333-5.238C116.855,146.547,113.473,143.14,111.418,145.457Z"/><path class="c" d="M159.076,148.851c1.314,1.481,2.555,3.024,3.8,4.567,1.147,1.428,2.414,2.8,3.5,4.272a5.7,5.7,0,0,1,.9,1.889,4.136,4.136,0,0,1,.167.987c0,.178-.144,1.028.044.545a9.615,9.615,0,0,1-.805,1.388,105.045,105.045,0,0,1-8.907,12.636c-1.017,1.224-2.071,2.419-3.2,3.542-.5.5-1.017.986-1.555,1.447a7.816,7.816,0,0,1-1.269.952l3.284.861c-4.81-6.421-9.339-13.137-14.659-19.154l-.486,3.769c2.793-2,5.45-4.211,8.151-6.329q5.726-4.491,11.436-9c1-.79,2.006-1.573,3-2.373a2.417,2.417,0,0,0,0-3.394,2.457,2.457,0,0,0-3.4,0c-6.187,4.992-12.481,9.862-18.751,14.75l-1.151.9-.5.39c-.313.243.392-.3-.067.051-.378.29-.753.587-1.14.864a2.446,2.446,0,0,0-.486,3.77c5.05,5.712,9.342,12.088,13.908,18.183a2.448,2.448,0,0,0,3.284.861c5.2-3.4,9.059-9.034,12.556-14.052,1.423-2.043,2.8-4.12,4.094-6.248a10.923,10.923,0,0,0,1.074-2.012,8.621,8.621,0,0,0-.6-6.227c-.922-2.069-2.678-3.74-4.086-5.488-1.555-1.931-3.089-3.881-4.734-5.737C160.417,143.141,157.032,146.546,159.076,148.851Z"/><path class="c" d="M254.667,322.208c-1.148-15.667-2.234-31.338-3.4-47-.721-9.692-1.522-19.376-2.5-29.046-1.595-15.781-4.07-31.692-10.38-46.367a44.6,44.6,0,0,0-13.5-17.431c-6.973-5.552-14.909-9.7-22.981-13.41-5.377-2.468-10.777-4.812-16.367-6.739l-13.519-4.66-.979-.337c-2.927-1.009-4.184,3.626-1.276,4.628,7.832,2.7,15.777,5.154,23.386,8.44,8.227,3.553,16.446,7.34,23.934,12.3,6.085,4.033,11.73,9.032,15.21,15.541,3.7,6.913,5.855,14.709,7.655,22.3a178.941,178.941,0,0,1,3.735,22.97q1.462,14.128,2.518,28.291c1.087,14.3,2.069,28.606,3.108,42.908q.278,3.807.556,7.615a2.459,2.459,0,0,0,2.4,2.4,2.419,2.419,0,0,0,2.4-2.4Z"/><path class="c" d="M64.536,221.133c.279,11.85.459,23.7.634,35.553q.318,21.528.57,43.057.135,11.234.263,22.466c.035,3.087,4.835,3.095,4.8,0q-.236-20.643-.5-41.285-.269-20.736-.607-41.47-.157-9.161-.361-18.321c-.072-3.083-4.872-3.095-4.8,0Z"/><path class="c" d="M208.2,322.209q.148-18.929.336-37.856.216-22.046.5-44.091.132-9.564.312-19.129c.064-3.09-4.736-3.089-4.8,0-.257,12.582-.4,25.166-.544,37.75q-.254,22.06-.443,44.121-.085,9.6-.162,19.2c-.024,3.089,4.776,3.092,4.8,0Z"/><path class="c" d="M36.14,215.83c2.189-7.33,4.8-14.84,9.2-21.172A51.545,51.545,0,0,1,59.432,181.5C69.578,174.781,81,170.1,92.4,165.974q5.55-2.007,11.109-3.992a2.461,2.461,0,0,0,1.676-2.952,2.42,2.42,0,0,0-2.952-1.676c-7.789,2.784-15.61,5.481-23.231,8.7-13.234,5.6-27.166,12.4-36.189,24-5.558,7.143-8.734,15.907-11.3,24.5-.886,2.967,3.746,4.234,4.629,1.276Z"/><path class="c" d="M9.843,227.685q.736,14.6,1.9,29.165c.812,10.332,1.671,20.657,3.158,30.917,1.21,8.34,3.4,17,8.428,23.919a30.68,30.68,0,0,0,9.253,8.631A29.1,29.1,0,0,0,44.2,323.849c8.858.968,18.659-1.422,24.725-8.289,2.038-2.307-1.344-5.715-3.394-3.394-4.831,5.469-12.2,7.387-19.286,7.044a25.119,25.119,0,0,1-10.123-2.425,24.679,24.679,0,0,1-8.322-7.078c-4.844-6.343-6.924-14.391-8.115-22.156-1.475-9.614-2.241-19.323-3.012-29.013q-1.227-15.413-2.029-30.853c-.155-3.074-4.956-3.093-4.8,0Z"/><path class="d" d="M189.557,33.492a43.531,43.531,0,0,0-8.374-9.826l-7.775-6.911C163.329,5.524,149.932,2.419,136.728,2.419A59.843,59.843,0,0,0,99.689,14.6a54.012,54.012,0,0,0-10.438,10.87c-6.768,6.624-12.167,21.094-11.763,35.443a75.277,75.277,0,0,0,2.365,19.261,8.85,8.85,0,0,1,2.9-.558,7.614,7.614,0,0,1,5.5,2.014l2.181,1.529a81.569,81.569,0,0,1,.951-8.747c1.012-6.148,7.393-8.983,10.1-14.472,1.562-3.162,2.491-6.857,5.163-9.107,2.012-1.694,4.7-2.269,7.286-2.541,4.011-.423,17.578.182,22.116,1.02,3.839.215,7.559.982,13.034,1.679,2.969.378,8.477,1.35,10.583,1.772,8.284,1.9,11.457,3.973,15.618,9.609,1.595,2.161,3.292,6.1,4.862,11.234l5.475,8.024a7.614,7.614,0,0,1,5.5-2.014,8.988,8.988,0,0,1,2.7.483,62.523,62.523,0,0,0,2.294-19.186C195.59,48.229,193.5,40.018,189.557,33.492Z"/><path class="c" d="M136.7,46.993A90.893,90.893,0,0,0,124.8,45.924a70.542,70.542,0,0,0-11.25.006,15.726,15.726,0,0,0-8.288,2.955,16.4,16.4,0,0,0-4.456,6.69,22.679,22.679,0,0,1-3.594,6.375c-1.535,1.75-3.274,3.313-4.752,5.115a15.4,15.4,0,0,0-3.538,7.643c-.488,3.161-.726,6.332-.976,9.517a2.42,2.42,0,0,0,2.4,2.4,2.448,2.448,0,0,0,2.4-2.4c.35-4.448.066-9.766,2.886-13.484,2.692-3.548,6.347-6.133,8.256-10.279,1.02-2.216,1.762-4.667,3.229-6.646,1.422-1.919,3.628-2.643,5.9-3.009a53.093,53.093,0,0,1,10.319-.144c2.345.089,4.689.217,7.029.4,1.018.079,2.035.169,3.05.28l.61.069c.042.005.8.105.257.029q.569.079,1.134.18a2.467,2.467,0,0,0,2.952-1.676,2.419,2.419,0,0,0-1.676-2.952Z"/><path class="c" d="M159.038,55.073a37.7,37.7,0,0,1,7.047,2.213,19.862,19.862,0,0,1,2.673,1.577c.091.065.182.132.272.2-.188-.148-.172-.134.047.04q.264.216.52.439c.407.358.8.734,1.177,1.123,3.62,3.733,5.5,8.5,7.068,13.575.908,2.942,5.543,1.687,4.629-1.276a56.24,56.24,0,0,0-3.736-9.567,27.046,27.046,0,0,0-4.567-6.126c-3.759-3.876-8.7-5.63-13.854-6.826-3.006-.7-4.289,3.929-1.276,4.629Z"/><path class="c" d="M151.707,49.4c-.755-3.214-3.272-5.955-5.8-7.925a29.272,29.272,0,0,0-14.414-5.655,2.411,2.411,0,0,0-2.4,2.4,2.462,2.462,0,0,0,2.4,2.4,27.647,27.647,0,0,1,6.669,1.8c-.335-.137.286.128.347.156q.39.177.772.368.686.341,1.349.724.631.366,1.239.772.315.21.622.431c.087.062.586.438.186.128a18.662,18.662,0,0,1,1.9,1.689c.25.256.494.519.728.791.129.149.247.313.381.459q.166.209-.121-.16c.064.086.128.173.191.26a13.342,13.342,0,0,1,.99,1.631c.037.076.185.289.166.358.019-.069-.194-.57-.055-.111.077.255.165.5.226.763a2.4,2.4,0,0,0,4.629-1.276Z"/><path class="c" d="M87.553,23.768c-4.85,4.817-7.868,11.4-9.828,17.863a69.292,69.292,0,0,0-2.5,23.949,74.48,74.48,0,0,0,2.114,14.494c.764,2.991,5.395,1.724,4.629-1.276A74.486,74.486,0,0,1,80,55.537a53.924,53.924,0,0,1,5.43-20.426,30.117,30.117,0,0,1,5.518-7.948c2.2-2.18-1.2-5.574-3.395-3.395Z"/><path class="c" d="M175.105,15.058C166.329,5.376,154.086.9,141.258.149c-12.968-.763-26.439,1.334-37.746,8A43.76,43.76,0,0,0,94.4,15.053a69.3,69.3,0,0,0-7.217,9.2,2.424,2.424,0,0,0,.861,3.284,2.449,2.449,0,0,0,3.284-.861,65.687,65.687,0,0,1,5.893-7.63,36.4,36.4,0,0,1,7.139-5.789,52.053,52.053,0,0,1,16.627-6.847,72.8,72.8,0,0,1,18.011-1.56,55.16,55.16,0,0,1,16.43,2.777,39.1,39.1,0,0,1,16.288,10.824c2.079,2.293,5.465-1.109,3.394-3.394Z"/><path class="c" d="M196.3,80.074a71.281,71.281,0,0,0,2.264-15.268,89.059,89.059,0,0,0-1.014-14.661c-1.008-7.018-3.115-13.97-7.2-19.834a49.737,49.737,0,0,0-7.468-8.342c-2.284-2.072-5.688,1.313-3.394,3.394,4.486,4.07,8.232,8.64,10.431,14.172,2.892,7.271,3.752,15.365,3.858,23.134a63.815,63.815,0,0,1-2.1,16.129c-.735,3,3.893,4.28,4.628,1.276Z"/><path class="c" d="M89.955,79.928A10.666,10.666,0,0,0,78.168,78.3a10.35,10.35,0,0,0-5.2,7.165,27.172,27.172,0,0,0,4.044,20.87c2.927,4.365,7.17,7.566,12.642,6.818a2.413,2.413,0,0,0,1.676-2.952,2.464,2.464,0,0,0-2.952-1.676c-3.833.523-6.8-3.582-8.351-6.506A23.489,23.489,0,0,1,77.209,92.8a20.39,20.39,0,0,1,.236-5.377,10.775,10.775,0,0,1,1.364-3.6c-.154.206.331-.364.389-.427a1.9,1.9,0,0,1,.5-.443,5.206,5.206,0,0,1,2.086-.841,5.55,5.55,0,0,1,4.775,1.213c2.286,2.068,5.691-1.316,3.394-3.394Z"/><path class="c" d="M187.328,83.322a5.607,5.607,0,0,1,7.815.577c-.327-.414.126.22.178.3a7.072,7.072,0,0,1,.494.95,12.244,12.244,0,0,1,.629,2.265,20.39,20.39,0,0,1,.236,5.377,23.5,23.5,0,0,1-2.733,9.068c-1.552,2.971-4.539,7.195-8.433,6.663a2.484,2.484,0,0,0-2.953,1.676,2.417,2.417,0,0,0,1.677,2.952c8.841,1.208,13.976-7.506,16.268-14.785a25.506,25.506,0,0,0,.69-11.533,11.6,11.6,0,0,0-4.362-7.874,10.564,10.564,0,0,0-12.9.965c-2.3,2.077,1.107,5.463,3.394,3.394Z"/><path class="c" d="M182.859,106.524a47.2,47.2,0,0,1-1.812,6.289c-.231.648-.631,1.719-.805,2.124s-.362.8-.527,1.2c-.04.1-.267.681-.108.29.168-.411-.1.235-.14.313-.09.2-.183.4-.277.594-.246.514-.5,1.021-.772,1.525-.6,1.137-1.246,2.252-1.917,3.35a60.55,60.55,0,0,1-13.068,15.5,24.126,24.126,0,0,1-9.71,5.037c-3.008.694-1.735,5.323,1.276,4.628,7.357-1.7,13.482-7.065,18.291-12.643a66.518,66.518,0,0,0,10.29-15.495c.257-.565.483-1.142.724-1.713-.318.754.41-.936.429-.982q.3-.719.573-1.445a48.1,48.1,0,0,0,2.182-7.3,2.46,2.46,0,0,0-1.676-2.952,2.425,2.425,0,0,0-2.953,1.676Z"/><path class="c" d="M86.261,107.627a60.978,60.978,0,0,0,8.631,20.267c4.394,6.593,10.166,12.758,17.148,16.633a33.941,33.941,0,0,0,11.5,3.919,2.48,2.48,0,0,0,2.953-1.676,2.419,2.419,0,0,0-1.677-2.953c-14.456-2.133-25.267-14.665-30.749-27.51a58,58,0,0,1-3.179-9.956c-.682-3.011-5.311-1.737-4.629,1.276Z"/><path class="c" d="M127.946,122.676a19.751,19.751,0,0,0,9.513,2.2,15.454,15.454,0,0,0,9.584-2.82,2.412,2.412,0,0,0,0-3.394,2.462,2.462,0,0,0-3.394,0c.723-.563.144-.12-.042,0s-.389.237-.591.343c-.161.084-.88.373-.236.133-.271.1-.539.207-.815.3a14.138,14.138,0,0,1-2.281.521c.345-.051-.113.009-.238.021-.224.023-.448.041-.672.056-.54.035-1.081.048-1.622.045-.484,0-.968-.019-1.451-.052-.222-.015-.443-.033-.665-.055-.01,0-.8-.109-.343-.038a16.167,16.167,0,0,1-2.13-.473c-.3-.089-.589-.2-.884-.3a1.349,1.349,0,0,1-.285-.111c.484.328.252.113.058.021-.366-.172-.726-.351-1.083-.54a2.453,2.453,0,0,0-3.284.861,2.427,2.427,0,0,0,.861,3.284Z"/><path class="c" d="M136.277,100.216a44.762,44.762,0,0,1,1.055,4.828l-.086-.638a2.911,2.911,0,0,1,.019.666l.085-.638a1.545,1.545,0,0,1-.073.3l.242-.574a1.166,1.166,0,0,1-.106.193l.375-.486a.965.965,0,0,1-.157.156l.485-.375a3.163,3.163,0,0,1-.382.2l.573-.242a2.782,2.782,0,0,1-.644.188l.638-.086a2.551,2.551,0,0,1-.6,0l.638.086c-.228-.032-.452-.087-.68-.118a2.655,2.655,0,0,0-1.849.242,2.4,2.4,0,0,0-.861,3.284,2.3,2.3,0,0,0,1.434,1.1c.512.069,1.01.2,1.531.222a4.879,4.879,0,0,0,2.248-.533,3.229,3.229,0,0,0,1.794-2.13,5.388,5.388,0,0,0-.023-2.3c-.263-1.555-.622-3.1-1.023-4.622a2.4,2.4,0,0,0-4.628,1.276Z"/><path class="c" d="M110.677,86.564c-.806,2.62-.28,8.647,4.683,9.16,6.56-.039,6.909-7.326,4.7-10.752C118.253,82.167,112.936,81,110.677,86.564Z"/><path class="c" d="M163.211,86.564c.807,2.62.281,8.647-4.682,9.16-6.56-.04-6.91-7.326-4.7-10.752C155.635,82.167,160.952,81,163.211,86.564Z"/><path class="a" d="M48.384,175.691c2.05.47,3.98,1,6.13,1.65a8.083,8.083,0,0,1,4.9,4.71c1.58,3.92,1.63,6.37.44,10.8a49.685,49.685,0,0,1-6.9,14.57,21.823,21.823,0,0,1-2.6,3.02c-2.05,1.96-1.78,4.6-2.17,7.59-.22,1.63-.05,3.12-.14,4.29-5.76,2.02-21.77,3.42-29.2,4.16-1.1-3.36-5.51-13.03-6.03-13.55-4.75-4.7-10.19-16.41-10.41-27.46l.25-.02a26.717,26.717,0,0,1,0-2.97c.07-1.42,1.37-5.02,4.26-5.76a5.1,5.1,0,0,1,5.77,1.91l.27.02a26.54,26.54,0,0,1,.5-3.53,6.34,6.34,0,0,1,5.17-4.45c2.41-.38,3.35,1.15,4.56,2.79.01-2.05.87-4.45,2.74-5.44,2.04-1.07,5.45-1.4,7.25.78l.61-.08c-1.34-10.03-2.62-20.69-2.65-23.33a7.164,7.164,0,0,1,6.05-6.76c3.34-.39,6.82,4.53,7.21,6.69,1.77,10.1,2.83,17.49,4.2,29.47Z"/><path class="c" d="M50.992,174.793c-.959-8.4-2.047-16.782-3.434-25.122a39.373,39.373,0,0,0-1.006-5.562,13.163,13.163,0,0,0-2.437-4.184c-2.491-3.056-6.057-4.622-9.823-2.919a9.545,9.545,0,0,0-5.553,8.607c.036,1.662.247,3.331.421,4.982.607,5.786,1.351,11.558,2.111,17.325.8,6.058,1.6,12.121,2.564,18.155a2.417,2.417,0,0,0,2.952,1.676,2.457,2.457,0,0,0,1.676-2.952c-1.623-10.165-2.905-20.226-4.088-30.462-.239-2.068-.472-4.139-.659-6.213-.129-1.435-.425-3.013.188-4.344a4.941,4.941,0,0,1,2.889-2.623,1.621,1.621,0,0,1,1.374-.018,5.7,5.7,0,0,1,1.237.794,9.535,9.535,0,0,1,2.442,3.249c.122.265.022.045,0-.008a3.125,3.125,0,0,1,.108.313c.083.3.139.586.193.888.179,1,.349,2.01.52,3.015,1.431,8.434,2.553,16.905,3.524,25.4a2.473,2.473,0,0,0,2.4,2.4,2.415,2.415,0,0,0,2.4-2.4Z"/><path class="c" d="M14.753,177.417a7.639,7.639,0,0,0-4.493-3.133,8.258,8.258,0,0,0-5.337.646A9.25,9.25,0,0,0,.38,181.46a22.379,22.379,0,0,0,.7,9.2,12.6,12.6,0,0,0,2.273,5.078,7.313,7.313,0,0,0,4.008,2.342c3.686.721,7.178-1.628,8.8-4.852a2.459,2.459,0,0,0-.861-3.284,2.424,2.424,0,0,0-3.284.861,10.123,10.123,0,0,1-.7,1.2c.234-.339-.144.153-.245.254-.081.081-.57.482-.3.285a8.575,8.575,0,0,1-1.438.845c.364-.168-.084,0-.231.044-.043.012-.381.046-.109.023s-.179-.012-.226-.014c-.111,0-.221-.006-.332-.017.438.042.063.006-.027-.024-.217-.071-.442-.114-.654-.2.343.143-.157-.117-.258-.167,0,0-.329-.21-.141-.077.16.114-.177-.152-.21-.185-.092-.089-.422-.461-.36-.376s-.2-.353-.255-.467a14.723,14.723,0,0,1-.651-1.914,20.116,20.116,0,0,1-.87-6.623c0-.23.018-.459.024-.688.009-.411.071-.334-.033.027.11-.38.165-.769.293-1.146.055-.163.221-.544.052-.173.089-.195.182-.387.284-.574s.217-.385.338-.569c.061-.094.125-.187.191-.277.219-.3-.214.226.047-.045.1-.109.208-.22.313-.329.029-.029.359-.32.189-.185-.083.066.386-.24.525-.313-.041.022-.3.108-.035.013a4.687,4.687,0,0,1,.483-.14A1.869,1.869,0,0,1,8.3,178.9a2.513,2.513,0,0,1,1.379.2,2.813,2.813,0,0,1,.929.732,2.476,2.476,0,0,0,3.283.861,2.415,2.415,0,0,0,.861-3.283Z"/><path class="c" d="M25.257,172.247a9.845,9.845,0,0,0-3.527-3.493,7.107,7.107,0,0,0-5.956.32,8.935,8.935,0,0,0-3.759,3.356,11.62,11.62,0,0,0-1.342,5,32.616,32.616,0,0,0,.816,11.691,13.557,13.557,0,0,0,1.495,3.931,8,8,0,0,0,4.933,3.361c3.874.832,9.029-1.845,9.572-6.005a2.411,2.411,0,0,0-2.4-2.4,2.461,2.461,0,0,0-2.4,2.4c.113-.863.17-.518-.091-.215a4.611,4.611,0,0,1-.666.614,9.092,9.092,0,0,1-1.291.769,3.059,3.059,0,0,1-3.416-.845,2.971,2.971,0,0,1-.5-.893c-.221-.6-.41-1.22-.573-1.843a26.356,26.356,0,0,1-.755-4.4,31.162,31.162,0,0,1,.006-5.532,18,18,0,0,1,.4-2.487,3.819,3.819,0,0,1,.125-.379c-.086.207-.091.23-.013.071a5.617,5.617,0,0,1,.449-.729c-.172.222.28-.291.325-.336a3.755,3.755,0,0,1,.666-.541,3.839,3.839,0,0,1,1.627-.635c.533-.057.667-.021.982.252a8,8,0,0,1,1.142,1.39,2.472,2.472,0,0,0,3.284.861,2.418,2.418,0,0,0,.861-3.283Z"/><path class="c" d="M34.867,167.106c-2.452-2.774-6.659-2.813-9.811-1.32-3.2,1.517-4.564,5.413-4.2,8.76.406,3.745,1.047,7.476,1.781,11.169.329,1.656.51,3.3,1.729,4.571A8.848,8.848,0,0,0,29,192.731a7.93,7.93,0,0,0,6.474-1.591,11.852,11.852,0,0,0,2.492-3.5c1.551-2.678-2.6-5.1-4.145-2.422-.276.477-.514.976-.8,1.449-.048.081-.544.756-.259.422-.065.077-.645.6-.4.427a3.376,3.376,0,0,1-3.371.212,4.781,4.781,0,0,1-1.029-.62c.133.084.093.039-.119-.133q-.3-.335-.049-.015-.215-.373.03.119-.066-.288-.129-.578-.135-.619-.262-1.241-.538-2.614-.978-5.248c-.273-1.617-.531-3.237-.728-4.865a6.538,6.538,0,0,1,.34-3.871,3.5,3.5,0,0,1,5.409-.778c2.05,2.319,5.435-1.087,3.394-3.394Z"/><path class="c" d="M48.884,187.448c-2.366-.931-5.2-1.82-7.23-3.394a5.435,5.435,0,0,1-1.7-2.626,3.383,3.383,0,0,1-.183-1.223c.017-.7-.093.17.054-.487,0,0,.219-.659.126-.451.665-1.5,2.445-2.054,4.267-1.944,2.914.176,5.971,1.238,8.759,2.063a6.247,6.247,0,0,1,4.429,4.093,12.24,12.24,0,0,1,.561,7,43.191,43.191,0,0,1-6.485,14.89c-1.649,2.448-4.2,4.2-4.993,7.153-.849,3.161-.654,6.567-.846,9.8l1.762-2.315c-4.3,1.476-9.017,1.944-13.507,2.493-5.009.613-10.034,1.08-15.056,1.578l2.315,1.762a91.02,91.02,0,0,0-5.768-13.261,8.123,8.123,0,0,0-1.336-1.814,21.685,21.685,0,0,1-2.4-3.178,45.783,45.783,0,0,1-6.85-22.12c-.081-3.083-4.882-3.095-4.8,0a49.767,49.767,0,0,0,6.244,22.412A34.692,34.692,0,0,0,8.8,211.886c.475.636.964,1.267,1.488,1.864.18.2.36.411.553.6.3.3.114.379.117.074,0,.117-.181-.388-.1-.114a15.618,15.618,0,0,0,1.033,2c.546,1.128,1.069,2.267,1.584,3.41a76.809,76.809,0,0,1,3.048,7.4,2.44,2.44,0,0,0,2.314,1.762c5.139-.51,10.281-.987,15.406-1.621,4.785-.591,9.845-1.047,14.433-2.621a2.5,2.5,0,0,0,1.762-2.314c.1-1.708.059-3.392.237-5.1a12.959,12.959,0,0,1,.678-4.133c.557-1.195,1.9-2.172,2.718-3.2a34.391,34.391,0,0,0,2.544-3.66,56.513,56.513,0,0,0,4.259-8.779,27.878,27.878,0,0,0,2.2-9.673,15.5,15.5,0,0,0-3.093-9.4c-2.048-2.564-4.874-3.411-7.925-4.24-3.255-.886-6.8-2-10.2-1.453a8.159,8.159,0,0,0-6.173,4.408c-1.492,3.252-.43,6.961,1.822,9.59a13.22,13.22,0,0,0,4.548,3.045c1.812.864,3.679,1.616,5.547,2.352A2.417,2.417,0,0,0,50.56,190.4a2.456,2.456,0,0,0-1.676-2.953Z"/></svg>