<svg xmlns="http://www.w3.org/2000/svg" width="152" height="152" fill="none" xmlns:v="https://vecta.io/nano"><style><![CDATA[.B{fill:#f8a180}.C{fill:#fff}.D{fill:#05a9e1}.E{fill:#0f1341}.F{fill:#087b96}.G{fill:#f8cdb0}.H{fill:#515271}]]></style><g class="D"><path opacity=".1" d="M76 152c41.974 0 76-34.026 76-76S117.974 0 76 0 0 34.026 0 76s34.026 76 76 76z"/><path d="M130.54 134.94h.06c.059-.007.117-.026.168-.056s.098-.07.134-.117a.46.46 0 0 0 .088-.337l-4.69-30.32a.46.46 0 0 0-.182-.296c-.098-.071-.219-.101-.338-.084a.47.47 0 0 0-.293.185c-.071.096-.102.216-.087.335l4.69 30.27a.45.45 0 0 0 .142.299c.084.078.194.121.308.121z"/></g><path d="M66.37 59.34h.18a5.75 5.75 0 0 0 4.39-3.7l.09-.11a2 2 0 0 1-.46-1.24c0-.91.47-1.63 1.13-1.61a1.08 1.08 0 0 1 .67.3 1.61 1.61 0 0 1 .35.48c.14 0 .21-.44.23-.55v-.81a3.72 3.72 0 0 1 .55-1.28l.09 4.17a4.62 4.62 0 0 1-1.88 3.56 5.16 5.16 0 0 1-1.69.88c-.33.55-.618 1.126-.86 1.72a6.28 6.28 0 0 1-1.28 2 1.79 1.79 0 0 1-1.13.28c-1.26 0-2.87.16-3.69-.81-.18-.21.53-1.3.84-1.81s.68-.93 1-1.47a4.38 4.38 0 0 0 .26-.53 4.78 4.78 0 0 0 .63.45 1 1 0 0 0 .58.08z" class="B"/><path d="M60.25 52.04c-.15-1.19.81-1.9 1-3.07a4.44 4.44 0 0 1 .8-1.65c.52-.68 1.05-.56 1.79-1a2.4 2.4 0 0 0 .7-.91.81.81 0 0 1 .93-.44 2 2 0 0 0 .72.08.67.67 0 0 0 .62-.62c0-.34.33-1.32 1.82-1 1.24.28 1.07 1.07 2.66 1.3a4.25 4.25 0 0 1 2.6 1.83 4.58 4.58 0 0 1 .16 3.14 15.78 15.78 0 0 0-1.08 2.33c0 .27 0 1.32-.27 1.36-.72-1.42-2.22-.76-2.15.83a2 2 0 0 0 .44 1.3l-.09.11a5.77 5.77 0 0 1-4.57 3.74 1 1 0 0 1-.53-.07c-.81-.37-.21-.56-2-.78a1.65 1.65 0 0 1-1.22-.57 2 2 0 0 1-.09-1.5c-1.15-.77-.62-1-.81-2s-1.32-1.45-1.43-2.41z" fill="#000"/><g class="D"><path d="M94.92 135.04h-.09a.46.46 0 0 1-.35-.54l6.15-30.12a.46.46 0 0 1 .068-.163c.034-.05.076-.092.126-.125s.105-.056.164-.068a.46.46 0 0 1 .34.069c.05.034.092.076.125.126s.056.105.067.164a.44.44 0 0 1 0 .177l-6.16 30.12a.45.45 0 0 1-.156.258c-.08.066-.18.102-.284.102z"/><path d="M100.35 103.24c0 .265.105.52.293.707s.442.293.707.293h26.4a1 1 0 0 0 .455.016c.151-.029.293-.093.415-.187s.221-.213.289-.351a1 1 0 0 0 0-.886c-.068-.138-.167-.258-.289-.351s-.264-.158-.415-.187a1 1 0 0 0-.455.016h-26.4c-.254-.001-.498.095-.683.268a1 1 0 0 0-.317.662z"/></g><path d="M11.67 134.81h-.07a.44.44 0 0 1-.168-.06c-.051-.031-.096-.071-.132-.12s-.061-.103-.075-.162a.45.45 0 0 1-.006-.178l4.32-28.93a.46.46 0 0 1 .52-.38c.059.009.117.029.168.06a.47.47 0 0 1 .132.12c.036.048.061.103.075.162a.45.45 0 0 1 .006.178l-4.32 28.93a.46.46 0 0 1-.45.38zm13.25-.29h-.07a.44.44 0 0 1-.168-.06c-.051-.031-.096-.071-.132-.12s-.061-.103-.075-.162a.45.45 0 0 1-.006-.178l4.32-28.93c.009-.059.029-.116.06-.168s.072-.096.12-.131.103-.061.162-.075.119-.016.178-.006a.46.46 0 0 1 .38.51l-4.33 28.94a.44.44 0 0 1-.44.38zm59.75 0a.45.45 0 0 1-.45-.38L79.9 105.2a.43.43 0 0 1 .004-.179.45.45 0 0 1 .073-.164.44.44 0 0 1 .132-.122c.052-.031.109-.052.169-.061a.45.45 0 0 1 .34.089.45.45 0 0 1 .172.307L85.11 134a.45.45 0 0 1-.081.34c-.035.048-.08.089-.132.12s-.109.051-.168.06h-.06z" class="F"/><path d="M32.6 101.76c-.154.001-.303-.054-.419-.155a.63.63 0 0 1-.211-.395l-2.09-15.33a.64.64 0 0 1 .54-.72.65.65 0 0 1 .72.55l2.09 15.33a.64.64 0 0 1-.55.71l-.08.01z" fill="#84bbe6"/><path d="M12.99 104.73c0 .137.027.272.081.397s.133.239.232.332.217.166.345.213.265.066.401.058h36.16a1 1 0 0 0 .455.016c.151-.029.293-.093.415-.187s.221-.213.289-.351a1 1 0 0 0 0-.886c-.068-.138-.167-.258-.289-.351s-.264-.158-.415-.187a1 1 0 0 0-.455.016H14.05c-.264-.016-.523.072-.722.246a1 1 0 0 0-.338.684z" class="D"/><path d="M12.46 92.16h16.53a2.64 2.64 0 0 0 1.993-.903 2.64 2.64 0 0 0 .627-2.097l-2.39-16.92a3.77 3.77 0 0 0-3.47-3.27H9.47a2.68 2.68 0 0 0-2.042 1.035 2.68 2.68 0 0 0-.498 2.235l2.45 17.25a3.13 3.13 0 0 0 3.08 2.67z" class="F"/><path d="M14.46 92.16H31.1a2.44 2.44 0 0 0 1.853-.844 2.44 2.44 0 0 0 .567-1.956l-2.43-17.15a3.77 3.77 0 0 0-3.47-3.27H11.34a2.68 2.68 0 0 0-2.043 1.035A2.68 2.68 0 0 0 8.8 72.21l2.43 17.13a3.29 3.29 0 0 0 3.23 2.82z" class="D"/><path d="M20.36 98.19a2.13 2.13 0 0 0 .27.1l-.27-.1z" fill="#fab188"/><path d="M38.61 113.49l-.15 18.12 2.25.69.66-.42.12-1.26 2.77-17.96-5.65.83z" class="B"/><path d="M45.54 106.7c.3-10.75-9.3-12.87-17.76-14.73h-.1l-2.27-.51a17.2 17.2 0 0 1-2-.71c-2.82-1.12-4.62-1.74-6-.44a2.91 2.91 0 0 0-.91 2.13c0 3.61 1.89 9.67 4.76 10.61l13.24 1.9c.92.18 1.57 1.81 1.66 3.3l1 19.43c.06 1.27.4 1.69 1.64 1.56l4.13.16c1.09-.11 1.13-1.25 1.16-2.37.09-1.68 1.39-18.27 1.45-20.33z" fill="#2f3b4d"/><path d="M51.42 112.08l1.1 19.89 2.63.7.77-.65.03-1.03 1.29-20.07-5.82 1.16z" class="B"/><path d="M59.19 110.69l-.18-5.31c-.32-10.12-11.63-12.12-21.61-13.89l-2.82-.51c-.825-.181-1.64-.408-2.44-.68-3.27-1-5.34-1.61-6.67-.52a2.13 2.13 0 0 0-.8 1.79c.23 3.39 2.77 9.08 6.1 9.95l15.66 2.15a3.79 3.79 0 0 1 1.844 1.153c.489.557.804 1.244.906 1.977.21 1.51 1.9 19.35 2.08 21.14.08.89.22 1.52 1.13 1.43l5.06-.05c.86-.08 1.21-.85 1.18-1.7 0-.1.56-16.84.56-16.93z" fill="#2f3b4d"/><path d="M14.53 69.84c-.91-3.63 3-8 7-8.73 4.94-.93 5.33-1 8.51 1 3.53 2.17 3.35 8 3.21 10.8-.74 14.73 3 10.57 3.26 17.48 0 .86-.1 1.12-1.09 1.17-5.65.29-8.7 4.22-16.62 3.38a5.3 5.3 0 0 1-2.07-.91 2.78 2.78 0 0 1-.61-1.3 15.09 15.09 0 0 1-.49-4.73c.44-8.48-.01-13.83-1.1-18.16z" class="C"/><path d="M25.75 66.2l-3.51-2.21c-.76-.47-1.06-1.29-.66-1.81a3.1 3.1 0 0 1 2.43-1.26c1.21 0 3.53.53 3.5 1.77-.006 1.057-.083 2.113-.23 3.16-.06.61-.86.79-1.53.35z" class="B"/><path d="M45.19 132.67l-.8-.25-5.17-1.61c-.3-.09-.66 0-.72.2l-.34 1.12-.61 2c0 .18.18.34.49.34h6.4c1.68.05 2.24-1.33.75-1.8zm14 .22l-.8-.25-5.17-1.62c-.29-.09-.65 0-.71.21l-.34 1.11-.61 2c-.06.18.17.35.48.35h6.4c1.69.01 2.24-1.33.75-1.8z" fill="#151b28"/><path d="M83.44 76.7l-5.2-5-2.93 3.54a52.6 52.6 0 0 0 7.41 6.39c.25.16 2.22.9 3.17-.63 2.72-3.31 5.55-7.56 8-11.08l-.45-1.29c-3.14 2.52-5.62 5.61-8.45 8.24a1.28 1.28 0 0 1-1.55-.17zm.05 47.68l-1.23 6.51 2.99.87 1.78-7.5-3.54.12z" class="B"/><path d="M77.32 103.36H57.16l.2-.81-1.64-10.64.86.25c1.36.38 5.18 0 6.56-.26v-.06l.63-.09c5.58-.74 19.51-2 28.23 1.89l-.18.57.22-.55a6.52 6.52 0 0 1 3.64 7.59c-1 4.22-3.07 12.76-4.93 22.56a1.68 1.68 0 0 1-1.59 1.39l-4.94.15a1.61 1.61 0 0 1-.663-.14c-.209-.093-.395-.229-.547-.4-.163-.176-.288-.385-.366-.612a1.71 1.71 0 0 1-.084-.708c.45-5.78 1.52-11.8 2.38-16.64l.3-1.7a1.54 1.54 0 0 0-.024-.639c-.053-.209-.148-.405-.281-.574s-.3-.31-.49-.411a1.54 1.54 0 0 0-.615-.176 49.45 49.45 0 0 0-6.51.01z" class="C"/><g fill="#fba823"><path d="M57.88 65.42s5.08-8.25 15.74-1.34a5.94 5.94 0 0 1 1.31 1.29c.55.75 0 1.69.1 2.75.016 2.249-.148 4.497-.49 6.72-.72 3.93-.34 7-.34 10.56 0 1.88.85 6 1 8a6.93 6.93 0 0 1-.9 2.65 14.64 14.64 0 0 1-7.07 2.63c-3.6.33-4-2.15-10.65-1.87a1.59 1.59 0 0 1-1.65-1.45c-.8-8 .82-12.81 1.82-24.62a9.56 9.56 0 0 1 1.13-5.32z"/><path d="M72.43 63.7c1.81 1.06 1.36.23 2.72 1.84 2.59 3 6.62 6.51 7.18 8.4.39 1.34-1.87 4-3.45 4.79a1 1 0 0 1-1.14-.22c-.36-.39-.89-1-1.2-1.28-.13-.15-.27-.29-.4-.42-2-2-3.84-4-5.85-5.9-1.59-1.5-1.47-4.19-.65-6.25a2 2 0 0 1 1.173-1.118 2 2 0 0 1 1.617.118v.04z"/></g><path d="M78.6 79a1.16 1.16 0 0 1-.84-.37l-1.2-1.28-.07-.07-.33-.35-2-2-3.88-3.89c-.032-.029-.051-.07-.053-.113s.014-.085.043-.117.07-.051.113-.053.085.013.117.043l3.89 3.9 2 2 .34.35.07.08 1.19 1.28a.84.84 0 0 0 .94.2c1.61-.75 3.74-3.4 3.38-4.61a.15.15 0 0 1-.009-.064c.001-.022.008-.043.018-.062a.15.15 0 0 1 .101-.075c.02-.008.042-.011.064-.009s.043.008.062.018.035.025.048.042a.15.15 0 0 1 .026.059c.44 1.48-1.93 4.23-3.55 5a1.1 1.1 0 0 1-.47.09z" fill="#ab8433"/><path d="M65.14 124.67l-1.23 6.51 3.02.24 1.76-6.87-3.55.12z" class="B"/><path d="M82.25 130.91a43.09 43.09 0 0 1 6.63 1.81c1.49.48 1 2-.71 2l-6.39.09c-.31 0-.54-.18-.49-.37l.88-3.41c.017-.046.044-.087.08-.12zm-18.1-.11a42.73 42.73 0 0 1 6.62 1.81c1.5.48 1 2-.7 2l-6.39.09c-.31 0-.55-.18-.49-.37l.88-3.41a.21.21 0 0 1 .08-.12z" class="E"/><path d="M72.24 98.23l-1.1.52c-.19 2-1.16 4.42-2.43 8.54-1.41 4.58-3.17 10.27-4.29 15.81a2.06 2.06 0 0 0 .46 1.76c.207.237.462.426.748.556s.598.195.912.194l4.07-.06a2.14 2.14 0 0 0 1.237-.419c.359-.266.625-.637.763-1.061 2.31-7.1 4.27-12.15 5.84-16.2 1.113-2.669 2.071-5.4 2.87-8.18l.13-.55-9.21-.91z" class="C"/><path d="M53.05 91.16h17.1a2.71 2.71 0 0 0 2.013-.901 2.71 2.71 0 0 0 .677-2.099l-2-16.92a3.64 3.64 0 0 0-3.38-3.27H51.18a2.76 2.76 0 0 0-2.068 1.029 2.76 2.76 0 0 0-.562 2.241l2.07 17.82a2.42 2.42 0 0 0 2.43 2.1z" class="F"/><path d="M52.3 91.16h16.69a2.51 2.51 0 0 0 1.872-.842 2.51 2.51 0 0 0 .618-1.958l-2-17.15a3.65 3.65 0 0 0-3.39-3.27H49.81a2.75 2.75 0 0 0-2.066 1.029 2.75 2.75 0 0 0-.554 2.241l2 17.14a3.18 3.18 0 0 0 3.11 2.81z" class="D"/><g class="B"><path d="M92.43 69.26a3.25 3.25 0 0 1 .77-.87 2.73 2.73 0 0 1 .72-.32l1.34-.44a5.16 5.16 0 0 1 .67-.2.26.26 0 0 1 .15 0 .24.24 0 0 1 .07.2.42.42 0 0 1-.11.18 1.34 1.34 0 0 1-.47.28l-.75.3a.87.87 0 0 0-.44.31c-.004.02-.004.04 0 .06 0 .07.1.07.15 0l1.45-.73a.71.71 0 0 0 .22-.13 1.82 1.82 0 0 0 .44-.66c.07-.14.19-.28.31-.22a.35.35 0 0 1 .11.32 2.25 2.25 0 0 1-.11.52l-.53 1.6a2 2 0 0 1-.24.48 1.13 1.13 0 0 1-.83.41h-.93a1.25 1.25 0 0 0-.86.33c-.28.28-.71.64-1.24.16s-.31-.81 0-1.28l.11-.3zm14.11-2.13l.51 1.72-1.41.35-.17-1.52 1.07-.55z"/><path d="M105.74 65.59c-.185-.288-.422-.539-.7-.74a.16.16 0 0 0-.19.006c-.027.021-.047.051-.056.084s-.006.068.006.1c.07.17.3.58.18.72s-.17 0-.24-.06l-.9-.91c-.059-.091-.149-.158-.254-.19a.46.46 0 0 0-.316.02c-.45.11-.7.22-.73.82a2.91 2.91 0 0 0 .37 1.64c.399.366.879.632 1.4.776a3.42 3.42 0 0 0 1.6.054c.41-.14.9-.61.58-1.06-.277-.403-.528-.824-.75-1.26z"/></g><g class="C"><path d="M107.35 80.93l7.29-14.83c1.93 2.13 2.46 7 1.53 9.71l-5.75 7.1c-.366.432-.872.722-1.43.82h-.11c-1.75.33-2.42-1.13-1.53-2.8z"/><path d="M106.99 82.41l-2.6-12.25a1.17 1.17 0 0 1 .83-1.37l1.23-.35a1.17 1.17 0 0 1 1.43.77l2.74 8.71-3.63 4.49zm22.11 1.44a2.14 2.14 0 0 0 .875-1.108c.158-.458.156-.956-.005-1.412-2.23-7.77-5-14.79-3.8-15 5-.65 6.52 4.58 6.79 5.37 4.5 13.16 3.89 12.88 3.1 14.66-1.21 2.72-12.3 3.46-15 3.51-.3 0-.57-.35-.59-.74-.2-4.53-1.34-1.71 8.63-5.28z"/></g><path d="M129.61 43.26c.635.555 1.341 1.022 2.1 1.39.69.24 1.46.21 2.16.41s1.42.76 1.31 1.44c0 .32-.28.59-.33.91-.15.9 1 1.43 1.74 2.05a2.77 2.77 0 0 1 .9 2.79c-.19.71-.68 1.45-.36 2.12s1 .83 1.07 1.4c.13.84-1.13 1.28-1.41 2.08-.19.57.15 1.17.29 1.75a2.8 2.8 0 0 1-1.21 2.94 5.78 5.78 0 0 0-1.55 1c-.49.62-.38 1.55-1 2.09-1.22 1.13-2.61-.25-4.16-.54-1.94-.37-4.23 1.08-5.77-.08-.36-.27-.65-.68-1.11-.76s-.92.21-1.39.18c-.88-.07-1.26-1.16-2-1.62-.07 0-.5-.21-.57-.22-4.79-2-7.9-5.74-7.3-9.56.49-3.17 3.4-5.61 7.35-6.67a.48.48 0 0 0 0-.12 3.89 3.89 0 0 1 .864-1.284c.371-.366.812-.654 1.296-.846 1.82-.87 3.36.29 5-.24.63-.2 1-.84 1.57-1.11a2.5 2.5 0 0 1 1.324-.096c.442.088.852.294 1.186.596zm-24.31 59.57c5.39.06 19.39.19 24.56-.27 6.06-.54 4.45-11.82-1.65-12-12.13-.32-25 1.23-30.18 4.23-2.72 1.57-2.29 7.41.66 8.17 2.19.392 4.437.348 6.61-.13z" fill="#000"/><path d="M132.38 94.52c2.39-2.1-.57-8.39.68-19.47.42-3.71-2.86-10-6.08-10.74-4.17-.94-6.75-2.05-9.14-.55a10.22 10.22 0 0 0-2.34 1.55c-2.82 2.47-.73 6.63.59 10.06 3.41 8.88-.33 7.86.27 14.13.12 1.2-1.58 1.85-.27 2 4.5.41 8 4.48 14.17 3.62a4.53 4.53 0 0 0 2-.61l.12.01z" class="C"/><path d="M116.27 89.6c-.02 0-.039-.007-.053-.02s-.025-.031-.027-.05a10.84 10.84 0 0 1 .61-5.09c.63-2 1.18-3.66-.88-9l-.42-1.07c-1.27-3.2-2.72-6.82-.14-9.08a10.24 10.24 0 0 1 1.55-1.13.08.08 0 0 1 .024-.02c.01-.005.02-.007.031-.007s.021.002.031.007.018.011.024.02v.11c-.549.317-1.065.689-1.54 1.11-2.49 2.18-1.06 5.75.19 8.9l.42 1.07c2.08 5.42 1.5 7.22.88 9.13-.588 1.597-.793 3.309-.6 5 .001.01.001.02-.002.03s-.008.019-.015.026-.014.014-.024.018-.019.006-.029.006l-.03.04z" class="G"/><path d="M117.7 57.32h.85a.07.07 0 0 0 .07-.07v-.11a.07.07 0 0 0-.07-.07h-.85a.07.07 0 0 0-.07.07v.11a.07.07 0 0 0 .07.07z" class="C"/><path d="M122.76 57a1.84 1.84 0 0 0 2 0c.245-.277.403-.621.453-.987a1.88 1.88 0 0 0-.173-1.073 8.92 8.92 0 0 0-1.67-2.41 6.04 6.04 0 0 0-.16-1l-.36.33a5.49 5.49 0 0 1-.4-.66c-.49-1-.63-2.27-1.53-2.93a3 3 0 0 0-2-.43 16.54 16.54 0 0 0-2.44.39l-1.76.38a.4.4 0 0 0-.19.07.51.51 0 0 0-.12.2c-.07.19-.26.55-.37.85a.94.94 0 0 0-.06.41c.09.33.5.34.78.35a6.62 6.62 0 0 1 2.87.796 6.63 6.63 0 0 1 2.23 1.974c.51.78.79 1.7 1.32 2.47a4.56 4.56 0 0 0 1.1 1.09 1.11 1.11 0 0 1-.388.346 1.13 1.13 0 0 1-.502.134h-.06l.53 1.68a5.19 5.19 0 0 0 .58-1.2c.18-.26.25-.55.32-.78zm-8.77-4.2h-.81a.26.26 0 0 0-.094.03c-.029.016-.054.038-.075.064a.26.26 0 0 0-.044.088.25.25 0 0 0-.007.098.26.26 0 0 0 .055.184c.04.052.1.087.165.096h.81c.065-.01.125-.044.165-.096a.26.26 0 0 0 .055-.184.25.25 0 0 0-.007-.098.26.26 0 0 0-.044-.088c-.021-.026-.046-.048-.075-.064a.26.26 0 0 0-.094-.03z" class="E"/><path d="M115.4 56.17l-.47-.15a.56.56 0 0 1-.234-.189c-.06-.083-.097-.18-.106-.282v.09a.59.59 0 0 0 .31.77l.47.15c.27.09.52-.19.46-.51V56a.33.33 0 0 1-.43.17z" fill="#f3764c"/><path d="M117.44 54.52c.17 0 .32-.21.32-.48s-.15-.48-.32-.48h-.53l.26.26c-.015.073-.015.148 0 .22-.04.31.1.48.27.48zm-3.77-.92h-.54l.26.26a.81.81 0 0 0 0 .22c0 .27.14.48.32.48s.31-.21.31-.48-.18-.48-.35-.48z" class="E"/><path d="M121.48 57.24c.176-.005.348-.05.502-.134s.288-.202.388-.346a4.56 4.56 0 0 1-1.1-1.09c-.53-.77-.81-1.69-1.32-2.47-.584-.819-1.347-1.494-2.23-1.974a6.62 6.62 0 0 0-2.87-.796c-.28 0-.69 0-.78-.35a.94.94 0 0 1 .06-.41 4.31 4.31 0 0 0-1.24 3v3.47c.011 1.142.473 2.234 1.286 3.036a4.32 4.32 0 0 0 3.054 1.244h.44l1.07 3.36a1.27 1.27 0 0 0-.68 1.05c.015 1.068.099 2.133.25 3.19.07.61.87.78 1.55.34l3.51-2.25c.76-.47 1.06-1.31.66-1.82a3.84 3.84 0 0 0-.57-.57l-1.53-4.8-.53-1.68h.08zm-4.57-3.64h.53c.17 0 .32.21.32.48s-.15.48-.32.48-.31-.21-.31-.48c-.015-.072-.015-.147 0-.22l-.22-.26zm.06-1.48h1a.28.28 0 0 1 .198.082c.052.053.082.124.082.198.001.037-.005.074-.018.109s-.035.066-.061.092-.058.047-.092.06-.072.02-.109.019h-1a.28.28 0 0 1-.198-.082c-.053-.053-.082-.124-.082-.198a.28.28 0 0 1 .026-.11.29.29 0 0 1 .066-.092c.028-.026.06-.046.096-.06s.074-.02.112-.018h-.02zm-3.3 2.44c-.18 0-.32-.21-.32-.48a.81.81 0 0 1 0-.22l-.26-.26h.54c.17 0 .31.21.31.48s-.1.44-.27.44v.04zm.27-1.2h-.81c-.065-.01-.125-.044-.166-.096s-.06-.118-.054-.184a.25.25 0 0 1 .007-.098.26.26 0 0 1 .044-.088c.021-.026.046-.048.075-.064s.061-.026.094-.03h.81c.033.004.065.014.094.03s.054.038.075.064a.26.26 0 0 1 .044.088.25.25 0 0 1 .007.098.26.26 0 0 1-.17.28h-.05zm1.4 3.2l-.47-.15a.59.59 0 0 1-.31-.77v-.09c.009.102.046.199.106.282a.57.57 0 0 0 .234.189l.47.15a.33.33 0 0 0 .39-.17v.05c.1.32-.15.6-.42.47v.04z" class="B"/><path d="M116.99 52.68h1c.037.001.074-.005.109-.019a.27.27 0 0 0 .092-.06c.026-.026.047-.058.061-.092s.019-.072.018-.109c0-.074-.03-.145-.082-.198s-.124-.082-.198-.082h-1a.29.29 0 0 0-.195.085c-.052.052-.083.122-.085.195s.029.145.082.198.124.082.198.082z" class="E"/><path d="M112.36 96.63a3.43 3.43 0 0 0-1.376-1.255 3.42 3.42 0 0 0-1.828-.351c-.63.054-1.234.281-1.743.656a3.43 3.43 0 0 0-1.143 1.47l-.49 1.12a7 7 0 0 0-.52 3.71c1.16 8.78 1.92 20.63.94 30.83h2.72l.71-1c.33-1.18.15-.09.86-6 .72-6.17 2.42-21.17 2.35-24.85-.05-1.44.36-3.03-.48-4.33zm-14.94-.19a3.45 3.45 0 0 1 4.949-.941 3.45 3.45 0 0 1 1.151 1.461l.54 1.12a7.23 7.23 0 0 1 .67 3.71c-1.013 10.256-.929 20.591.25 30.83h-2.71l-.43-1.1c-2-8.26-4.62-27-4.7-30.7-.04-1.51-.51-3.08.28-4.38z" class="B"/><g fill="#fba823"><path d="M98.05 132.85l6.15-2.09c.31-.11.68 0 .74.22l1 3.39c.06.2-.18.38-.49.39l-6.62.07c-1.74.02-2.32-1.46-.78-1.98z"/><path d="M110.19 132.02l-.29-1.28c-.021-.056-.053-.108-.095-.151s-.091-.077-.147-.1-.115-.033-.175-.031a.43.43 0 0 0-.173.042l-4.26 1.91-.65.29c-1.23.55-.77 2.1.62 2.08l5.29-.07c.054.005.109-.002.16-.021s.097-.05.134-.089.066-.087.083-.139.021-.107.013-.161l-.51-2.28z"/></g><path d="M121.1 89.99a.8.8 0 0 1-.67-.81c0-.55-.07-1-.1-1.35-.16-1.61-.12-1.65 1.77-2.05a49.74 49.74 0 0 0 7-2c.327-.15.582-.423.71-.76a2.25 2.25 0 0 0 .11-1.66l-2.08-6.76-1.56-5.12h.16l1.55 5.11 2.08 6.76a2.4 2.4 0 0 1-.12 1.77 1.47 1.47 0 0 1-.311.508 1.46 1.46 0 0 1-.489.342 50.28 50.28 0 0 1-7 2c-1.79.38-1.79.38-1.64 1.87 0 .36.07.81.1 1.36 0 .36.26.66.51.66 2.85-.05 13.7-.81 14.88-3.46l.15-.33c.69-1.45.95-2-3.25-14.27v-.11c-.268-.861-.644-1.684-1.12-2.45l.13-.09a11.02 11.02 0 0 1 1.14 2.49v.11c4.22 12.34 4 12.9 3.24 14.39l-.14.32c-1.22 2.73-12.16 3.51-15 3.56l-.05-.03z" class="G"/><path d="M29.79 56.72h.87a.09.09 0 0 0 .09-.09v-.13a.09.09 0 0 0-.09-.09h-.87a.09.09 0 0 0-.09.09v.13a.09.09 0 0 0 .09.09z" class="C"/><path d="M115.92 89.52c-.04.072-.062.153-.063.235a.49.49 0 0 0 .055.237.51.51 0 0 0 .16.183.5.5 0 0 0 .228.086 6.36 6.36 0 0 0 4.23-.72l-.22-2.29c-.78.16-3.32.68-4.39 2.27z" class="B"/><path d="M117.11 90.41c-.018.001-.036-.005-.051-.016s-.024-.026-.029-.044c-.01-.015-.015-.032-.015-.05s.005-.035.015-.05l1.34-.42a.08.08 0 0 1 .038-.004c.013.002.025.006.035.014s.02.017.026.029.009.024.009.037-.003.026-.009.037-.015.021-.026.029-.022.012-.035.014a.08.08 0 0 1-.038-.004l-1.34.43h.08zm-.56-1.59c-.017 0-.033-.005-.047-.014s-.026-.021-.033-.036-.004-.021-.002-.032.005-.021.01-.031.013-.017.022-.024.019-.011.03-.013l.92-.3c.01-.003.021-.004.032-.002a.08.08 0 0 1 .031.011.1.1 0 0 1 .024.022c.007.009.011.019.013.03.011.014.017.032.017.05s-.006.036-.017.05l-.92.29h-.08zm-.37 1.46c-.011.005-.023.008-.035.008s-.024-.003-.035-.008a.08.08 0 0 1 0-.11l1.76-.68a.07.07 0 0 1 .031-.007c.011 0 .022.003.031.007s.019.012.025.02.011.019.013.029.012.014.015.023.006.018.006.027-.002.019-.006.027-.008.016-.015.023l-1.76.68-.03-.04zm-.29-.63a.08.08 0 0 1-.04.011.08.08 0 0 1-.04-.011c-.012-.016-.019-.035-.019-.055s.007-.039.019-.055l1.64-.61c.006-.007.014-.012.023-.016s.018-.005.027-.005.019.002.027.005a.06.06 0 0 1 .023.016c.014.015.022.035.022.055a.08.08 0 0 1-.022.055l-1.64.62-.02-.01z" fill="#f26951"/><path d="M120.31 87.25l-3.14.13c-.074 0-.145.029-.198.082s-.082.124-.082.198.03.145.082.198.124.082.198.082l2.38-.1c.036 0 .071-.007.104-.022s.063-.035.087-.062.043-.057.055-.091.017-.07.014-.106c0-.11.34-.22.48-.27l.02-.04z" class="B"/><path d="M54.46 104.23a1 1 0 0 0 1 1h26.4a1 1 0 0 0 .455.016c.151-.029.293-.093.415-.187s.221-.213.289-.351a1 1 0 0 0 0-.886c-.068-.138-.167-.258-.289-.351s-.264-.158-.415-.187a1 1 0 0 0-.455.016h-26.4c-.254-.001-.498.095-.684.268s-.299.409-.316.662z" class="D"/><path d="M51.58 134.81h-.07a.44.44 0 0 1-.168-.06c-.051-.031-.096-.071-.132-.12a.44.44 0 0 1-.075-.162.45.45 0 0 1-.006-.178l4.32-28.93a.46.46 0 0 1 .52-.38.47.47 0 0 1 .38.52l-4.36 28.93a.44.44 0 0 1-.41.38zm13.24-.29h-.06a.44.44 0 0 1-.168-.06c-.051-.031-.096-.071-.132-.12a.44.44 0 0 1-.075-.162.45.45 0 0 1-.006-.178l4.32-28.93a.45.45 0 0 1 .18-.285c.095-.068.212-.096.328-.08a.45.45 0 0 1 .382.495l-4.32 28.94a.45.45 0 0 1-.45.38zm-9.39-30.93a.31.31 0 0 1-.32-.27l-2.38-14.8a.32.32 0 0 1 .151-.328.32.32 0 0 1 .119-.042.34.34 0 0 1 .127.004.32.32 0 0 1 .2.147.32.32 0 0 1 .043.12l2.38 14.77a.34.34 0 0 1-.27.37l-.05.03zm-39.58.33a.32.32 0 0 1-.32-.27l-1.8-11.5a.33.33 0 0 1 .27-.37.32.32 0 0 1 .328.151c.022.037.037.077.043.119l1.8 11.5a.32.32 0 0 1-.004.127c-.01.042-.028.08-.053.115s-.057.063-.093.085a.32.32 0 0 1-.119.043h-.05zm56.04-.5a.31.31 0 0 1-.32-.27l-2.38-14.77c-.013-.085.008-.171.059-.241s.127-.116.212-.129.172.008.241.058.116.127.129.212l2.38 14.77a.32.32 0 0 1-.004.127c-.01.042-.028.08-.053.115s-.057.063-.094.085a.32.32 0 0 1-.12.043h-.05z" class="F"/><path d="M30.4 50.11a.28.28 0 0 1 .26-.29h1c.005-.067.005-.133 0-.2a4.77 4.77 0 0 0-1-2.42 15.72 15.72 0 0 1-6.65 3.24l.47 1.49c.47 1.52.61 1.84 2.14 2.19 1.603.243 3.232.26 4.84.05v-.23l.25-3.57h-1a.28.28 0 0 1-.31-.26zm-3.82 1.23c0-.27.12-.5.29-.51s.33.21.34.48-.13.5-.3.5-.32-.2-.33-.47zm1.1-.85l-1 .05a.28.28 0 0 1-.28-.27.28.28 0 0 1 .26-.29h1a.29.29 0 0 1 .29.27.27.27 0 0 1-.27.27v-.03zm1.83 3l-.53.17a.43.43 0 0 1-.55-.48v-.06a.42.42 0 0 0 .46.16l.52-.18a.53.53 0 0 0 .37-.47v.09a.57.57 0 0 1-.27.8v-.03zm1.53-2.39c0 .27-.12.5-.29.51s-.33-.21-.34-.48.12-.5.3-.5.28.18.33.45v.02zm-7.4 6.25a4.59 4.59 0 0 1-1-3.22v-2.5a1.35 1.35 0 0 0-1.11 1.49 1.56 1.56 0 0 0 .52 1.15v2l-.07 7.58 5.19-1.48v-3.26a3.75 3.75 0 0 1-1.77-.34 10.72 10.72 0 0 1-1.76-1.42z" class="B"/><path d="M27.65 49.94h-1a.28.28 0 0 0-.26.29.28.28 0 0 0 .28.27l1-.05a.27.27 0 0 0 .188-.086.26.26 0 0 0 .055-.09c.012-.034.018-.069.017-.104a.29.29 0 0 0-.28-.23zm4.05-.16h-1a.28.28 0 0 0-.26.29.28.28 0 0 0 .29.26h1a.27.27 0 0 0 .253-.174c.013-.034.019-.07.018-.106a.28.28 0 0 0-.093-.199c-.028-.025-.061-.044-.096-.057a.28.28 0 0 0-.111-.014zm-1.29 1.33c0 .27.16.48.34.48s.3-.24.29-.51-.16-.48-.33-.47-.31.23-.3.5zm-3.2.2c0-.27-.16-.48-.34-.48s-.3.24-.29.51.16.48.33.47.31-.23.3-.5z" class="E"/><path d="M29.79 52.61a.53.53 0 0 1-.37.47l-.52.18a.42.42 0 0 1-.46-.16v.06a.43.43 0 0 0 .142.393.43.43 0 0 0 .408.087l.53-.17a.57.57 0 0 0 .327-.315.57.57 0 0 0-.007-.455l-.05-.09z" fill="#f3764c"/><path d="M26.61 54.08c-1.53-.35-1.67-.67-2.14-2.19L24 50.4a15.72 15.72 0 0 0 6.65-3.24 4.77 4.77 0 0 1 1 2.42.6.6 0 0 0 .28-.13.7.7 0 0 0 .2-.66 12.08 12.08 0 0 0-.14-2.27 2.1 2.1 0 0 0-.86-1.51c-.21-.12-.47-.16-.67-.3a2 2 0 0 1-.58-1c-.14-.38-.38-.79-.78-.85s-.73.22-1.12.19c-.56 0-1-.72-1.56-.52a3.4 3.4 0 0 0-.44.3 2.62 2.62 0 0 0-.87-.1.69.69 0 0 0-.25 0 .6.6 0 0 0-.25.13c-1.07.37-1.49 1.59-2.35 2.28s-2.29 1.24-2.45 2.7c-.003.238-.026.476-.07.71-.08.28-.27.51-.36.79-.26.8.34 1.64.63 2.45a5.12 5.12 0 0 1-.29.63 1.3 1.3 0 0 0-.11 1.26c.23.35.72.43 1 .76.39.49.2 1.38.75 1.66.22.11.49.08.7.2v-2a1.56 1.56 0 0 1-.52-1.15 1.35 1.35 0 0 1 1.11-1.49v2.5a4.59 4.59 0 0 0 1 3.22c.536.527 1.126.996 1.76 1.4a3.75 3.75 0 0 0 1.77.34l2.29-.09a2.36 2.36 0 0 0 1.9-1.88l.1-3c-1.615.204-3.251.18-4.86-.07z" fill="#000"/><path d="M42.99 129.6a.16.16 0 0 1-.16-.15c-.003-.021-.001-.043.005-.064a.15.15 0 0 1 .031-.055c.014-.016.032-.029.051-.038s.041-.013.062-.013c.89-.1 1-.94 1-2.22 0-.78.32-4.84.63-9.15l.77-11.16c.25-8.82-6.15-11.71-13.11-13.51a.17.17 0 0 1-.11-.2.16.16 0 0 1 .19-.12c6.75 1.76 13.61 4.77 13.35 13.84 0 1.1-.4 6.22-.76 11.18l-.64 9.13c0 1.13-.07 2.4-1.31 2.53z" fill="#151b28"/><path d="M35.5 93.82a3.6 3.6 0 0 1 1.26.61.22.22 0 0 1 .066.249.22.22 0 0 1-.216.141c-.25 0-.88-.15-1 .08s.07.23.18.29l1.57.8c.34.16.42.26.45.68a1.06 1.06 0 0 1-.1.821 1.06 1.06 0 0 1-.66.499 4 4 0 0 1-2.3.2c-1.11-.36-2.32-2.43-2.31-3.57 0-.6.42-1.45 1.15-1.21a15.98 15.98 0 0 0 1.91.41z" class="B"/><path d="M22.69 82.26a1.61 1.61 0 0 1-1.185-.876 1.61 1.61 0 0 1 .025-1.474l-1.1-9.11.58-.06-.29-3.05-3.46-1.25c-.36 0-2.88 1.36-2.94 1.73-1 6.67.09 14.16 1.41 19.43.3 1.2 1.37 1.12 2.59.94 3.59-.51 11.06-.75 15.82-1.83a4.77 4.77 0 0 0 .76-.09" class="C"/><path opacity=".4" d="M47.13 8.92a9.76 9.76 0 0 1 6.14 3.75 12.46 12.46 0 0 1 1.81 6.93 27 27 0 0 1-1.23 7.28c-.766 2.66-1.742 5.255-2.92 7.76a12.07 12.07 0 0 1-2.47 3.79c-2.24 2.06-5.27 1.65-7.92.77a33.34 33.34 0 0 1-9.73-5.19 13.56 13.56 0 0 1-4.34-5 22.77 22.77 0 0 1-1.56-6.48c-.4-2.87-.62-6.41.67-9 1.07-2.13 3.41-2.78 5.17-3.47a27.07 27.07 0 0 1 16.38-1.14z" class="H"/><path d="M124.61 17.24c-2.25.39-4.59 1.05-6.11 2.62a6.82 6.82 0 0 0-1.8 4.84 13.99 13.99 0 0 0 1.22 5.08c.785 1.903 1.759 3.723 2.91 5.43a8.75 8.75 0 0 0 2.46 2.65c2.22 1.43 5.24 1.15 7.88.54a39.79 39.79 0 0 0 9.67-3.63c1.697-.794 3.179-1.984 4.32-3.47a12.1 12.1 0 0 0 1.55-4.52c.4-2 .62-4.48-.67-6.3-1.06-1.49-3.39-1.94-5.14-2.42a37.64 37.64 0 0 0-16.29-.82z" fill="#9bcff0"/><path d="M94.18 9.83c3 .56 6 1.51 8 3.75a10.26 10.26 0 0 1 2.36 6.93c-.096 2.502-.638 4.968-1.6 7.28a45.74 45.74 0 0 1-3.81 7.76 12.23 12.23 0 0 1-3.23 3.8c-2.91 2-6.87 1.64-10.33.77a48.81 48.81 0 0 1-12.69-5.2 15.52 15.52 0 0 1-5.67-5 18.38 18.38 0 0 1-2-6.48c-.52-2.88-.82-6.42.87-9 1.4-2.13 4.45-2.78 6.75-3.47a45.35 45.35 0 0 1 21.35-1.14z" class="C"/><path opacity=".4" d="M39.72 44.79a1.37 1.37 0 0 0 0-2.74 1.37 1.37 0 0 0 0 2.74z" class="H"/><path d="M75.26 41.99a1.37 1.37 0 1 0 0-2.74 1.37 1.37 0 1 0 0 2.74z" class="C"/><path opacity=".4" d="M37.836 47.162a.77.77 0 1 0-1.522-.237.77.77 0 0 0 1.522.237z" class="H"/><path d="M131.63 42.58a.77.77 0 0 0 0-1.54.77.77 0 0 0 0 1.54z" fill="#9bcff0"/><path d="M116.14 58.52s1 .08.93-.62l-1.88-.12c.05.34.24.74.95.74zm-87.69-2.86h.87a.09.09 0 0 0 .09-.09v-.13a.09.09 0 0 0-.09-.09h-.87a.09.09 0 0 0-.09.09v.13a.09.09 0 0 0 .09.09z" class="C"/><g class="B"><path d="M44.88 92.99l-2.72-.46.71-1.85 2.57.44-.56 1.87z"/><path d="M45.4 91.1s2.57.07 4.32 3.72l-5-1.85.68-1.87z"/></g><path d="M35.13 85.84a2.65 2.65 0 0 1-1.15-2.65c1.35-7.68-1.67-19.56-2.91-19.84-5-1.16-1 9-1.14 9.81-3 12.92-2.43 12.7-1.44 14.58 1.51 2.89 12.63 4.73 15.27 5.05.3 0 .53-.3.5-.69-.27-4.58 1.19-1.65-9.13-6.26zm-11.02 4.38a2.16 2.16 0 0 1-.87-2.53c2.23-7.77 5-14.79 3.79-14.95-5-.66-6.51 4.57-6.78 5.37-4.5 13.15-3.89 12.87-3.1 14.65 1.21 2.72 12.3 3.46 14.95 3.52.3 0 .57-.35.59-.74" class="C"/><path d="M32.16 96.38a.79.79 0 0 0 .67-.81c0-.55.07-1 .11-1.36.15-1.6.12-1.64-1.78-2a51.26 51.26 0 0 1-7-2 1.31 1.31 0 0 1-.7-.77 2.18 2.18 0 0 1-.11-1.65c.68-2.39-1.76-3.54-1.11-5.59l1.56-5.12h-.15l-1.56 5.11c-.64 2 1.79 3.2 1.1 5.58a2.42 2.42 0 0 0 .12 1.78 1.53 1.53 0 0 0 .8.85 51.81 51.81 0 0 0 7 2c1.79.38 1.79.38 1.65 1.87 0 .36-.08.8-.11 1.36 0 .35-.26.66-.51.66-2.84-.06-13.7-.82-14.88-3.47l-.15-.32a36.53 36.53 0 0 1-1.67-17.26h-.16a36.35 36.35 0 0 0 1.71 17.28l.15.32c1.21 2.73 12.15 3.5 15 3.56l.02-.02z" class="G"/><path d="M32.67 95.52l.15-1.92s.2-.88-.54-1.08l-4.11-.95-.21 1.7 4.23 2.43.48-.18z" class="C"/></svg>