<?xml version="1.0" encoding="iso-8859-1"?>
<!-- Uploaded to: SVG Repo, www.svgrepo.com, Generator: SVG Repo Mixer Tools -->
<svg height="200px" width="200px" version="1.1" id="Layer_1" xmlns="http://www.w3.org/2000/svg" xmlns:xlink="http://www.w3.org/1999/xlink" 
	 viewBox="0 0 508 508" xml:space="preserve">
<circle style="fill:#00BFFF;" cx="254" cy="254" r="254"/>
<path style="fill:#54C0EB;" d="M92.4,450c44,36.4,100.4,58,161.6,58c61.6,0,117.6-21.6,161.6-58H92.4z"/>
<circle style="fill:#FFFFFF;" cx="254" cy="161.6" r="122.4"/>
<g>
	<path style="fill:#E6E9EE;" d="M376.4,161.6c0-29.6-10.8-57.2-28.4-78.4c-0.8,0-12.4-8.8-18.8-8s-12,5.6-14.4,11.6
		c-1.2,3.6-1.6,8.4-5.2,10c-4.4,2.4-10-2-14.8-0.4c-3.6,1.2-4.8,6-4.4,9.6c0.4,2.4,1.6,4.8,2.8,6.8c2.4,2.8,6,6.4,4,9.6
		c-1.6,2.4-5.6,2.4-7.2,5.2c-2,3.2,1.6,6.8,2,10.4c0.4,4-2.4,7.2-4.4,10.4c-7.6,10.8-10.4,25.2-6.4,38c1.2,3.6,3.6,4,4.8,4
		c9.2,0.8,19.2-3.6,28,0c-2.4,2.8-2.4,7.2-0.8,10.4c1.2,2,5.6,11.6,5.6,15.2c0,7.2,0.4,14.4,0.4,21.6c0,1.6,2,6,2.4,6.8
		c1.6,2.4,1.6,5.6,0.8,8c-0.4,2.8-0.8,9.2-0.4,9.6C355.2,240.8,376.4,203.6,376.4,161.6z"/>
	<path style="fill:#E6E9EE;" d="M276.8,46c-5.6-2.8-12.4,0.8-18.8,2c-10.4,2.4-21.2-1.6-30.8-6.4c-37.2,8.4-68.4,34-84,68
		c0.8,1.2,2,2,2.8,3.2c2.8,4.8-0.8,10.8-0.4,16.4c0.4,6.4,6.4,11.2,8.8,17.2c2.4,6,1.2,14,6,18.8c1.6,1.6,3.6,2.8,5.6,4
		c6.8,3.6,14,7.6,20.8,11.2c2.8,1.6,5.6,3.2,6,6c0.8,4.4-4.8,9.2-2.4,13.2c0.8,2,3.2,2.8,4.8,4c4.4,3.6,4.4,10.8,7.6,16
		c1.2,2,3.2,4,4.8,6c3.6,5.2,3.2,12,2.4,18s-2.8,12.4-2,18.8c0.4,2.4,1.2,5.2,3.2,6.8c2,1.6,5.2,2.4,7.2,0.8c1.2-1.2,2-2.8,2.4-4.4
		c4-10.8,9.2-24,20.4-27.6c6-2,10-7.6,11.6-13.2c1.6-6,1.2-12.4,0.4-18.4c-0.4-2-0.8-4-2-6c-1.6-2.4-4.8-3.2-7.2-4.4
		c-8-4.4-12.4-14-21.2-16.4c-5.6-1.6-11.6,0.8-17.2,1.6c-5.6,0.8-12.8-0.8-14.8-6c-0.4-1.2-2.8-4-3.6-4c-3.6-1.2-7.6-2.4-10.4-5.2
		c-2.8-2.8-4.8-6.8-3.6-10.8c1.6-5.2,7.2-7.6,12.4-8.8c10-2.8,21.6-6,26-15.6c1.2-2.8,1.6-5.6,3.6-8c4.4-4.8,14-3.6,16.4-9.6
		c0.4-1.6,0.4-3.2,0.4-4.8c-0.8-4.8-2.8-9.2-6.4-12.4c-3.6-2.8-9.2-4-13.2-1.6c-3.2,1.6-5.2,5.2-7.6,8c-2.4,2.8-6.4,4.8-10,3.6
		c-2.8-1.2-4.4-4.8-3.6-8s2.4-6,4.4-8.4c1.2-1.6,8.4-4.4,10-4.4c8.8,0.4,17.2,0.8,26,1.2c1.2-2,0.4-4.4-0.8-6
		c-1.2-2-2.8-3.2-4.4-4.8c-3.6-4.4-4.4-10.8-2.4-16c8.4,2,16.8,7.6,18.4,16c1.2,6-0.8,12.4,1.6,17.6c5.6,1.6,11.2-1.6,15.2-5.6
		s7.2-8.8,12-12.4c2-1.6,4.4-2.8,6.4-4.4c2.4-2.4,3.6-5.6,4.4-8.8C283.6,56,282,48.8,276.8,46z"/>
</g>
<g>
	<circle style="fill:#324A5E;" cx="254" cy="294.4" r="12.4"/>
	<path style="fill:#324A5E;" d="M402.4,362.4l-24-48c-0.4-1.2-2-4-5.6-4h-34.4l-32-36.8c-1.2-1.2-3.2-0.4-3.6,0l-32,36.8h-34
		l-32-36.8c-0.8-0.8-2.4-1.2-3.6,0l-32,36.8h-34.4c-3.6,0-5.2,2.8-5.6,4l-24,48c-0.8,1.2,0,2.8,1.6,3.2c0.8,0,1.6-0.4,2-0.8
		l21.6-30.8l2.8,39.2c0,1.6,1.2,3.2,2.4,4l-6.8,63.6H124c-4.8,0-8.8,4-8.8,8.8h24l2-8.8l11.2-52l11.2,52l0,0l2,8.8l0,0h11.2h12.8
		c0-4.8-4-8.8-8.8-8.8H176l-6.8-63.6c1.6-0.8,2.4-2.4,2.4-4l3.2-50l28-44l28,44l3.2,50c0,1.6,1.2,3.2,2.4,4l-6.8,63.6H226
		c-4.8,0-8.8,4-8.8,8.8h24l0,0l2-8.8l0,0l11.2-52l12.8,60.8h24c0-4.8-4-8.8-8.8-8.8h-4.8l-6.8-63.6c1.6-0.8,2.4-2.4,2.4-4l3.2-50
		l28-44l28,44l3.2,50c0,1.6,1.2,3.2,2.4,4l-6.8,63.6h-4.8c-4.8,0-8.8,4-8.8,8.8h24l0,0l2-8.8l0,0l11.2-52l11.2,52l2,8.8h24
		c0-4.8-4-8.8-8.8-8.8h-4.8l-6.8-63.6c1.6-0.8,2.4-2.4,2.4-4l2.8-39.2l21.6,30.8c0.4,0.8,1.2,1.2,2,0.8
		C402,365.6,402.8,364,402.4,362.4z"/>
	<circle style="fill:#324A5E;" cx="355.2" cy="294.4" r="12.4"/>
	<circle style="fill:#324A5E;" cx="152.8" cy="294.4" r="12.4"/>
</g>
</svg>